SplineFontDB: 1.0
FontName: AmbrosiaItalic
FullName: AmbrosiaItalic
FamilyName: Ambrosia
Weight: Medium
Copyright: Generated by Fontographer 3.5
Version: 001.000
ItalicAngle: -10
UnderlinePosition: -133
UnderlineWidth: 20
Ascent: 800
Descent: 200
NeedsXUIDChange: 1
Encoding: mac
DisplaySize: -24
AntiAlias: 1
BeginPrivate: 9
BlueValues 63 [-10.000 0.000 502.000 517.000 750.000 771.000 774.000 775.000]
BlueScale 11 0.363636364
UniqueID 7 4445574
StdHW 8 [18.000]
StdVW 9 [104.000]
StemSnapH 15 [13.000 18.000]
StemSnapV 17 [104.000 108.000]
ForceBoldThreshold 2 .5
ForceBold 5 false
EndPrivate
BeginChars: 301 285
StartChar: Eth
Encoding: 1 208
Width: 471
Flags: MW
HStem: 0 13<-8 -7 -7 1> 396 45<13 75 164 218> 737 13<85 89>
VStem: 72 84 350 80
Fore
164 441 m 1
 223 441 l 1
 218 396 l 1
 159 396 l 1
 138 228 120 80 118 67 c 0
 111 12 116 17 130 17 c 0
 203 17 322 146 348 356 c 0
 365 497 311 676 220 718 c 0
 199 728 198 718 197 705 c 0
 187 626 175 532 164 441 c 1
75 396 m 1
 8 396 l 1
 13 441 l 1
 80 441 l 1
 95 566 109 676 110 683 c 0
 114 719 96 737 82 737 c 0
 78 737 77 739 77 743 c 0
 78 749 82 750 85 750 c 2
 168 750 l 2
 222 750 260 724 300 677 c 0
 373 593 440 457 419 288 c 0
 397 107 264 0 109 0 c 2
 -7 0 l 2
 -10 0 -14 1 -13 7 c 0
 -13 11 -10 13 -6 13 c 0
 8 13 28 18 34 67 c 2
 34 67 55 235 75 396 c 1
EndSplineSet
EndChar
StartChar: eth
Encoding: 2 240
Width: 356
Flags: MW
HStem: 0 18 488 14<176 211> 720 30<88.5 109.5>
VStem: 32 57 252 57
Fore
89 651 m 1
 190 651 l 1
 164 696 129 720 90 720 c 0
 78 720 70 722 71 734 c 0
 73 748 80 750 97 750 c 0
 154 750 205 714 243 651 c 1
 368 651 l 1
 363 609 l 1
 264 609 l 1
 299 527 314 415 298 285 c 1
 285 183 l 1
 269 45 210 -1 180 -1 c 0
 144 -1 133 0 133 0 c 2
 55 2 11 76 5 155 c 0
 -7 320 91 502 212 502 c 0
 220 502 219 498 219 494 c 0
 218 490 213 488 209 488 c 0
 143 488 63 310 67 196 c 0
 72 63 127 18 152 18 c 0
 183 18 212 48 227 171 c 1
 236 242 l 1
 255 402 243 527 211 609 c 1
 84 609 l 1
 89 651 l 1
EndSplineSet
EndChar
StartChar: Lslash
Encoding: 3 321
Width: 435
Flags: MW
HStem: 0 13 730 20<111 247 247 247>
VStem: 91 84
Fore
100 442 m 1
 110 527 120 612 129 683 c 0
 136 741 106 742 107 746 c 0
 107 750 109 748 111 750 c 1
 247 750 l 2
 250 749 251 748 251 746 c 0
 250 742 216 710 213 683 c 1
 186 462 l 1
 268 481 l 1
 263 436 l 1
 180 417 l 1
 134 42 l 1
 132 19 145 19 167 19 c 0
 204 19 239 28 288 60 c 0
 310 75 320 106 322 126 c 1
 351 112 373 94 388 67 c 0
 392 61 387 54 381 49 c 0
 342 13 281 0 263 0 c 2
 263 0 87 0 40 0 c 0
 33 0 26 -5 21 -5 c 0
 16 -5 7 0 8 4 c 0
 9 13 17 13 22 13 c 0
 24 13 28 9 31 10 c 0
 50 13 50 38 53 67 c 0
 55 78 74 230 94 397 c 1
 5 376 l 1
 11 421 l 1
 100 442 l 1
EndSplineSet
EndChar
StartChar: lslash
Encoding: 4 322
Width: 165
Flags: MW
HStem: 0 20 730 20<60 128 128 131>
VStem: 36 83
Fore
42 425 m 1
 60 568 76 699 77 705 c 0
 82 746 68 741 58 741 c 0
 56 741 54 743 54 745 c 0
 55 749 59 749 60 750 c 2
 128 750 l 2
 134 750 139 750 138 740 c 0
 138 738 120 594 101 438 c 1
 159 451 l 1
 154 406 l 1
 95 393 l 1
 74 219 52 44 52 44 c 2
 49 20 61 8 70 8 c 0
 73 8 74 7 73 4 c 0
 73 0 70 0 69 0 c 2
 -32 0 l 2
 -33 1 -36 0 -36 4 c 0
 -35 7 -34 8 -31 8 c 0
 -22 8 -8 20 -5 44 c 0
 -4 50 16 216 37 380 c 1
 -26 366 l 1
 -21 411 l 1
 42 425 l 1
EndSplineSet
EndChar
StartChar: Yacute
Encoding: 7 221
Width: 508
Flags: MW
HStem: -6 20
Fore
103 11 m 0
 96 11 86 7 88 0 c 0
 89 -4 93 -6 97 -6 c 0
 106 -6 115 -1 125 -1 c 0
 169 -1 194 -1 237 -1 c 0
 242 -1 250 0 251 5 c 0
 252 14 247 24 249 36 c 0
 251 54 261 74 265 81 c 2
 607 696 l 2
 615 710 619 717 631 726 c 0
 640 734 657 734 659 742 c 1
 659 742 655 749 652 749 c 2
 496 749 l 2
 492 748 486 745 486 742 c 0
 485 736 502 731 506 718 c 0
 510 707 508 698 507 685 c 0
 504 662 503 660 486 628 c 2
 356 380 l 2
 348 365 336 328 319 351 c 0
 256 437 233 512 251 623 c 0
 259 669 287 737 302 737 c 0
 309 737 312 735 318 735 c 0
 322 735 327 738 328 742 c 0
 329 747 325 750 320 750 c 0
 286 750 237 750 204 750 c 0
 198 750 190 744 188 734 c 0
 180 680 182 627 194 563 c 0
 214 457 270 387 310 324 c 0
 314 316 316 307 312 298 c 1
 176 58 l 2
 170 47 147 27 136 20 c 0
 123 13 113 11 103 11 c 0
476 886 m 1
 414 780 l 1
 382 780 l 1
 382 780 397 816 402 839 c 0
 407 857 412 886 412 886 c 1
 476 886 l 1
EndSplineSet
EndChar
StartChar: Thorn
Encoding: 11 222
Width: 375
Flags: MW
HStem: 482 20<121 194 121 121>
VStem: 93 163
Fore
260 306 m 0
 246 192 185 14 118 14 c 0
 95 14 64 37 67 63 c 1
 67 63 113 436 114 448 c 0
 117 472 141 484 163 484 c 0
 200 484 276 441 260 306 c 0
72 750 m 2
 71 750 68 750 68 746 c 0
 67 743 68 742 71 742 c 0
 80 742 92 730 89 706 c 0
 87 694 -15 -141 -17 -155 c 0
 -22 -196 -34 -191 -44 -191 c 0
 -46 -191 -48 -193 -49 -195 c 0
 -49 -199 -45 -199 -44 -200 c 2
 24 -200 l 2
 30 -200 35 -200 36 -190 c 0
 36 -186 62 20 62 22 c 0
 63 30 71 18 75 15 c 0
 79 12 93 0 115 0 c 0
 236 0 302 187 322 347 c 0
 332 427 272 502 194 502 c 2
 121 502 l 1
 150 750 l 1
 72 750 l 2
EndSplineSet
EndChar
StartChar: thorn
Encoding: 12 254
Width: 375
Flags: MW
HStem: 482 20
VStem: 93 163
Fore
260 254 m 0
 246 140 192 14 125 14 c 0
 102 14 71 37 74 63 c 1
 74 63 109 349 110 361 c 0
 113 385 137 397 159 397 c 0
 196 397 277 389 260 254 c 0
65 637 m 2
 64 637 61 637 61 633 c 0
 61 630 61 629 64 629 c 0
 73 629 85 617 82 593 c 0
 81 581 -8 -141 -10 -155 c 0
 -15 -196 -27 -191 -37 -191 c 0
 -39 -191 -42 -193 -42 -195 c 0
 -42 -199 -38 -199 -37 -200 c 2
 31 -200 l 2
 37 -200 42 -200 43 -190 c 0
 43 -186 69 20 69 22 c 0
 70 30 78 18 82 15 c 0
 86 12 100 0 122 0 c 0
 243 0 303 135 322 295 c 0
 332 375 268 415 190 415 c 2
 117 415 l 1
 143 637 l 1
 65 637 l 2
EndSplineSet
EndChar
StartChar: onehalf
Encoding: 21 189
Width: 470
Flags: MW
HStem: -1 20 730 20<149 177 177 179.5>
Fore
255 716 m 0
 258 730 288 732 285 714 c 0
 282 699 155 58 151 40 c 0
 149 28 117 20 121 42 c 0
 124 59 205 464 255 716 c 0
131 725 m 1
 132 725 l 2
 120 716 115 710 108 699 c 0
 100 688 101 683 98 667 c 0
 95 656 90 642 80 642 c 0
 71 642 70 653 71 662 c 0
 73 675 81 687 92 699 c 0
 112 719 125 733 149 750 c 1
 177 750 l 2
 182 750 185 750 185 743 c 1
 175 684 130 419 128 409 c 0
 123 378 133 381 139 381 c 0
 142 381 142 381 142 379 c 0
 141 376 139 376 138 375 c 2
 67 375 l 2
 66 376 63 376 64 378 c 0
 64 381 65 381 67 381 c 0
 74 381 84 384 88 408 c 2
 139 716 l 1
 142 730 136 729 131 725 c 1
396 58 m 1
 395 59 l 2
 405 41 411 21 409 2 c 1
 376 2 321 2 267 2 c 0
 262 2 258 -1 253 -1 c 0
 243 -1 251 30 254 49 c 0
 264 108 271 137 314 194 c 0
 355 250 418 295 425 334 c 0
 428 354 412 373 394 373 c 0
 372 373 340 349 317 325 c 1
 307 345 300 381 300 381 c 1
 342 381 374 381 421 381 c 0
 453 381 467 360 463 332 c 0
 451 264 383 240 332 182 c 0
 301 148 277 113 269 64 c 0
 268 55 268 22 296 22 c 0
 328 22 349 24 377 43 c 0
 385 49 389 52 396 58 c 1
EndSplineSet
EndChar
StartChar: onequarter
Encoding: 22 188
Width: 475
Flags: MW
HStem: 730 20<149 177 177 179.5>
Fore
255 716 m 0
 258 730 288 732 285 714 c 0
 282 699 155 58 151 40 c 0
 149 28 117 20 121 42 c 0
 124 59 205 464 255 716 c 0
131 725 m 1
 132 725 l 2
 120 716 115 710 108 699 c 0
 100 688 101 683 98 667 c 0
 95 656 90 642 80 642 c 0
 71 642 70 653 71 662 c 0
 73 675 81 687 92 699 c 0
 112 719 125 733 149 750 c 1
 177 750 l 2
 182 750 185 750 185 743 c 1
 175 684 130 419 128 409 c 0
 123 378 133 381 139 381 c 0
 142 381 142 381 142 379 c 0
 141 376 139 376 138 375 c 2
 67 375 l 2
 66 376 63 376 64 378 c 0
 64 381 65 381 67 381 c 0
 74 381 84 384 88 408 c 2
 139 716 l 1
 142 730 136 729 131 725 c 1
383 372 m 1
 382 372 l 1
 384 379 404 377 406 377 c 2
 453 377 l 2
 458 377 462 377 461 370 c 0
 454 333 434 215 420 130 c 0
 419 124 419 118 422 119 c 0
 436 124 444 129 457 144 c 1
 453 132 453 127 448 114 c 0
 446 110 444 104 439 104 c 0
 433 106 428 106 422 106 c 0
 417 106 415 100 414 95 c 0
 408 62 405 39 405 36 c 0
 399 5 409 9 415 9 c 0
 418 9 418 8 418 6 c 0
 417 3 415 3 415 3 c 1
 343 3 l 2
 342 3 339 3 340 6 c 0
 340 8 341 9 343 9 c 0
 350 9 361 11 364 36 c 1
 364 36 368 59 373 91 c 0
 375 99 376 105 367 104 c 0
 342 104 299 101 271 101 c 0
 261 101 256 106 259 123 c 0
 275 203 324 240 364 316 c 0
 374 334 377 346 386 364 c 1
 384 368 381 366 383 372 c 1
380 130 m 0
 395 219 415 338 415 344 c 0
 419 362 413 358 409 355 c 0
 350 297 315 227 306 168 c 0
 302 147 301 117 322 117 c 0
 338 117 350 117 368 117 c 0
 372 117 378 119 380 130 c 0
EndSplineSet
EndChar
StartChar: onesuperior
Encoding: 23 185
Width: 178
Flags: MW
HStem: 730 20<149 177 177 179.5>
Fore
132 725 m 0
 120 716 115 710 108 699 c 0
 100 688 101 683 98 667 c 0
 95 656 90 642 80 642 c 0
 71 642 70 653 71 662 c 0
 73 675 81 687 92 699 c 0
 112 719 125 733 149 750 c 1
 177 750 l 2
 182 750 185 750 185 743 c 1
 175 684 130 419 128 409 c 0
 123 378 133 381 139 381 c 0
 142 381 142 381 142 379 c 0
 141 376 139 376 138 375 c 2
 67 375 l 2
 66 376 63 376 64 378 c 0
 64 381 65 381 67 381 c 0
 74 381 84 384 88 408 c 2
 139 716 l 1
 142 730 136 729 132 725 c 0
EndSplineSet
EndChar
StartChar: threequarters
Encoding: 24 190
Width: 495
Flags: W
Fore
295 716 m 0
 298 730 328 732 325 714 c 0
 322 699 195 58 191 40 c 0
 189 28 157 20 161 42 c 0
 164 59 245 464 295 716 c 0
54 429 m 1
 55 429 l 1
 52 401 72 380 99 380 c 0
 143 380 172 447 180 500 c 0
 188 545 180 575 153 605 c 1
 143 596 137 590 131 578 c 0
 124 567 122 560 120 548 c 1
 126 541 128 536 127 527 c 0
 126 523 121 518 116 518 c 0
 106 518 100 528 103 544 c 0
 107 568 128 593 153 618 c 0
 178 643 205 660 210 698 c 0
 213 721 202 738 173 738 c 0
 144 738 124 726 101 697 c 1
 87 713 80 721 76 741 c 0
 76 747 81 745 82 745 c 0
 139 747 161 750 209 745 c 0
 226 743 243 728 239 708 c 0
 230 663 202 655 178 632 c 0
 165 620 170 620 173 615 c 0
 192 575 218 518 209 459 c 0
 200 407 173 372 130 369 c 0
 87 366 65 367 24 369 c 0
 21 369 13 369 17 375 c 0
 31 397 36 409 54 429 c 1
388 372 m 1
 387 372 l 1
 389 379 409 377 411 377 c 2
 458 377 l 2
 463 377 467 377 466 370 c 0
 459 333 439 215 425 130 c 0
 424 124 424 118 427 119 c 0
 441 124 449 129 462 144 c 1
 458 132 458 127 453 114 c 0
 451 110 449 104 444 104 c 0
 438 106 433 106 427 106 c 0
 422 106 420 100 419 95 c 0
 413 62 410 39 410 36 c 0
 404 5 414 9 420 9 c 0
 423 9 423 8 423 6 c 0
 422 3 420 3 420 3 c 1
 348 3 l 2
 347 3 344 3 345 6 c 0
 345 8 346 9 348 9 c 0
 355 9 366 11 369 36 c 1
 369 36 373 59 378 91 c 0
 380 99 381 105 372 104 c 0
 347 104 304 101 276 101 c 0
 266 101 261 106 264 123 c 0
 280 203 329 240 369 316 c 0
 379 334 382 346 391 364 c 1
 389 368 386 366 388 372 c 1
385 130 m 0
 400 219 420 338 420 344 c 0
 424 362 418 358 414 355 c 0
 355 297 320 227 311 168 c 0
 307 147 306 117 327 117 c 0
 343 117 355 117 373 117 c 0
 377 117 383 119 385 130 c 0
EndSplineSet
EndChar
StartChar: threesuperior
Encoding: 25 179
Width: 230
Flags: W
Fore
55 429 m 1
 52 401 72 380 99 380 c 0
 143 380 172 447 180 500 c 0
 188 545 180 575 153 605 c 1
 143 596 137 590 131 578 c 0
 124 567 122 560 120 548 c 1
 126 541 128 536 127 527 c 0
 126 523 121 518 116 518 c 0
 106 518 100 528 103 544 c 0
 107 568 128 593 153 618 c 0
 178 643 205 660 210 698 c 0
 213 721 202 738 173 738 c 0
 144 738 124 726 101 697 c 1
 87 713 80 721 76 741 c 0
 76 747 81 745 82 745 c 0
 139 747 161 750 209 745 c 0
 226 743 243 728 239 708 c 0
 230 663 202 655 178 632 c 0
 165 620 170 620 173 615 c 0
 192 575 218 518 209 459 c 0
 200 407 173 372 130 369 c 0
 87 366 65 367 24 369 c 0
 21 369 13 369 17 375 c 0
 31 397 36 409 55 429 c 1
EndSplineSet
EndChar
StartChar: twosuperior
Encoding: 26 178
Width: 297
Flags: W
Fore
213 427 m 1
 223 409 229 389 226 370 c 1
 194 370 138 370 85 370 c 0
 79 370 76 367 70 367 c 0
 60 367 69 398 72 417 c 0
 81 476 89 505 131 562 c 0
 173 618 236 663 242 702 c 0
 246 722 229 741 212 741 c 0
 190 741 158 717 135 693 c 1
 124 713 118 749 118 749 c 1
 159 749 192 749 239 749 c 0
 271 749 285 728 280 700 c 0
 269 632 201 608 149 550 c 0
 119 516 95 481 87 432 c 0
 85 423 85 390 114 390 c 0
 146 390 166 392 195 411 c 0
 203 417 206 420 213 427 c 1
EndSplineSet
EndChar
StartChar: brokenbar
Encoding: 27 166
Width: 164
Flags: MW
VStem: 38 20<-15 -11.5 -11.5 321 259 321 445 448.5 448.5 781 719 781>
Fore
38 782 m 0
 38 789 58 790 58 781 c 0
 58 774 58 453 58 444 c 0
 58 438 38 434 38 445 c 0
 38 454 38 656 38 782 c 0
38 322 m 0
 38 329 58 330 58 321 c 0
 58 314 58 -7 58 -16 c 0
 58 -22 38 -26 38 -15 c 0
 38 -6 38 196 38 322 c 0
EndSplineSet
EndChar
StartChar: multiply
Encoding: 29 215
Width: 355
Flags: W
Fore
220 364 m 1
 235 379 246 387 266 400 c 1
 241 435 l 1
 227 415 217 403 203 388 c 1
 190 407 182 420 170 444 c 1
 142 415 l 1
 160 398 169 386 182 368 c 1
 168 355 157 346 138 333 c 1
 164 299 l 1
 177 318 187 329 201 344 c 1
 212 326 220 313 231 289 c 1
 259 318 l 1
 243 335 233 347 220 364 c 1
EndSplineSet
EndChar
StartChar: exclam
Encoding: 33 33
Width: 245
Flags: MW
HStem: -18 88 736 13<161 165.5 296.5 304>
Fore
310 742 m 0
 309 738 307 736 303 736 c 0
 290 736 271 743 261 682 c 0
 257 661 164 249 145 131 c 0
 140 100 107 99 113 131 c 0
 116 149 178 662 181 682 c 0
 189 731 172 736 159 736 c 0
 155 736 153 738 154 742 c 0
 155 748 160 747 161 749 c 1
 304 749 l 1
 306 747 311 748 310 742 c 0
78 28 m 0
 83 49 100 71 119 70 c 0
 139 69 147 49 144 28 c 0
 140 6 124 -18 104 -18 c 0
 83 -18 73 6 78 28 c 0
EndSplineSet
EndChar
StartChar: numbersign
Encoding: 35 35
Width: 382
Flags: MW
HStem: 198 120<210 218.5 210 256 256 258>
Fore
337 316 m 1
 355 315 373 314 396 312 c 1
 403 354 l 1
 384 352 368 351 352 350 c 1
 366 379 379 407 396 444 c 1
 356 444 l 1
 343 407 332 378 320 348 c 1
 302 348 284 348 261 348 c 0
 247 348 235 348 223 348 c 1
 236 377 250 407 268 444 c 1
 228 444 l 1
 215 407 204 378 193 349 c 1
 172 350 151 351 125 354 c 1
 119 312 l 1
 142 314 161 316 180 316 c 1
 170 293 160 267 147 237 c 0
 141 224 136 212 131 200 c 1
 113 201 95 202 73 204 c 1
 66 162 l 1
 85 164 101 165 116 166 c 1
 98 124 85 98 61 47 c 1
 101 47 l 1
 119 98 129 125 145 167 c 1
 164 168 182 168 204 168 c 0
 219 168 233 168 246 168 c 1
 227 126 215 100 189 47 c 1
 229 47 l 1
 248 99 257 125 274 167 c 1
 295 166 316 165 344 162 c 1
 351 204 l 1
 327 202 307 200 288 199 c 1
 293 211 297 224 304 237 c 1
 316 267 328 293 337 316 c 1
210 318 m 1
 224 318 239 318 256 318 c 0
 276 318 293 318 308 317 c 1
 298 293 288 268 275 237 c 0
 269 223 264 210 258 198 c 1
 244 198 228 198 209 198 c 0
 191 198 175 198 160 199 c 1
 164 211 170 223 176 237 c 0
 189 268 199 293 210 318 c 1
EndSplineSet
EndChar
StartChar: dollar
Encoding: 36 36
Width: 468
Flags: MW
HStem: 120 34 286 52 462 26<341 351>
Fore
299 448 m 1
 276 314 l 1
 284 294 284 276 280 256 c 0
 276 232 271 222 258 204 c 1
 253 170 l 1
 323 203 379 262 393 342 c 0
 403 400 372 462 330 462 c 0
 317 462 310 456 299 448 c 1
237 190 m 1
 230 192 226 206 226 206 c 1
 232 214 235 221 237 230 c 0
 241 261 220 286 190 286 c 0
 163 286 139 260 134 232 c 0
 126 188 161 156 202 154 c 0
 214 154 220 156 232 158 c 1
 237 190 l 1
285 478 m 1
 313 646 l 1
 303 650 297 652 286 652 c 0
 253 652 220 613 214 574 c 0
 205 523 237 478 285 478 c 1
172 550 m 0
 182 610 231 666 319 680 c 1
 321 690 323 706 325 716 c 0
 328 730 347 732 344 714 c 0
 341 699 340 690 338 678 c 1
 368 667 396 664 420 638 c 0
 433 624 419 609 409 596 c 0
 399 582 389 574 372 568 c 1
 374 587 372 600 363 614 c 0
 355 627 345 631 331 638 c 1
 305 484 l 1
 322 488 332 488 350 488 c 0
 411 488 464 421 451 346 c 0
 432 232 337 143 244 120 c 1
 241 101 239 90 237 72 c 0
 235 60 215 52 218 74 c 0
 221 91 222 104 225 120 c 1
 179 117 94 170 107 246 c 0
 116 298 166 336 217 338 c 0
 235 339 245 336 260 328 c 1
 279 442 l 1
 268 441 259 439 249 440 c 0
 194 445 162 492 172 550 c 0
EndSplineSet
EndChar
StartChar: percent
Encoding: 37 37
Width: 484
Flags: MW
HStem: 0 20
Fore
477 716 m 0
 485 730 515 732 504 714 c 0
 495 699 104 58 92 40 c 0
 85 28 52 20 65 42 c 0
 75 59 323 464 477 716 c 0
351 341 m 0
 324 311 314 277 307 234 c 0
 298 183 287 82 349 35 c 0
 357 29 367 28 374 34 c 0
 413 66 425 116 434 171 c 0
 447 248 442 325 388 350 c 0
 376 356 362 352 351 341 c 0
382 386 m 0
 398 395 410 394 424 387 c 0
 477 361 484 294 473 223 c 0
 459 139 424 30 349 4 c 0
 337 0 328 -3 319 4 c 0
 256 48 253 118 267 202 c 0
 280 282 317 350 382 386 c 0
178 696 m 0
 151 666 141 632 134 589 c 0
 125 538 114 437 176 390 c 0
 184 384 194 383 201 389 c 0
 239 421 252 471 261 526 c 0
 274 603 269 680 214 705 c 0
 202 711 189 707 178 696 c 0
209 741 m 0
 224 749 237 749 251 742 c 0
 303 716 312 649 300 578 c 0
 286 494 251 385 175 359 c 0
 164 355 155 352 145 359 c 0
 83 403 79 473 93 557 c 0
 106 637 143 704 209 741 c 0
EndSplineSet
EndChar
StartChar: ampersand
Encoding: 38 38
Width: 573
Flags: MW
HStem: 0 13<431.5 435> 732 18<313.5 328 317 376 399 399 399 418>
Fore
379 674 m 0
 383 697 387 712 376 732 c 1
 356 732 339 732 317 732 c 0
 310 732 303 728 296 722 c 0
 270 699 256 674 251 640 c 0
 245 605 251 566 279 534 c 0
 292 518 298 522 311 540 c 0
 343 587 372 635 379 674 c 0
474 420 m 1
 415 67 l 1
 407 18 425 13 438 13 c 0
 442 13 444 11 443 7 c 0
 442 1 437 2 435 0 c 1
 186 0 l 2
 110 0 77 81 90 160 c 0
 112 292 191 393 265 490 c 0
 271 498 275 507 269 513 c 0
 231 556 189 595 200 664 c 0
 208 710 254 750 295 750 c 2
 551 750 l 1
 542 737 525 722 507 672 c 1
 495 687 489 699 472 711 c 0
 454 724 442 732 418 732 c 2
 399 732 l 1
 400 712 399 702 396 682 c 0
 385 619 344 570 301 503 c 0
 236 402 195 329 176 214 c 0
 161 127 170 33 249 19 c 0
 267 16 291 19 294 19 c 0
 308 19 328 20 335 67 c 0
 337 79 396 429 396 429 c 2
 398 441 398 458 388 458 c 0
 375 458 363 460 347 459 c 0
 332 458 331 471 351 473 c 0
 410 479 462 468 504 491 c 0
 531 506 561 530 562 549 c 1
 596 531 l 2
 604 527 611 521 609 510 c 0
 607 501 600 496 593 491 c 0
 553 466 524 471 493 456 c 0
 479 449 477 435 474 420 c 1
EndSplineSet
EndChar
StartChar: quotesingle
Encoding: 39 39
Width: 199
Flags: MW
HStem: 730 20<162 162 162 242>
Fore
162 750 m 1
 182 625 l 1
 222 625 l 1
 242 750 l 1
 162 750 l 1
EndSplineSet
EndChar
StartChar: parenleft
Encoding: 40 40
Width: 382
Flags: W
Fore
411 786 m 1
 280 679 220 448 205 360 c 0
 175 177 183 70 232 -96 c 0
 241 -127 252 -128 247 -90 c 0
 217 128 215 174 243 345 c 0
 264 468 301 550 388 648 c 1
 394 674 401 688 405 714 c 0
 410 742 411 758 411 786 c 1
EndSplineSet
EndChar
StartChar: parenright
Encoding: 41 41
Width: 382
Flags: W
Fore
264 360 m 0
 234 177 189 70 85 -96 c 0
 66 -127 54 -128 72 -90 c 0
 177 128 194 174 222 345 c 0
 243 468 233 550 179 648 c 1
 181 674 180 688 184 714 c 0
 189 742 193 758 202 786 c 1
 297 679 279 448 264 360 c 0
EndSplineSet
EndChar
StartChar: asterisk
Encoding: 42 42
Width: 337
Flags: W
Fore
196 308 m 1
 189 275 180 239 170 212 c 1
 167 194 180 189 190 187 c 0
 201 185 217 194 219 212 c 1
 218 242 221 273 225 303 c 1
 248 287 268 271 287 249 c 1
 299 240 313 249 319 260 c 0
 326 271 332 284 318 295 c 1
 289 302 266 317 242 333 c 1
 273 349 303 364 332 371 c 1
 349 380 347 396 344 406 c 0
 342 418 330 424 313 415 c 1
 287 394 263 378 236 363 c 1
 241 394 248 426 260 455 c 1
 263 473 250 478 238 477 c 0
 228 476 217 475 211 455 c 1
 212 424 209 391 204 358 c 1
 180 376 161 391 142 416 c 1
 128 426 114 415 108 406 c 1
 99 396 92 380 105 370 c 1
 138 361 158 348 181 333 c 1
 153 318 128 307 95 296 c 1
 79 287 76 270 81 260 c 0
 85 251 94 244 112 252 c 1
 138 274 166 290 196 308 c 1
EndSplineSet
EndChar
StartChar: plus
Encoding: 43 43
Width: 337
Flags: W
Fore
226 318 m 1
 247 318 261 316 284 312 c 1
 291 354 l 1
 267 350 252 348 231 348 c 1
 235 370 239 385 247 410 c 1
 207 410 l 1
 207 385 206 370 202 348 c 1
 183 349 169 350 146 354 c 1
 140 312 l 1
 163 316 178 317 198 318 c 1
 193 297 190 282 181 258 c 1
 221 258 l 1
 222 282 223 297 226 318 c 1
EndSplineSet
EndChar
StartChar: comma
Encoding: 44 44
Width: 251
Flags: W
Fore
74 -58 m 1
 66 -50 l 1
 75 -44 81 -39 88 -30 c 0
 97 -19 103 -10 103 2 c 1
 100 1 97 0 93 0 c 0
 72 0 62 24 67 46 c 0
 71 67 88 86 109 88 c 0
 135 91 146 62 142 36 c 0
 135 -5 117 -35 74 -58 c 1
EndSplineSet
EndChar
StartChar: hyphen
Encoding: 45 45
Width: 337
Flags: W
Fore
146 354 m 1
 140 312 l 1
 168 317 184 318 212 318 c 0
 240 318 256 317 284 312 c 1
 291 354 l 1
 262 349 245 348 217 348 c 0
 189 348 174 349 146 354 c 1
EndSplineSet
EndChar
StartChar: period
Encoding: 46 46
Width: 251
Flags: MW
HStem: 0 88
Fore
67 46 m 0
 71 67 89 89 109 88 c 0
 128 87 138 67 134 46 c 0
 130 24 114 0 93 0 c 0
 72 0 62 24 67 46 c 0
EndSplineSet
EndChar
StartChar: slash
Encoding: 47 47
Width: 484
Flags: W
Fore
467 716 m 0
 476 730 506 732 495 714 c 0
 486 699 94 58 83 40 c 0
 76 28 42 20 55 42 c 0
 65 59 313 464 467 716 c 0
EndSplineSet
EndChar
StartChar: zero
Encoding: 48 48
Width: 505
Flags: MW
HStem: -6 20
Fore
271 676 m 0
 216 617 198 548 183 462 c 0
 165 360 143 157 267 64 c 0
 283 52 303 49 318 62 c 0
 394 125 420 225 438 336 c 0
 464 489 453 644 344 694 c 0
 320 705 292 699 271 676 c 0
333 766 m 0
 364 783 390 782 417 768 c 0
 522 715 541 582 517 440 c 0
 488 271 417 53 266 2 c 0
 243 -6 226 -11 207 2 c 0
 81 90 75 229 103 398 c 0
 130 557 203 693 333 766 c 0
EndSplineSet
EndChar
StartChar: one
Encoding: 49 49
Width: 337
Flags: MW
HStem: 0 20 730 20<298 355 355 359.5>
Fore
263 700 m 0
 240 682 230 670 215 648 c 0
 199 626 201 616 195 584 c 0
 190 562 180 534 160 534 c 0
 142 534 139 556 142 574 c 0
 146 600 161 624 184 648 c 0
 223 689 251 717 298 750 c 1
 355 750 l 2
 364 750 370 750 369 735 c 1
 349 617 260 88 256 67 c 0
 246 6 266 13 279 13 c 0
 283 13 285 11 284 7 c 0
 283 1 278 2 276 0 c 1
 134 0 l 1
 132 2 127 1 128 7 c 0
 129 11 131 13 135 13 c 0
 148 13 169 18 177 67 c 2
 279 683 l 1
 283 709 273 707 263 700 c 0
EndSplineSet
EndChar
StartChar: two
Encoding: 50 50
Width: 563
Flags: MW
HStem: 0 41<199.5 222.5 199.5 260> 742 16<401 440.5>
Fore
426 113 m 1
 446 78 457 37 452 0 c 1
 387 0 276 0 169 0 c 0
 158 0 151 -6 140 -6 c 0
 121 -6 138 56 144 95 c 0
 163 211 178 270 263 384 c 0
 346 495 472 585 485 665 c 0
 492 704 458 742 423 742 c 0
 379 742 315 694 269 647 c 1
 248 687 236 758 236 758 c 1
 319 758 384 758 478 758 c 0
 542 758 569 715 560 660 c 0
 537 523 402 476 298 359 c 0
 238 291 189 222 173 124 c 0
 170 107 171 41 228 41 c 0
 292 41 333 43 390 83 c 0
 406 94 413 100 426 113 c 1
EndSplineSet
EndChar
StartChar: three
Encoding: 51 51
Width: 437
Flags: MW
HStem: -2 22<172 242.5> 736 14<317 375>
Fore
109 118 m 1
 104 62 145 20 199 20 c 0
 286 20 344 154 361 260 c 0
 375 350 359 410 305 470 c 1
 285 452 274 439 261 416 c 0
 249 394 244 380 240 356 c 1
 253 342 257 332 254 314 c 0
 253 305 241 296 232 296 c 0
 211 296 200 315 206 348 c 0
 214 395 256 446 307 496 c 0
 357 545 410 579 420 656 c 0
 426 702 404 736 346 736 c 0
 288 736 248 711 202 654 c 1
 174 686 159 702 153 742 c 0
 151 754 161 750 165 750 c 0
 278 755 322 761 418 750 c 0
 453 746 486 717 478 676 c 0
 459 586 404 570 355 524 c 0
 330 500 341 501 346 490 c 0
 385 410 437 295 417 178 c 0
 400 74 347 4 260 -2 c 0
 174 -8 130 -7 47 -2 c 0
 42 -2 27 -2 34 10 c 0
 62 53 73 78 109 118 c 1
EndSplineSet
EndChar
StartChar: four
Encoding: 52 52
Width: 484
Flags: MW
HStem: 0 13<244 251.5 382.5 387 244 244> 204 26<291 294 294 298.5> 730 20<370 465 465 469.5>
Fore
323 739 m 0
 326 753 367 750 370 750 c 2
 465 750 l 2
 474 750 482 750 479 735 c 0
 467 661 427 425 398 254 c 0
 396 242 395 232 402 234 c 0
 429 243 446 253 471 282 c 1
 465 259 465 249 453 222 c 0
 450 214 446 202 435 204 c 0
 423 206 413 206 401 206 c 0
 391 206 388 195 386 184 c 0
 375 119 368 73 367 67 c 0
 356 6 376 13 389 13 c 0
 393 13 395 11 394 7 c 0
 393 1 389 2 387 0 c 1
 244 0 l 1
 242 2 237 1 238 7 c 0
 239 11 241 13 245 13 c 0
 258 13 279 18 287 67 c 2
 287 67 294 112 305 178 c 0
 308 193 310 204 291 204 c 0
 243 203 155 198 100 198 c 0
 80 198 70 208 77 242 c 0
 108 402 205 476 286 628 c 0
 305 664 312 687 329 724 c 1
 325 730 321 726 323 739 c 0
318 256 m 0
 348 433 388 672 389 683 c 0
 396 719 384 711 376 704 c 0
 259 589 189 449 169 330 c 0
 162 288 161 230 202 230 c 0
 234 230 259 230 294 230 c 0
 303 230 314 234 318 256 c 0
EndSplineSet
EndChar
StartChar: five
Encoding: 53 53
Width: 488
Flags: MW
HStem: -12 20<165.5 238.5> 708 30
Fore
257 674 m 0
 234 610 219 567 197 502 c 0
 190 481 194 477 203 478 c 0
 241 482 261 482 295 472 c 0
 305 469 314 464 320 472 c 0
 371 537 401 586 412 638 c 0
 419 673 397 708 362 708 c 0
 323 708 271 714 257 674 c 0
275 738 m 0
 350 735 419 740 479 740 c 0
 501 740 499 729 493 720 c 0
 439 632 396 557 333 472 c 0
 329 466 334 459 338 456 c 0
 425 396 462 321 443 206 c 0
 424 95 337 -12 239 -12 c 0
 170 -12 119 -12 61 -12 c 0
 52 -12 37 -10 45 4 c 0
 61 35 66 51 85 80 c 0
 97 97 102 94 101 82 c 0
 97 46 142 8 189 8 c 0
 288 8 350 127 368 232 c 0
 381 311 370 371 321 418 c 1
 315 422 308 429 302 422 c 1
 276 383 226 314 218 260 c 0
 215 243 213 228 224 218 c 0
 229 214 233 216 237 212 c 0
 241 207 245 203 244 196 c 0
 240 177 224 162 206 162 c 0
 181 162 176 193 180 218 c 0
 193 296 235 350 285 418 c 0
 291 426 291 439 283 442 c 0
 248 457 226 457 180 454 c 0
 166 453 154 444 163 466 c 0
 199 548 227 631 255 726 c 0
 260 744 267 738 275 738 c 0
EndSplineSet
EndChar
StartChar: six
Encoding: 54 54
Width: 488
Flags: MW
HStem: -12 30<265.5 319> 430 60<313 346> 710 46
Fore
181 310 m 0
 161 193 220 18 311 18 c 0
 370 18 390 87 400 144 c 0
 415 232 401 430 291 430 c 0
 234 430 193 378 181 310 c 0
203 410 m 1
 243 464 294 490 332 490 c 0
 446 490 479 322 460 206 c 0
 442 100 368 -12 270 -12 c 0
 174 -12 69 104 102 300 c 0
 138 509 282 739 514 756 c 0
 527 757 531 750 527 742 c 0
 516 718 511 707 493 688 c 0
 485 679 477 683 470 688 c 0
 453 702 443 710 421 710 c 0
 312 710 216 484 203 410 c 1
EndSplineSet
EndChar
StartChar: seven
Encoding: 55 55
Width: 448
Flags: MW
HStem: -3 20 712 32
Fore
279 240 m 0
 264 152 275 80 298 22 c 0
 301 15 303 3 294 2 c 0
 263 -3 239 -4 207 -2 c 0
 199 -2 196 4 194 10 c 0
 180 57 184 90 193 142 c 0
 229 357 331 501 470 688 c 0
 476 697 483 713 464 712 c 0
 363 707 274 704 207 636 c 0
 193 621 189 629 184 636 c 0
 167 667 162 685 157 722 c 0
 156 730 150 742 166 742 c 0
 298 746 370 744 506 744 c 0
 525 744 524 737 520 730 c 1
 421 599 312 439 279 240 c 0
EndSplineSet
EndChar
StartChar: eight
Encoding: 56 56
Width: 488
Flags: MW
HStem: -10 26<186.5 284.5> 734 22<320 372>
Fore
306 464 m 1
 231 419 171 326 153 220 c 0
 138 127 135 16 238 16 c 0
 337 16 361 117 375 200 c 0
 393 312 365 414 306 464 c 1
316 506 m 1
 370 545 410 604 420 660 c 0
 431 724 397 734 347 734 c 0
 293 734 269 707 261 662 c 0
 250 597 268 546 316 506 c 1
271 468 m 0
 287 484 295 486 277 510 c 0
 244 554 182 599 194 670 c 0
 206 741 274 756 360 756 c 0
 439 756 503 737 492 668 c 0
 480 596 404 547 347 496 c 0
 330 480 333 476 342 466 c 0
 411 387 464 304 442 176 c 0
 414 12 339 -10 230 -10 c 0
 86 -10 61 57 84 192 c 0
 104 313 180 383 271 468 c 0
EndSplineSet
EndChar
StartChar: nine
Encoding: 57 57
Width: 488
Flags: MW
HStem: -12 48 258 60<267 292.5> 726 30<290 343.5>
Fore
428 434 m 0
 447 551 389 726 298 726 c 0
 239 726 218 657 209 600 c 0
 194 512 215 318 319 318 c 0
 376 318 417 366 428 434 c 0
406 334 m 1
 361 284 309 258 276 258 c 0
 163 258 129 422 149 538 c 0
 167 644 241 756 339 756 c 0
 435 756 540 640 507 444 c 0
 471 235 320 5 95 -12 c 0
 74 -14 78 -6 82 2 c 0
 94 26 99 37 116 56 c 0
 123 65 132 61 139 56 c 0
 156 42 166 36 188 36 c 0
 295 36 393 260 406 334 c 1
EndSplineSet
EndChar
StartChar: colon
Encoding: 58 58
Width: 251
Flags: MW
HStem: 0 88 415 88
Fore
67 46 m 0
 71 67 89 89 109 88 c 0
 128 87 138 67 134 46 c 0
 130 24 114 0 93 0 c 0
 72 0 62 24 67 46 c 0
137 461 m 0
 142 482 159 504 179 503 c 0
 199 502 207 482 203 461 c 0
 199 439 183 415 162 415 c 0
 142 415 132 439 137 461 c 0
EndSplineSet
EndChar
StartChar: semicolon
Encoding: 59 59
Width: 251
Flags: MW
HStem: 415 88
Fore
137 461 m 0
 142 482 159 504 179 503 c 0
 199 502 207 482 203 461 c 0
 199 439 183 415 162 415 c 0
 142 415 132 439 137 461 c 0
74 -58 m 1
 66 -50 l 1
 75 -44 81 -39 88 -30 c 0
 97 -19 103 -10 103 2 c 1
 100 1 97 0 93 0 c 0
 72 0 62 24 67 46 c 0
 71 67 88 86 109 88 c 0
 135 91 146 62 142 36 c 0
 135 -5 117 -35 74 -58 c 1
EndSplineSet
EndChar
StartChar: less
Encoding: 60 60
Width: 399
Flags: W
Fore
362 505 m 0
 323 430 246 386 166 344 c 0
 150 336 124 325 124 325 c 1
 131 317 158 307 166 301 c 0
 222 263 247 236 274 179 c 0
 291 141 287 103 288 67 c 1
 287 60 280 55 273 54 c 0
 226 45 259 51 213 43 c 1
 220 62 228 95 233 144 c 0
 240 210 200 246 156 286 c 0
 137 303 118 309 93 328 c 1
 93 328 144 349 167 362 c 0
 193 376 268 441 297 492 c 0
 316 525 305 541 305 560 c 1
 327 556 341 554 362 549 c 0
 370 548 381 541 362 505 c 0
EndSplineSet
EndChar
StartChar: equal
Encoding: 61 61
Width: 280
Flags: MW
HStem: 301 62<185 205.5>
Fore
112 307 m 1
 105 267 l 1
 137 272 155 273 185 273 c 0
 217 273 235 272 265 267 c 1
 272 307 l 1
 239 302 221 301 190 301 c 0
 160 301 142 302 112 307 c 1
127 397 m 1
 121 357 l 1
 152 362 170 363 200 363 c 0
 232 363 250 362 280 357 c 1
 287 397 l 1
 255 392 237 391 205 391 c 0
 175 391 157 392 127 397 c 1
EndSplineSet
EndChar
StartChar: greater
Encoding: 62 62
Width: 399
Flags: W
Fore
170 505 m 0
 163 541 178 548 185 549 c 0
 208 554 222 556 246 560 c 1
 238 541 223 525 231 492 c 0
 243 441 295 376 317 362 c 0
 336 349 380 328 380 328 c 1
 348 309 327 303 302 286 c 0
 244 246 193 210 178 144 c 0
 167 95 163 62 165 43 c 1
 121 51 152 45 109 54 c 0
 102 55 97 60 98 67 c 1
 110 103 120 141 150 179 c 0
 196 236 228 263 297 301 c 0
 308 307 338 317 347 325 c 1
 347 325 325 336 313 344 c 0
 246 386 185 430 170 505 c 0
EndSplineSet
EndChar
StartChar: question
Encoding: 63 63
Width: 470
Flags: MW
HStem: 0 88 497 19<210.5 239> 737 24<289.5 385>
Fore
323 761 m 0
 464 761 510 670 489 546 c 0
 472 442 389 420 319 342 c 0
 279 297 238 233 228 168 c 0
 226 156 221 152 215 152 c 0
 208 152 201 150 204 167 c 0
 218 245 230 284 289 361 c 0
 337 425 421 477 433 549 c 0
 442 603 452 737 318 737 c 0
 251 737 184 674 173 610 c 0
 165 564 189 516 223 516 c 0
 255 516 284 545 290 578 c 0
 293 598 278 625 254 632 c 1
 269 640 278 645 294 645 c 0
 329 645 354 614 348 577 c 0
 339 524 288 497 241 497 c 0
 180 497 147 553 158 616 c 0
 171 697 256 761 323 761 c 0
162 46 m 0
 166 67 184 89 204 88 c 0
 223 87 233 67 229 46 c 0
 225 24 209 0 188 0 c 0
 167 0 157 24 162 46 c 0
EndSplineSet
EndChar
StartChar: at
Encoding: 64 64
Width: 526
Flags: MW
HStem: 60 40<279 312.5 279 477> 164 14<301.5 307 301.5 322.5> 434 11<325.5 358> 520 21<332 365> 615 40<310.5 419>
Fore
351 205 m 0
 352 214 383 397 383 397 c 1
 386 417 366 434 350 434 c 0
 301 434 266 389 253 311 c 0
 236 210 289 178 314 178 c 0
 331 178 348 187 351 205 c 0
273 60 m 0
 148 59 64 193 91 357 c 0
 119 521 247 655 371 655 c 0
 496 655 580 515 557 378 c 0
 536 252 447 164 401 164 c 2
 401 164 321 164 293 164 c 0
 237 164 196 220 206 280 c 0
 224 390 265 445 351 445 c 0
 367 445 377 436 379 433 c 1
 382 431 387 422 388 428 c 0
 389 430 392 454 395 469 c 0
 401 502 381 520 349 520 c 0
 315 520 252 497 286 457 c 1
 273 442 267 439 246 432 c 1
 225 518 310 541 352 541 c 0
 408 541 442 503 431 442 c 0
 429 432 396 235 395 226 c 0
 392 208 400 199 407 199 c 0
 443 199 504 270 522 378 c 0
 542 498 473 615 365 615 c 0
 256 615 150 499 126 357 c 0
 103 215 171 100 279 100 c 0
 306 100 484 100 484 100 c 1
 477 60 l 1
 477 60 352 60 273 60 c 0
EndSplineSet
EndChar
StartChar: A
Encoding: 65 65
Width: 442
Flags: MW
HStem: -3 20 488 21<306 328.5> 528 18<319.5 340.5> 731 18<365.5 381>
VStem: 199 10
Fore
192 271 m 0
 212 393 146 473 168 607 c 0
 182 689 211 706 214 719 c 0
 217 736 198 735 199 744 c 0
 199 748 206 749 209 750 c 1
 209 750 310 749 373 749 c 0
 429 749 456 750 518 750 c 1
 528 746 546 752 543 740 c 0
 542 729 508 729 503 700 c 0
 460 444 437 299 394 44 c 0
 388 5 417 13 416 3 c 0
 415 0 412 -1 409 -3 c 1
 282 -3 l 1
 281 -1 278 -1 279 3 c 0
 281 17 313 2 321 48 c 0
 348 203 363 293 389 448 c 0
 393 474 390 475 374 480 c 0
 355 486 340 488 317 488 c 0
 286 488 263 485 235 472 c 0
 227 468 226 467 224 454 c 0
 211 373 225 334 201 193 c 0
 188 114 175 63 120 -3 c 1
 22 -3 l 1
 117 81 178 190 192 271 c 0
321 509 m 0
 347 509 361 504 386 498 c 0
 398 495 400 513 394 515 c 0
 370 523 350 528 331 528 c 0
 308 528 271 523 237 508 c 0
 225 503 226 485 242 491 c 0
 275 504 291 509 321 509 c 0
234 559 m 0
 231 537 224 519 244 527 c 0
 279 541 302 546 337 546 c 0
 358 546 370 543 389 537 c 0
 402 533 406 543 407 551 c 0
 413 591 421 638 430 693 c 0
 435 720 430 729 414 729 c 0
 400 729 389 731 373 731 c 0
 358 731 349 730 332 728 c 0
 272 721 247 638 234 559 c 0
EndSplineSet
EndChar
StartChar: B
Encoding: 66 66
Width: 447
Flags: MW
HStem: 0 13<37 44.5 37 37> 732 18<318 318 341 351 341 400>
Fore
271 731 m 1
 251 613 163 88 160 67 c 0
 152 20 170 19 183 19 c 0
 187 19 211 16 229 19 c 0
 313 33 354 127 369 214 c 0
 389 329 372 402 340 503 c 0
 319 570 293 619 304 682 c 0
 307 702 312 712 318 732 c 1
 271 731 l 1
427 750 m 2
 469 750 502 710 494 664 c 0
 483 595 427 556 374 513 c 0
 367 507 368 498 370 490 c 1
 411 393 457 292 435 160 c 0
 422 81 362 0 286 0 c 2
 37 0 l 1
 35 2 30 1 31 7 c 0
 32 11 34 13 38 13 c 0
 51 13 72 18 80 67 c 2
 80 67 179 665 182 683 c 0
 188 719 173 737 160 737 c 0
 156 737 154 739 155 743 c 0
 156 749 160 750 162 750 c 2
 427 750 l 2
436 640 m 0
 442 674 436 699 417 722 c 0
 412 728 408 732 400 732 c 0
 378 732 361 732 341 732 c 1
 325 712 323 697 319 674 c 0
 313 635 325 587 342 540 c 0
 349 522 354 519 371 534 c 0
 410 567 430 605 436 640 c 0
EndSplineSet
EndChar
StartChar: C
Encoding: 67 67
Width: 437
Flags: MW
HStem: -10 28<315 350.5> 732 18<389 429>
Fore
542 750 m 1
 515 708 493 683 458 651 c 1
 457 669 463 680 457 696 c 0
 449 716 440 732 418 732 c 0
 312 732 250 532 232 425 c 0
 202 248 218 18 347 18 c 0
 379 18 398 21 429 37 c 1
 398 6 370 -10 331 -10 c 0
 299 -10 239 28 201 80 c 0
 144 158 127 295 150 432 c 0
 180 606 318 750 389 750 c 0
 449 750 483 750 542 750 c 1
EndSplineSet
EndChar
StartChar: D
Encoding: 68 68
Width: 447
Flags: MW
HStem: 0 13<36 37 37 44.5> 737 13<162 166.5>
Fore
392 356 m 0
 416 497 373 676 290 718 c 0
 270 728 268 718 266 705 c 0
 225 467 164 88 160 67 c 0
 151 12 155 17 168 17 c 0
 237 17 357 146 392 356 c 0
457 288 m 0
 427 107 294 0 147 0 c 2
 37 0 l 2
 34 0 30 1 31 7 c 0
 32 11 34 13 38 13 c 0
 51 13 72 18 80 67 c 2
 80 67 179 665 182 683 c 0
 188 719 173 737 160 737 c 0
 156 737 154 739 155 743 c 0
 156 749 160 750 162 750 c 2
 241 750 l 2
 293 750 327 724 363 677 c 0
 427 593 485 457 457 288 c 0
EndSplineSet
EndChar
StartChar: E
Encoding: 69 69
Width: 447
Flags: MW
HStem: -15 42<243.5 245> 474 21<244 259.5 244 304 304 321.5> 739 12
Fore
165 36 m 0
 181 28 193 27 212 27 c 0
 278 27 356 77 389 123 c 0
 391 126 396 135 402 129 c 0
 418 112 430 102 441 89 c 0
 445 84 443 75 437 70 c 0
 386 23 326 -15 275 -15 c 0
 212 -15 169 14 113 47 c 0
 99 56 89 64 70 64 c 0
 63 64 58 64 51 62 c 0
 43 60 38 66 50 73 c 0
 65 81 84 97 90 132 c 2
 90 132 179 665 182 683 c 0
 188 719 173 739 160 739 c 0
 156 739 155 741 155 745 c 0
 156 751 159 750 163 752 c 0
 169 755 174 751 180 751 c 0
 357 751 326 756 411 756 c 0
 457 756 500 735 509 701 c 0
 511 693 508 692 503 689 c 0
 481 673 467 663 443 648 c 0
 440 646 434 643 433 652 c 0
 429 679 427 696 408 713 c 0
 390 728 373 730 350 731 c 0
 330 732 303 732 287 731 c 0
 275 730 271 727 269 718 c 0
 263 680 249 602 234 513 c 0
 233 506 231 495 244 495 c 0
 265 495 277 495 304 495 c 0
 339 495 393 514 433 552 c 0
 437 556 441 563 445 560 c 1
 458 545 465 540 478 528 c 0
 481 526 479 522 476 519 c 0
 421 479 389 474 334 474 c 0
 298 474 277 474 242 474 c 0
 228 474 226 466 225 457 c 0
 195 279 183 212 160 67 c 0
 158 55 155 41 165 36 c 0
EndSplineSet
EndChar
StartChar: F
Encoding: 70 70
Width: 373
Flags: MW
HStem: -59 20<203.5 224.5> 735 21
Fore
325 418 m 0
 288 414 267 414 233 418 c 0
 218 420 218 410 216 401 c 0
 186 223 181 196 157 51 c 0
 147 -7 188 -39 219 -39 c 0
 244 -39 246 -41 262 -34 c 0
 272 -30 275 -23 285 -20 c 0
 297 -17 310 -11 313 -22 c 0
 317 -31 311 -42 302 -46 c 0
 282 -56 279 -52 264 -54 c 0
 245 -57 234 -59 215 -59 c 0
 157 -59 148 -28 91 -28 c 0
 69 -28 43 -28 36 -30 c 0
 27 -32 22 -26 35 -19 c 0
 49 -11 69 5 75 40 c 1
 75 40 179 665 182 683 c 0
 188 719 173 739 160 739 c 0
 156 739 155 741 155 745 c 0
 156 751 159 750 163 752 c 0
 169 755 174 751 180 751 c 0
 357 751 449 756 535 756 c 0
 552 756 551 751 550 742 c 0
 545 714 532 683 515 648 c 0
 477 569 446 530 415 450 c 0
 401 413 388 392 382 354 c 0
 376 321 375 300 384 270 c 0
 387 261 388 256 392 247 c 0
 395 239 397 231 389 224 c 1
 382 216 371 229 368 238 c 0
 364 248 367 258 367 271 c 0
 366 302 364 322 370 354 c 0
 374 378 382 393 389 416 c 0
 391 424 388 434 380 432 c 0
 362 428 344 420 325 418 c 0
470 619 m 0
 475 646 479 735 362 735 c 0
 287 735 262 679 258 658 c 0
 252 620 239 546 225 457 c 0
 223 450 221 439 235 439 c 0
 256 439 258 437 283 439 c 0
 319 442 449 494 470 619 c 0
EndSplineSet
EndChar
StartChar: G
Encoding: 71 71
Width: 477
Flags: MW
HStem: 735 36<373 430.5>
Fore
121 374 m 0
 152 562 298 771 446 771 c 0
 493 771 541 748 572 691 c 0
 580 675 571 671 562 663 c 0
 536 641 518 632 482 612 c 1
 482 612 477 616 476 620 c 0
 476 624 482 627 482 631 c 0
 490 701 444 735 417 735 c 0
 329 735 240 528 215 377 c 0
 186 207 184 22 331 -17 c 0
 347 -21 352 -10 354 1 c 0
 383 170 403 293 427 438 c 0
 433 475 418 512 383 515 c 0
 364 517 349 510 332 498 c 0
 318 487 309 500 322 511 c 0
 348 532 369 536 398 536 c 0
 428 536 445 533 475 533 c 0
 491 533 505 534 517 538 c 0
 525 541 527 537 525 530 c 0
 524 522 522 515 520 505 c 0
 499 383 488 315 467 193 c 0
 452 101 448 48 433 -44 c 0
 432 -51 424 -53 419 -53 c 0
 201 -62 83 149 121 374 c 0
EndSplineSet
EndChar
StartChar: H
Encoding: 72 72
Width: 471
Flags: MW
HStem: 0 20 730 20<169 298 298 298 436 565 565 565>
VStem: 165 137<746 747> 308 137<4 6>
Fore
397 432 m 0
 386 427 377 425 363 422 c 0
 332 416 313 416 282 407 c 0
 257 400 241 388 223 372 c 0
 213 364 208 359 205 342 c 0
 188 236 163 85 160 67 c 0
 150 6 178 8 178 4 c 0
 177 2 176 1 173 0 c 2
 44 0 l 1
 42 2 40 2 41 4 c 0
 41 8 72 18 80 67 c 2
 80 67 179 665 182 683 c 0
 190 732 164 742 165 746 c 0
 165 748 167 748 169 750 c 1
 298 750 l 2
 301 749 302 748 302 746 c 0
 301 742 273 744 262 683 c 0
 259 665 230 490 227 472 c 0
 224 452 223 443 242 455 c 0
 265 469 281 475 304 478 c 0
 325 481 339 481 360 487 c 0
 383 493 396 500 418 518 c 0
 423 521 427 546 427 546 c 1
 429 564 446 665 449 683 c 0
 460 741 431 742 432 746 c 0
 432 750 434 748 436 750 c 1
 565 750 l 2
 568 749 569 748 569 746 c 0
 568 742 538 732 529 683 c 0
 526 665 427 67 427 67 c 2
 419 18 445 8 445 4 c 0
 444 2 443 1 440 0 c 2
 311 0 l 1
 309 2 307 0 308 4 c 0
 308 8 337 9 347 67 c 0
 350 85 383 281 405 413 c 0
 407 426 405 435 397 432 c 0
218 415 m 0
 217 408 216 402 215 395 c 0
 214 389 222 390 228 394 c 0
 252 410 264 417 288 423 c 0
 317 431 334 428 364 436 c 0
 381 441 389 445 406 455 c 0
 410 458 413 463 414 468 c 0
 415 475 416 480 417 485 c 0
 418 495 411 493 404 489 c 0
 388 480 381 476 363 471 c 0
 336 464 323 463 295 460 c 0
 268 457 251 446 227 426 c 0
 223 423 218 420 218 415 c 0
EndSplineSet
EndChar
StartChar: I
Encoding: 73 73
Width: 205
Flags: MW
HStem: 0 13<37 37 37 44.5 175.5 180> 737 13<162 166.5>
Fore
37 0 m 1
 35 2 30 1 31 7 c 0
 32 11 34 13 38 13 c 0
 51 13 72 18 80 67 c 6
 80 67 179 665 182 683 c 0
 188 719 173 737 160 737 c 0
 156 737 154 739 155 743 c 0
 156 749 161 748 162 750 c 1
 258 750 l 2
 267 750 274 750 272 735 c 0
 252 617 164 88 160 67 c 0
 150 6 169 13 182 13 c 0
 186 13 188 11 187 7 c 0
 186 1 181 2 180 0 c 1
 37 0 l 1
EndSplineSet
EndChar
StartChar: J
Encoding: 74 74
Width: 182
Flags: MW
HStem: 737 13<162 166.5>
Fore
45 11 m 0
 68 44 90 128 98 177 c 2
 98 177 179 665 182 683 c 0
 188 719 173 737 160 737 c 0
 156 737 154 739 155 743 c 0
 156 749 161 748 162 750 c 1
 258 750 l 2
 267 750 274 750 272 735 c 0
 252 617 183 210 180 189 c 0
 165 102 99 17 89 5 c 0
 83 -3 13 -83 -74 -114 c 0
 -78 -115 -79 -116 -83 -116 c 0
 -86 -116 -92 -113 -91 -108 c 0
 -90 -103 -87 -102 -85 -101 c 0
 -31 -76 5 -44 45 11 c 0
EndSplineSet
EndChar
StartChar: K
Encoding: 75 75
Width: 442
Flags: MW
HStem: 0 13<37 44.5 154.5 155 37 37> 737 13<162 166.5>
VStem: 311 116
Fore
245 579 m 0
 212 380 163 83 160 67 c 0
 150 6 151 13 158 13 c 0
 161 13 163 11 162 7 c 0
 161 1 157 2 155 0 c 1
 37 0 l 1
 35 2 30 1 31 7 c 0
 32 11 34 13 38 13 c 0
 51 13 72 18 80 67 c 2
 80 67 179 665 182 683 c 0
 188 719 173 737 160 737 c 0
 156 737 154 739 155 743 c 0
 156 749 161 748 162 750 c 1
 258 750 l 2
 267 750 274 750 272 735 c 0
 269 722 266 703 262 681 c 0
 259 663 264 656 266 641 c 0
 274 583 280 547 304 498 c 0
 307 492 314 493 320 498 c 0
 370 539 417 586 428 648 c 0
 434 685 423 721 394 750 c 1
 491 750 l 1
 503 732 504 716 500 692 c 0
 485 595 405 534 327 486 c 0
 312 477 317 473 320 466 c 0
 375 333 440 211 417 74 c 0
 413 53 409 35 409 19 c 0
 409 12 419 10 423 8 c 0
 426 7 427 6 427 3 c 0
 427 1 422 0 418 0 c 2
 315 0 l 2
 313 0 311 3 311 7 c 0
 312 12 314 13 317 18 c 0
 338 54 341 78 347 117 c 0
 363 216 343 327 307 433 c 0
 293 475 275 520 258 570 c 1
 256 582 248 594 245 579 c 0
EndSplineSet
EndChar
StartChar: L
Encoding: 76 76
Width: 413
Flags: MW
HStem: -5 18<62.5 65> 730 20<187 316 316 316>
VStem: 183 137<746 747>
Fore
202 19 m 0
 237 19 272 28 320 60 c 0
 342 75 353 106 355 126 c 1
 383 112 403 94 416 67 c 0
 419 61 414 54 408 49 c 0
 369 13 311 0 294 0 c 2
 294 0 126 0 82 0 c 0
 75 0 67 -5 63 -5 c 0
 58 -5 50 0 51 4 c 0
 52 13 60 13 65 13 c 0
 66 13 71 9 74 10 c 0
 91 13 93 38 98 67 c 0
 101 85 162 462 200 683 c 0
 210 741 182 742 183 746 c 0
 183 750 185 748 187 750 c 1
 316 750 l 2
 319 749 320 748 320 746 c 0
 319 742 285 710 280 683 c 1
 173 42 l 2
 169 19 181 19 202 19 c 0
EndSplineSet
EndChar
StartChar: M
Encoding: 77 77
Width: 546
Flags: MW
HStem: 0 13<506.5 510> 737 13<493 496.5 628 636>
Fore
486 604 m 0
 444 511 399 429 349 326 c 0
 338 304 335 293 339 266 c 0
 349 201 353 160 342 90 c 0
 336 55 327 33 312 0 c 1
 217 0 l 1
 253 48 280 100 291 168 c 0
 305 249 277 409 235 632 c 0
 229 665 220 645 218 632 c 1
 128 94 l 1
 123 67 122 48 138 30 c 0
 145 22 161 19 159 8 c 0
 158 0 146 0 139 0 c 2
 51 0 l 2
 44 0 34 0 36 10 c 0
 38 21 55 18 66 26 c 1
 83 41 91 56 95 78 c 1
 191 654 l 1
 197 688 195 715 173 736 c 0
 169 739 162 739 162 744 c 0
 162 752 175 750 182 750 c 2
 255 750 l 2
 264 750 283 754 278 744 c 0
 275 737 269 739 263 734 c 1
 255 725 251 715 247 702 c 0
 242 683 246 671 250 654 c 0
 273 541 299 459 318 368 c 0
 324 340 333 349 343 366 c 0
 413 492 425 536 482 650 c 0
 493 673 500 697 503 714 c 0
 504 724 503 737 490 737 c 0
 486 737 484 739 485 743 c 0
 486 749 491 748 493 750 c 1
 636 750 l 1
 637 748 642 749 641 743 c 0
 640 739 638 737 635 737 c 0
 621 737 601 732 593 683 c 1
 593 683 493 85 490 67 c 0
 484 31 500 13 513 13 c 0
 517 13 519 11 518 7 c 0
 517 1 512 2 510 0 c 1
 407 0 l 2
 398 0 389 -2 391 13 c 0
 393 21 405 33 407 46 c 0
 430 187 500 604 500 604 c 2
 506 639 489 609 486 604 c 0
EndSplineSet
EndChar
StartChar: N
Encoding: 78 78
Width: 483
Flags: MW
HStem: -4 20 730 20<199 271 271 277 480 567 567 571>
Fore
417 320 m 0
 425 288 432 307 434 320 c 1
 491 656 l 1
 496 683 497 702 481 720 c 0
 473 728 458 731 460 742 c 0
 461 750 472 750 480 750 c 2
 567 750 l 2
 575 750 584 750 582 740 c 0
 581 729 563 732 554 724 c 0
 536 709 527 694 523 672 c 1
 427 96 l 1
 421 62 419 45 413 14 c 0
 409 -10 379 -11 384 16 c 0
 387 35 395 87 398 104 c 0
 404 135 402 166 389 198 c 0
 335 331 283 398 236 554 c 0
 232 568 223 567 221 554 c 1
 144 94 l 1
 139 67 138 48 154 30 c 0
 161 22 177 19 175 8 c 0
 174 0 162 0 155 0 c 2
 67 0 l 2
 60 0 50 0 52 10 c 0
 54 21 71 18 82 26 c 1
 99 41 107 56 111 78 c 1
 207 654 l 1
 213 688 211 715 189 736 c 0
 185 739 179 739 179 744 c 0
 179 752 191 750 199 750 c 2
 271 750 l 2
 283 750 303 753 301 744 c 0
 300 738 292 737 288 732 c 0
 279 722 278 714 276 702 c 0
 272 682 277 671 281 654 c 0
 308 542 383 456 417 320 c 0
EndSplineSet
EndChar
StartChar: O
Encoding: 79 79
Width: 471
Flags: MW
HStem: 748 20
Fore
186 454 m 0
 158 282 163 88 279 46 c 0
 352 19 418 207 438 326 c 0
 465 486 441 644 345 684 c 0
 253 722 203 555 186 454 c 0
104 386 m 0
 130 545 199 676 332 754 c 0
 368 775 398 770 427 750 c 0
 510 694 534 567 511 430 c 0
 496 343 460 91 283 0 c 0
 249 -18 227 -27 200 -8 c 0
 85 74 76 219 104 386 c 0
EndSplineSet
EndChar
StartChar: P
Encoding: 80 80
Width: 408
Flags: MW
HStem: 0 17<171 296 296 316> 235 29<270.5 277.5> 733 17<299 352.5>
Fore
266 715 m 0
 241 567 162 87 158 67 c 0
 156 53 147 17 171 17 c 0
 221 17 274 17 296 17 c 0
 336 17 320 23 338 23 c 0
 359 23 355 13 355 9 c 0
 354 3 349 2 347 0 c 1
 35 0 l 1
 33 2 28 1 29 7 c 0
 30 11 32 13 36 13 c 0
 49 13 70 18 78 67 c 2
 78 67 177 665 180 683 c 0
 186 719 161 729 148 729 c 0
 144 729 128 721 131 738 c 0
 133 750 143 750 143 750 c 1
 421 750 l 2
 483 750 494 654 481 579 c 0
 456 427 320 235 250 235 c 0
 236 235 218 245 220 263 c 0
 222 275 232 284 245 284 c 0
 255 284 254 272 261 268 c 0
 266 266 268 264 273 264 c 0
 282 264 307 282 321 300 c 0
 358 345 389 430 403 514 c 0
 419 615 401 733 304 733 c 0
 294 733 290 734 280 731 c 0
 273 729 267 721 266 715 c 0
EndSplineSet
EndChar
StartChar: Q
Encoding: 81 81
Width: 477
Flags: MW
HStem: 99 29 748 20
Fore
385 131 m 0
 409 188 428 262 438 326 c 0
 462 486 441 644 345 684 c 0
 253 722 203 555 186 454 c 0
 158 282 161 80 278 38 c 0
 296 32 314 37 331 52 c 0
 342 61 336 69 332 76 c 0
 327 86 317 99 302 99 c 0
 297 99 294 99 291 96 c 0
 286 93 278 97 285 104 c 0
 300 120 317 128 337 128 c 0
 351 128 358 126 371 122 c 0
 376 120 382 125 385 131 c 0
409 92 m 0
 431 59 448 30 471 -5 c 0
 473 -7 466 -8 464 -8 c 0
 453 -8 448 -5 438 -5 c 0
 420 -5 409 -10 391 -10 c 0
 378 -10 370 -7 363 3 c 0
 356 11 353 25 344 25 c 0
 339 25 338 26 332 21 c 0
 318 11 302 0 285 -9 c 0
 251 -27 226 -35 199 -16 c 0
 84 66 76 219 104 386 c 0
 130 545 199 676 332 754 c 0
 368 775 398 770 427 750 c 0
 510 694 534 567 511 430 c 0
 501 369 480 222 410 111 c 0
 407 105 406 97 409 92 c 0
EndSplineSet
EndChar
StartChar: R
Encoding: 82 82
Width: 471
Flags: MW
HStem: 0 20 737 13<161 164.5>
Fore
465 750 m 2
 494 750 532 716 526 680 c 0
 514 609 392 510 320 458 c 0
 313 454 313 446 315 440 c 0
 326 405 345 392 362 358 c 0
 417 249 469 149 453 52 c 0
 450 32 446 20 439 0 c 1
 336 0 l 1
 347 23 354 36 358 60 c 0
 370 127 362 172 348 238 c 0
 339 283 324 305 311 348 c 0
 284 436 275 464 255 578 c 0
 254 583 247 602 243 578 c 0
 208 366 153 37 150 21 c 0
 146 0 139 0 130 0 c 2
 35 0 l 1
 33 2 28 1 29 7 c 0
 30 11 32 13 36 13 c 0
 49 13 70 18 78 67 c 2
 78 67 177 665 180 683 c 0
 186 719 171 737 158 737 c 0
 154 737 152 739 153 743 c 0
 154 749 158 750 161 750 c 2
 465 750 l 2
303 730 m 0
 287 730 269 729 266 714 c 0
 264 703 262 693 260 680 c 0
 252 631 275 553 295 480 c 0
 301 459 313 471 324 480 c 0
 390 540 427 623 432 652 c 0
 440 696 407 730 364 730 c 0
 341 730 326 730 303 730 c 0
EndSplineSet
EndChar
StartChar: S
Encoding: 83 83
Width: 408
Flags: MW
HStem: -29 23<164 202> 135 58<197.5 209> 318 37<172.5 200> 473 87<274.5 290> 711 60
Fore
358 771 m 0
 403 771 428 757 459 728 c 0
 465 722 460 717 455 712 c 0
 428 691 414 671 396 651 c 0
 392 647 389 646 385 652 c 0
 361 689 346 709 305 711 c 0
 238 715 182 645 168 574 c 0
 163 548 167 532 171 509 c 0
 172 503 180 504 185 509 c 0
 214 538 253 560 296 560 c 0
 408 560 449 420 428 293 c 0
 386 38 226 -29 178 -29 c 0
 150 -29 20 20 48 187 c 0
 62 270 143 355 202 355 c 0
 269 355 311 294 299 225 c 0
 293 186 255 135 211 135 c 0
 181 135 176 170 179 189 c 0
 180 196 183 198 190 196 c 0
 193 195 196 193 199 193 c 0
 219 193 237 216 241 239 c 0
 248 280 215 318 185 318 c 0
 130 318 75 241 64 172 c 0
 52 101 101 -6 181 -6 c 0
 251 -6 352 82 375 219 c 0
 398 354 349 473 231 473 c 0
 213 473 204 470 184 460 c 0
 179 457 173 456 170 461 c 0
 146 502 135 530 143 580 c 0
 161 685 283 771 358 771 c 0
EndSplineSet
EndChar
StartChar: T
Encoding: 84 84
Width: 447
Flags: MW
HStem: 0 13<162 170 301 305 162 162> 714 32
Fore
298 714 m 0
 288 714 280 711 269 708 c 0
 226 697 197 680 164 653 c 0
 161 650 147 651 155 664 c 0
 170 689 181 710 195 734 c 0
 199 742 208 750 217 750 c 0
 264 750 306 746 363 746 c 0
 419 746 456 750 507 750 c 0
 515 750 523 752 524 740 c 0
 529 714 529 706 540 682 c 0
 546 668 546 659 528 672 c 0
 501 693 478 700 443 708 c 0
 428 711 419 714 407 714 c 0
 392 714 390 698 388 683 c 0
 369 565 289 88 285 67 c 0
 275 6 294 13 308 13 c 0
 312 13 313 11 313 7 c 0
 312 1 307 2 305 0 c 1
 162 0 l 1
 161 2 156 1 157 7 c 0
 158 11 160 13 163 13 c 0
 177 13 197 18 205 67 c 1
 205 67 271 467 308 683 c 0
 310 696 311 714 298 714 c 0
EndSplineSet
EndChar
StartChar: U
Encoding: 85 85
Width: 465
Flags: MW
HStem: 0 20 737 13<341 347 427 430.5>
Fore
305 25 m 0
 313 12 336 18 344 67 c 2
 344 67 443 665 446 683 c 0
 452 719 437 737 424 737 c 0
 420 737 418 739 419 743 c 0
 420 749 425 748 427 750 c 1
 522 750 l 2
 531 750 538 750 536 735 c 0
 516 617 428 88 424 67 c 0
 414 6 433 13 446 13 c 0
 450 13 452 11 451 7 c 0
 450 1 446 2 444 0 c 1
 313 0 l 2
 293 0 281 6 268 22 c 0
 161 149 96 297 133 518 c 0
 146 594 199 693 202 708 c 0
 204 721 188 725 190 738 c 0
 191 745 199 749 207 750 c 2
 347 750 l 1
 349 748 353 749 352 743 c 0
 351 739 350 737 346 737 c 0
 336 737 316 707 292 680 c 0
 277 663 214 546 199 456 c 0
 170 286 216 166 305 25 c 0
EndSplineSet
EndChar
StartChar: V
Encoding: 86 86
Width: 443
Flags: MW
HStem: -2 20 728 22<322 330>
Fore
206 750 m 0
 255 750 285 750 332 750 c 0
 338 750 347 750 346 744 c 0
 345 736 334 728 326 728 c 0
 318 728 315 730 308 730 c 0
 294 730 287 714 279 700 c 0
 255 655 254 622 245 572 c 0
 219 420 269 317 323 162 c 0
 326 152 331 109 352 168 c 0
 427 373 476 554 480 580 c 0
 490 639 499 693 461 724 c 0
 452 731 428 725 430 738 c 0
 432 747 444 750 451 750 c 0
 509 750 532 750 590 750 c 0
 596 750 606 752 605 746 c 0
 604 742 597 740 594 736 c 1
 566 710 569 710 554 680 c 0
 518 610 506 541 481 470 c 0
 414 277 401 228 327 16 c 0
 317 -12 313 -5 308 16 c 0
 281 132 225 225 190 358 c 0
 160 473 139 535 162 656 c 0
 168 688 179 720 183 738 c 0
 186 748 198 750 206 750 c 0
EndSplineSet
EndChar
StartChar: W
Encoding: 87 87
Width: 662
Flags: MW
HStem: 728 22<322 330>
Fore
206 750 m 0
 255 750 285 750 332 750 c 0
 338 750 347 750 346 744 c 0
 345 736 334 728 326 728 c 0
 318 728 315 730 308 730 c 0
 294 730 287 714 279 700 c 0
 255 655 249 622 241 572 c 0
 215 420 252 283 283 110 c 0
 285 99 292 57 313 116 c 0
 377 295 429 434 472 578 c 0
 481 607 490 603 493 576 c 0
 509 446 505 373 548 218 c 0
 551 209 561 212 571 238 c 0
 609 334 618 377 652 468 c 0
 668 512 668 536 675 580 c 0
 685 639 684 687 646 720 c 0
 637 727 620 725 622 738 c 0
 624 747 636 750 643 750 c 0
 701 750 737 750 795 750 c 0
 801 750 810 750 809 744 c 0
 808 740 803 740 799 736 c 0
 770 709 762 686 743 652 c 0
 705 584 700 541 673 470 c 0
 606 293 564 175 507 16 c 0
 500 -4 478 -27 480 2 c 0
 484 63 484 99 476 158 c 0
 465 237 446 285 436 354 c 0
 434 370 428 374 421 354 c 0
 376 235 340 154 298 16 c 0
 290 -12 283 -6 279 16 c 0
 255 132 214 219 183 354 c 0
 157 470 139 535 162 656 c 0
 168 688 179 720 183 738 c 0
 186 748 198 750 206 750 c 0
EndSplineSet
EndChar
StartChar: X
Encoding: 88 88
Width: 483
Flags: MW
HStem: -1 20 738 17<134 140.5>
VStem: 282 179
Fore
418 53 m 1
 421 39 430 32 438 23 c 0
 446 15 463 15 461 7 c 1
 461 7 455 0 451 0 c 2
 290 0 l 2
 286 1 282 4 282 7 c 0
 283 13 313 14 323 27 c 0
 331 38 330 41 332 54 c 0
 334 67 337 63 330 95 c 1
 280 307 l 1
 276 322 274 367 253 335 c 0
 200 253 188 251 170 140 c 0
 158 67 186 25 192 -1 c 1
 158 -1 124 -1 91 -1 c 0
 85 -1 80 5 81 15 c 0
 85 69 94 136 123 190 c 0
 174 286 195 306 251 363 c 0
 258 371 264 381 262 390 c 2
 194 691 l 1
 191 703 175 722 166 729 c 0
 157 736 146 738 136 738 c 0
 129 738 122 742 125 749 c 0
 128 753 132 755 136 755 c 0
 145 755 152 750 162 750 c 0
 206 750 231 750 274 750 c 0
 279 750 287 749 286 744 c 0
 285 735 277 725 275 713 c 0
 271 695 273 675 275 668 c 1
 313 501 l 1
 318 477 326 444 345 471 c 0
 400 549 413 569 431 650 c 0
 443 702 408 723 403 749 c 1
 437 749 470 749 503 749 c 0
 516 749 529 742 520 686 c 0
 509 622 404 508 342 445 c 0
 335 437 331 427 333 418 c 2
 418 53 l 1
EndSplineSet
EndChar
StartChar: Y
Encoding: 89 89
Width: 483
Flags: MW
HStem: -6 20 730 20<201 220.5 204 320>
Fore
103 11 m 0
 96 11 86 7 88 0 c 0
 89 -4 93 -6 97 -6 c 0
 106 -6 115 -1 125 -1 c 0
 169 -1 194 -1 237 -1 c 0
 242 -1 250 0 251 5 c 0
 252 14 247 24 249 36 c 0
 251 54 261 74 265 81 c 2
 607 696 l 2
 615 710 619 717 631 726 c 0
 640 734 657 734 659 742 c 1
 659 742 655 749 652 749 c 2
 496 749 l 2
 492 748 486 745 486 742 c 0
 485 736 502 731 506 718 c 0
 510 707 508 698 507 685 c 0
 504 662 503 660 486 628 c 2
 356 380 l 2
 348 365 336 328 319 351 c 0
 256 437 233 512 251 623 c 0
 259 669 287 737 302 737 c 0
 309 737 312 735 318 735 c 0
 322 735 327 738 328 742 c 0
 329 747 325 750 320 750 c 0
 286 750 237 750 204 750 c 0
 198 750 190 744 188 734 c 0
 180 680 182 627 194 563 c 0
 214 457 270 387 310 324 c 0
 314 316 316 307 312 298 c 1
 176 58 l 2
 170 47 147 27 136 20 c 0
 123 13 113 11 103 11 c 0
EndSplineSet
EndChar
StartChar: Z
Encoding: 90 90
Width: 500
Flags: MW
HStem: 0 24<188 237.5> 739 20<608 617>
Fore
72 0 m 0
 54 0 52 4 62 20 c 2
 503 713 l 1
 506 720 512 734 498 732 c 0
 403 721 320 699 262 654 c 0
 256 649 253 651 257 660 c 1
 281 700 285 711 301 744 c 0
 305 753 312 753 317 753 c 0
 427 755 494 757 608 759 c 0
 626 759 618 751 615 745 c 1
 158 40 l 2
 152 30 159 27 164 27 c 0
 173 27 182 24 194 24 c 0
 281 24 372 61 450 111 c 0
 454 114 462 117 462 110 c 0
 466 72 468 52 486 17 c 0
 490 10 485 0 472 0 c 0
 323 0 200 0 72 0 c 0
EndSplineSet
EndChar
StartChar: bracketleft
Encoding: 91 91
Width: 402
Flags: MW
HStem: -5 18<62.5 65> 737 18
VStem: 176 227
Fore
200 683 m 0
 205 712 213 737 196 740 c 0
 194 741 188 737 186 737 c 0
 181 737 174 737 176 746 c 0
 176 750 185 755 190 755 c 0
 195 755 200 750 207 750 c 0
 252 750 403 750 403 750 c 2
 415 750 453 741 472 716 c 0
 475 712 477 707 473 703 c 0
 458 684 439 672 417 662 c 1
 420 676 420 698 408 708 c 0
 382 730 345 731 320 731 c 0
 306 731 289 731 285 708 c 2
 173 42 l 2
 169 19 186 19 200 19 c 0
 225 19 262 21 295 42 c 0
 312 53 319 74 321 88 c 1
 340 78 354 66 363 47 c 0
 366 43 362 38 358 34 c 0
 331 9 290 0 277 0 c 2
 277 0 126 0 82 0 c 0
 75 0 67 -5 63 -5 c 0
 58 -5 50 0 51 4 c 0
 52 13 60 13 65 13 c 0
 66 13 71 9 74 10 c 0
 91 13 93 38 98 67 c 0
 101 85 162 462 200 683 c 0
EndSplineSet
EndChar
StartChar: backslash
Encoding: 92 92
Width: 484
Flags: W
Fore
195 716 m 0
 191 730 162 732 167 714 c 0
 171 699 348 58 353 40 c 0
 356 28 388 20 381 42 c 0
 376 59 264 464 195 716 c 0
EndSplineSet
EndChar
StartChar: bracketright
Encoding: 93 93
Width: 402
Flags: MW
HStem: -5 18 737 18<473.5 476.5>
Fore
364 4 m 0
 363 0 353 -5 349 -5 c 0
 344 -5 338 0 332 0 c 0
 287 0 136 0 136 0 c 2
 123 0 86 9 66 34 c 1
 65 38 63 43 66 47 c 0
 82 66 100 78 123 88 c 1
 119 74 119 52 131 42 c 0
 158 20 194 19 218 19 c 0
 233 19 250 19 254 42 c 2
 366 708 l 2
 370 731 352 731 338 731 c 0
 313 731 276 730 243 708 c 0
 227 698 219 676 218 662 c 1
 199 672 185 684 176 703 c 0
 174 707 178 712 180 716 c 1
 209 741 249 750 261 750 c 2
 261 750 412 750 457 750 c 0
 464 750 471 755 476 755 c 0
 481 755 488 750 488 746 c 0
 486 737 479 737 474 737 c 0
 472 737 468 741 465 740 c 0
 447 737 446 712 441 683 c 0
 404 462 341 85 338 67 c 0
 333 38 326 13 343 10 c 0
 346 9 351 13 352 13 c 0
 357 13 365 13 364 4 c 0
EndSplineSet
EndChar
StartChar: asciicircum
Encoding: 94 94
Width: 320
Flags: W
Fore
117 500 m 1
 160 500 l 1
 251 590 l 1
 302 500 l 1
 350 500 l 1
 312 670 l 1
 221 670 l 1
 117 500 l 1
EndSplineSet
EndChar
StartChar: underscore
Encoding: 95 95
Width: 337
Flags: W
Fore
20 -6 m 1
 1 -38 l 1
 316 -38 l 1
 335 -6 l 1
 20 -6 l 1
EndSplineSet
EndChar
StartChar: grave
Encoding: 96 96
Width: 222
Flags: MW
HStem: 625 125<200 238 200 200>
Fore
238 625 m 1
 200 625 l 1
 169 750 l 1
 245 750 l 1
 245 750 239 716 238 695 c 0
 237 667 238 625 238 625 c 1
EndSplineSet
EndChar
StartChar: a
Encoding: 97 97
Width: 360
Flags: MW
HStem: 0 18<182.5 185.5> 488 14<235 278>
Fore
253 86 m 0
 255 98 309 407 309 407 c 2
 318 459 289 488 267 488 c 0
 203 488 137 310 118 196 c 0
 95 61 165 18 200 18 c 0
 221 18 244 40 253 86 c 0
303 58 m 0
 298 27 322 22 328 40 c 0
 330 46 336 64 336 64 c 1
 350 64 l 1
 347 53 345 48 341 37 c 0
 331 8 299 -4 271 1 c 0
 262 3 256 7 252 12 c 1
 229 3 201 0 170 0 c 0
 96 0 42 75 56 155 c 0
 83 315 156 502 271 502 c 0
 288 502 305 492 319 479 c 1
 376 493 l 1
 358 382 312 117 305 76 c 0
 305 72 304 66 303 58 c 0
EndSplineSet
EndChar
StartChar: b
Encoding: 98 98
Width: 351
Flags: MW
HStem: 0 18<133 150.5> 488 14<215.5 256> 731 20
Fore
276 196 m 0
 295 310 288 488 224 488 c 0
 202 488 165 465 161 439 c 1
 161 439 100 66 98 54 c 0
 93 30 112 18 133 18 c 0
 168 18 254 61 276 196 c 0
169 480 m 0
 167 472 179 484 183 487 c 0
 187 490 205 502 226 502 c 0
 341 502 350 315 323 155 c 0
 309 75 232 0 158 0 c 0
 108 0 35 7 48 76 c 0
 50 88 149 691 152 705 c 0
 159 746 129 729 123 711 c 0
 121 705 115 687 115 687 c 1
 101 687 l 1
 104 698 106 703 110 714 c 0
 120 743 152 755 180 750 c 0
 209 745 205 704 203 694 c 0
 202 688 169 482 169 480 c 0
EndSplineSet
EndChar
StartChar: c
Encoding: 99 99
Width: 313
Flags: MW
HStem: -7 19<193.5 217.5> 490 12<244 269.5>
Fore
347 502 m 1
 328 474 313 458 290 436 c 1
 289 448 293 456 289 466 c 0
 284 480 277 490 262 490 c 0
 191 490 150 356 138 285 c 0
 118 166 129 12 216 12 c 0
 237 12 249 14 270 25 c 1
 250 4 231 -7 204 -7 c 0
 183 -7 143 20 119 54 c 0
 81 107 68 198 84 289 c 0
 104 406 197 502 244 502 c 0
 284 502 307 502 347 502 c 1
EndSplineSet
EndChar
StartChar: d
Encoding: 100 100
Width: 361
Flags: MW
HStem: 0 18<182.5 189 182.5 210.5> 488 14<235 278> 730 20<375 440 440 440>
Fore
444 745 m 0
 444 743 442 741 440 741 c 0
 430 741 418 746 411 705 c 0
 408 691 303 56 301 44 c 0
 297 20 307 8 315 8 c 0
 318 8 319 7 319 4 c 0
 318 0 315 0 314 0 c 2
 314 0 208 0 170 0 c 0
 96 0 42 75 56 155 c 0
 83 315 156 502 271 502 c 0
 292 502 304 490 308 487 c 0
 311 484 318 472 320 480 c 0
 320 482 363 736 363 740 c 0
 365 750 370 750 375 750 c 2
 440 750 l 2
 441 749 445 749 444 745 c 0
249 54 m 0
 251 66 313 439 313 439 c 1
 317 465 289 488 267 488 c 0
 203 488 137 310 118 196 c 0
 95 61 165 18 200 18 c 0
 221 18 244 30 249 54 c 0
EndSplineSet
EndChar
StartChar: e
Encoding: 101 101
Width: 370
Flags: MW
HStem: -7 19 490 12<238 281>
Fore
256 490 m 0
 185 490 146 358 138 309 c 0
 138 304 146 294 154 296 c 0
 205 309 306 368 313 404 c 0
 321 447 306 490 256 490 c 0
372 418 m 0
 357 359 292 337 239 306 c 0
 199 282 130 273 128 230 c 0
 123 118 134 14 223 12 c 0
 267 11 316 38 336 55 c 1
 313 16 252 -7 212 -7 c 0
 78 -7 52 138 78 289 c 0
 98 406 191 502 238 502 c 0
 278 502 270 502 303 502 c 0
 334 502 385 468 372 418 c 0
EndSplineSet
EndChar
StartChar: f
Encoding: 102 102
Width: 180
Flags: MW
HStem: 502 237
Fore
66 -136 m 2
 66 -136 147 352 167 471 c 0
 168 477 169 483 179 483 c 0
 201 483 216 483 240 483 c 0
 277 483 302 489 338 516 c 0
 340 518 342 520 340 522 c 0
 331 530 324 535 314 545 c 0
 313 547 311 542 308 540 c 0
 281 514 245 502 221 502 c 0
 203 502 196 502 181 502 c 0
 173 502 174 509 175 514 c 0
 184 573 203 686 203 687 c 0
 208 714 237 739 261 739 c 0
 291 739 321 707 341 675 c 1
 364 702 380 716 389 750 c 1
 326 750 289 750 226 750 c 0
 182 750 155 721 149 684 c 0
 144 656 130 573 121 514 c 0
 120 509 119 502 110 502 c 0
 96 502 100 501 95 502 c 1
 74 483 l 1
 80 483 83 483 105 483 c 0
 115 483 114 477 113 471 c 0
 93 352 13 -128 12 -136 c 0
 8 -160 -23 -190 -47 -190 c 0
 -76 -190 -106 -158 -126 -126 c 1
 -149 -153 -165 -167 -174 -201 c 1
 -111 -201 -74 -201 -11 -201 c 0
 32 -201 60 -172 66 -136 c 2
EndSplineSet
EndChar
StartChar: g
Encoding: 103 103
Width: 370
Flags: MW
HStem: -163 28<120.5 164> 0 14<155 196.5> 484 18<260.5 276>
Fore
250 63 m 1
 250 63 312 436 314 448 c 0
 317 472 299 484 278 484 c 0
 243 484 159 441 136 306 c 0
 117 192 123 14 187 14 c 0
 209 14 246 37 250 63 c 1
228 -66 m 0
 232 -46 243 20 243 22 c 0
 244 30 233 18 229 15 c 0
 224 12 207 0 186 0 c 0
 71 0 61 187 88 347 c 0
 101 427 180 502 255 502 c 0
 297 502 376 489 366 422 c 0
 364 410 291 -17 289 -31 c 0
 275 -112 214 -163 140 -163 c 0
 83 -163 -20 -133 47 -18 c 1
 70 -28 76 -32 87 -52 c 1
 23 -105 99 -135 142 -135 c 0
 186 -135 220 -112 228 -66 c 0
EndSplineSet
EndChar
StartChar: h
Encoding: 104 104
Width: 361
Flags: MW
HStem: 0 20 488 14<215.5 256> 730 20
VStem: 10 104<4 5.5> 174 108
Fore
169 480 m 0
 167 472 179 484 183 487 c 0
 187 490 205 502 226 502 c 0
 341 502 345 303 320 155 c 0
 312 104 276 38 275 28 c 0
 273 19 284 16 282 8 c 0
 282 3 276 0 271 0 c 2
 178 0 l 2
 177 1 173 0 174 4 c 0
 174 7 176 8 178 8 c 0
 184 8 200 27 215 46 c 0
 225 58 266 136 276 196 c 0
 295 310 288 488 224 488 c 0
 202 488 165 465 161 439 c 1
 161 439 98 56 96 44 c 0
 92 20 102 8 110 8 c 0
 113 8 114 7 114 4 c 0
 113 0 110 0 109 0 c 2
 13 0 l 2
 12 1 9 0 10 4 c 0
 10 7 11 8 14 8 c 0
 23 8 38 20 42 44 c 0
 44 56 149 691 151 705 c 0
 154 724 129 728 123 710 c 0
 121 704 118 692 118 692 c 1
 104 692 l 1
 107 703 106 702 110 713 c 0
 120 742 152 754 180 749 c 0
 209 744 205 703 203 693 c 0
 202 689 169 482 169 480 c 0
EndSplineSet
EndChar
StartChar: i
Encoding: 105 105
Width: 157
Flags: MW
HStem: 591 78<165 170>
Fore
140 630 m 0
 142 649 156 669 174 669 c 0
 192 669 198 649 195 630 c 0
 192 611 179 591 161 591 c 0
 142 591 137 611 140 630 c 0
121 26 m 0
 123 32 129 50 129 50 c 1
 143 50 l 1
 140 39 138 34 134 23 c 0
 124 -6 92 -18 64 -13 c 0
 35 -8 38 20 42 44 c 0
 44 56 83 293 111 457 c 0
 114 476 89 481 83 463 c 0
 81 457 75 439 75 439 c 1
 61 439 l 1
 64 450 66 455 70 466 c 0
 80 495 112 507 140 502 c 0
 169 497 165 456 163 446 c 0
 162 442 123 203 96 44 c 0
 91 13 115 8 121 26 c 0
EndSplineSet
EndChar
StartChar: j
Encoding: 106 106
Width: 157
Flags: MW
HStem: 591 78<165 170>
Fore
140 630 m 0
 142 649 156 669 174 669 c 0
 192 669 198 649 195 630 c 0
 192 611 179 591 161 591 c 0
 142 591 137 611 140 630 c 0
98 65 m 0
 88 7 44 -50 38 -58 c 0
 33 -64 -13 -117 -72 -138 c 0
 -75 -139 -76 -139 -79 -139 c 0
 -81 -139 -84 -137 -84 -134 c 0
 -83 -131 -81 -130 -80 -129 c 0
 -44 -113 -19 -91 7 -54 c 0
 23 -32 37 24 43 57 c 1
 43 57 108 446 110 458 c 0
 114 482 89 481 83 463 c 0
 81 457 75 439 75 439 c 1
 61 439 l 1
 64 450 66 455 70 466 c 0
 80 495 112 507 140 502 c 0
 169 497 165 456 163 446 c 0
 150 367 101 79 98 65 c 0
EndSplineSet
EndChar
StartChar: k
Encoding: 107 107
Width: 375
Flags: MW
HStem: 0 20 491 11<252 279> 730 20
VStem: 10 104<4 5.5>
Fore
160 249 m 0
 215 323 300 384 309 437 c 0
 313 463 291 491 267 491 c 0
 237 491 190 453 159 421 c 1
 146 348 131 256 121 191 c 1
 130 207 146 231 160 249 c 0
173 502 m 1
 218 502 241 502 304 502 c 0
 348 502 365 471 359 434 c 0
 346 357 293 332 230 276 c 0
 225 272 216 265 221 254 c 0
 230 236 236 203 244 178 c 0
 255 146 275 68 323 60 c 0
 328 60 334 62 333 57 c 0
 327 34 326 25 322 5 c 0
 321 1 318 0 313 1 c 0
 258 19 256 86 236 135 c 0
 223 168 217 195 202 226 c 0
 196 238 186 235 180 228 c 0
 141 183 122 148 105 101 c 1
 96 44 l 2
 92 20 102 8 110 8 c 0
 113 8 114 7 114 4 c 0
 113 0 110 0 109 0 c 2
 13 0 l 2
 12 1 9 0 10 4 c 0
 10 7 11 8 14 8 c 0
 23 8 38 20 42 44 c 0
 44 56 149 691 151 705 c 0
 154 724 129 728 123 710 c 0
 121 704 118 692 118 692 c 1
 104 692 l 1
 107 703 106 702 110 713 c 0
 120 742 152 754 180 749 c 0
 209 744 205 703 203 693 c 0
 202 691 193 622 173 502 c 1
EndSplineSet
EndChar
StartChar: l
Encoding: 108 108
Width: 157
Flags: MW
HStem: 730 20
Fore
121 26 m 0
 123 32 129 50 129 50 c 1
 143 50 l 1
 140 39 138 34 134 23 c 0
 124 -6 92 -18 64 -13 c 0
 35 -8 38 20 42 44 c 0
 44 56 123 540 151 704 c 0
 154 723 129 728 123 710 c 0
 121 704 115 686 115 686 c 1
 101 686 l 1
 104 697 106 702 110 713 c 0
 120 742 152 754 180 749 c 0
 209 744 205 703 203 693 c 0
 202 689 123 203 96 44 c 0
 91 13 115 8 121 26 c 0
EndSplineSet
EndChar
StartChar: m
Encoding: 109 109
Width: 546
Flags: MW
HStem: 0 20 488 14<215.5 242 382.5 437>
VStem: 10 104<4 5.5> 174 108 356 109
Fore
226 502 m 0
 258 502 277 489 297 463 c 0
 301 458 309 463 313 466 c 0
 317 469 363 502 398 502 c 0
 529 502 528 303 503 155 c 0
 495 104 459 38 457 28 c 0
 455 19 466 16 465 8 c 0
 465 3 459 0 453 0 c 2
 360 0 l 2
 359 1 355 0 356 4 c 0
 356 7 358 8 360 8 c 0
 367 8 381 28 397 46 c 0
 407 58 449 136 459 196 c 0
 479 310 478 488 396 488 c 0
 369 488 310 446 319 410 c 0
 339 326 334 239 320 155 c 0
 312 104 276 38 275 28 c 0
 273 19 284 16 282 8 c 0
 282 3 276 0 271 0 c 2
 178 0 l 2
 177 1 173 0 174 4 c 0
 174 7 176 8 178 8 c 0
 184 8 200 27 215 46 c 0
 225 58 266 136 276 196 c 0
 295 310 288 488 224 488 c 0
 202 488 165 465 161 439 c 1
 161 439 98 56 96 44 c 0
 92 20 102 8 110 8 c 0
 113 8 114 7 114 4 c 0
 113 0 110 0 109 0 c 2
 13 0 l 2
 12 1 9 0 10 4 c 0
 10 7 11 8 14 8 c 0
 23 8 38 20 42 44 c 0
 44 56 109 443 111 457 c 0
 116 486 89 481 83 463 c 0
 81 457 79 450 79 450 c 1
 65 450 l 1
 68 461 66 455 70 466 c 0
 80 495 112 507 140 502 c 0
 155 499 160 487 162 480 c 1
 171 485 176 489 181 491 c 0
 187 494 205 502 226 502 c 0
EndSplineSet
EndChar
StartChar: n
Encoding: 110 110
Width: 356
Flags: MW
HStem: 0 20 488 14<215.5 256>
VStem: 10 104<4 5.5> 174 108
Fore
181 491 m 0
 186 493 205 502 226 502 c 0
 341 502 345 303 320 155 c 0
 312 104 276 38 275 28 c 0
 273 19 284 16 282 8 c 0
 282 3 276 0 271 0 c 2
 178 0 l 2
 177 1 173 0 174 4 c 0
 174 7 176 8 178 8 c 0
 184 8 200 27 215 46 c 0
 225 58 266 136 276 196 c 0
 295 310 288 488 224 488 c 0
 202 488 165 465 161 439 c 1
 161 439 98 56 96 44 c 0
 92 20 102 8 110 8 c 0
 113 8 114 7 114 4 c 0
 113 0 110 0 109 0 c 2
 13 0 l 2
 12 1 9 0 10 4 c 0
 10 7 11 8 14 8 c 0
 23 8 38 20 42 44 c 0
 44 56 108 444 111 457 c 0
 116 478 89 481 83 463 c 0
 81 457 79 450 79 450 c 1
 65 450 l 1
 68 461 66 455 70 466 c 0
 80 495 112 507 140 502 c 0
 155 499 160 487 162 480 c 1
 171 485 176 489 181 491 c 0
EndSplineSet
EndChar
StartChar: o
Encoding: 111 111
Width: 361
Flags: MW
HStem: 494 20
Fore
125 304 m 0
 105 189 109 59 187 31 c 0
 237 13 281 139 294 218 c 0
 312 326 294 431 231 458 c 0
 169 484 137 372 125 304 c 0
70 259 m 0
 87 365 134 453 222 505 c 0
 246 519 267 516 287 502 c 0
 342 465 358 380 343 288 c 0
 333 230 309 61 190 0 c 0
 167 -12 152 -18 134 -5 c 0
 57 50 51 147 70 259 c 0
EndSplineSet
EndChar
StartChar: p
Encoding: 112 112
Width: 356
Flags: MW
HStem: 0 14<133.5 176> 485 20
VStem: 9 90
Fore
294 306 m 0
 317 441 246 484 211 484 c 0
 190 484 167 472 163 448 c 0
 161 436 99 63 99 63 c 1
 95 37 123 14 144 14 c 0
 208 14 275 192 294 306 c 0
236 502 m 0
 310 496 368 427 355 347 c 0
 328 187 256 0 142 0 c 0
 121 0 107 12 104 15 c 0
 101 18 93 30 92 22 c 0
 92 20 57 -186 57 -190 c 0
 55 -200 50 -200 45 -200 c 2
 -20 -200 l 2
 -21 -199 -25 -199 -24 -195 c 0
 -24 -193 -22 -191 -20 -191 c 0
 -10 -191 1 -196 9 -155 c 1
 10 -141 110 445 112 459 c 0
 116 487 147 501 171 503 c 0
 205 506 198 505 236 502 c 0
EndSplineSet
EndChar
StartChar: q
Encoding: 113 113
Width: 361
Flags: MW
HStem: 0 14<155 196.5> 480 22<259.5 271 271 279.5>
VStem: 310 66
Fore
310 409 m 0
 313 433 296 480 277 480 c 0
 242 480 159 441 136 306 c 0
 117 192 123 14 187 14 c 0
 209 14 246 37 250 63 c 1
 250 63 308 397 310 409 c 0
243 22 m 0
 244 30 233 18 229 15 c 0
 224 12 207 0 186 0 c 0
 71 0 61 187 88 347 c 0
 101 427 180 502 255 502 c 0
 293 502 265 503 271 502 c 0
 288 502 305 492 319 479 c 1
 376 493 l 1
 375 481 272 -134 269 -148 c 0
 262 -189 288 -183 294 -165 c 0
 296 -159 302 -141 302 -141 c 1
 316 -141 l 1
 313 -152 311 -157 307 -168 c 0
 297 -197 265 -209 237 -204 c 0
 208 -199 211 -171 215 -147 c 0
 216 -146 243 20 243 22 c 0
EndSplineSet
EndChar
StartChar: r
Encoding: 114 114
Width: 351
Flags: MW
HStem: 0 20 474 28<268 307>
VStem: 52 104<4 5.5>
Fore
204 480 m 1
 219 487 248 502 288 502 c 0
 345 502 448 472 381 357 c 1
 357 367 351 371 340 391 c 1
 404 444 329 474 285 474 c 0
 241 474 208 451 200 406 c 0
 197 386 138 44 138 44 c 2
 134 20 144 8 152 8 c 0
 155 8 156 7 156 4 c 0
 155 0 152 0 151 0 c 2
 55 0 l 2
 54 1 51 0 52 4 c 0
 52 7 53 8 56 8 c 0
 65 8 80 20 84 44 c 0
 86 56 150 444 153 457 c 0
 158 478 131 481 125 463 c 0
 123 457 121 450 121 450 c 1
 107 450 l 1
 110 461 108 455 112 466 c 0
 122 495 154 507 182 502 c 0
 197 499 202 487 204 480 c 1
EndSplineSet
EndChar
StartChar: s
Encoding: 115 115
Width: 323
Flags: MW
HStem: -9 37<144 149.5> 301 58<198 208.5> 476 41
Fore
123 -9 m 0
 92 -9 41 20 23 62 c 0
 21 67 24 70 28 72 c 0
 49 79 62 89 77 98 c 0
 81 100 83 100 84 94 c 0
 91 52 130 28 158 28 c 0
 197 28 252 77 265 157 c 0
 278 237 248 301 169 301 c 0
 157 301 151 299 138 292 c 0
 134 290 130 290 129 293 c 0
 112 320 102 355 108 389 c 0
 119 459 201 517 251 517 c 0
 281 517 298 507 319 488 c 0
 323 484 320 480 316 477 c 0
 298 463 289 450 276 436 c 0
 274 433 272 433 269 437 c 0
 254 462 243 475 216 476 c 0
 171 479 133 432 124 385 c 0
 121 367 126 340 128 325 c 1
 130 321 136 322 138 325 c 1
 158 344 183 359 213 359 c 0
 288 359 313 285 300 210 c 0
 272 39 176 -9 123 -9 c 0
EndSplineSet
EndChar
StartChar: t
Encoding: 116 116
Width: 237
Flags: MW
HStem: 0 20
Fore
123 0 m 0
 160 0 196 22 216 60 c 1
 201 82 l 1
 195 51 169 30 140 30 c 0
 105 30 98 58 102 82 c 2
 102 82 147 352 167 471 c 0
 168 477 169 483 179 483 c 0
 201 483 216 483 240 483 c 0
 277 483 302 489 338 516 c 0
 340 518 342 520 340 522 c 0
 331 530 324 535 314 545 c 0
 313 547 311 542 308 540 c 0
 281 514 245 502 221 502 c 0
 203 502 196 502 181 502 c 0
 173 502 174 509 175 514 c 0
 184 573 184 574 188 595 c 1
 175 597 128 568 126 552 c 0
 122 526 130 573 121 514 c 0
 120 509 119 502 110 502 c 0
 96 502 100 501 95 502 c 1
 74 483 l 1
 80 483 83 483 105 483 c 0
 115 483 114 477 113 471 c 0
 93 352 72 231 47 80 c 0
 38 29 80 0 123 0 c 0
EndSplineSet
EndChar
StartChar: u
Encoding: 117 117
Width: 351
Flags: MW
HStem: 0 14<139 179.5> 482 20<124 217 217 217 286 348 348 356>
VStem: 113 108
Fore
354 461 m 0
 352 449 287 58 284 45 c 0
 279 24 306 21 312 39 c 0
 314 45 316 52 316 52 c 1
 330 52 l 1
 327 41 329 47 325 36 c 0
 315 7 283 -5 255 0 c 0
 240 3 235 15 233 22 c 1
 224 17 219 13 214 11 c 0
 209 9 190 0 169 0 c 0
 54 0 50 199 75 347 c 0
 83 398 119 464 120 474 c 0
 122 483 111 486 113 494 c 0
 113 499 119 502 124 502 c 2
 217 502 l 2
 218 501 222 502 221 498 c 0
 221 495 219 494 217 494 c 0
 211 494 195 475 180 456 c 0
 170 444 129 366 119 306 c 0
 100 192 107 14 171 14 c 0
 193 14 230 37 234 63 c 1
 234 63 297 446 299 458 c 0
 303 482 293 494 285 494 c 0
 282 494 281 495 281 498 c 0
 282 502 285 502 286 502 c 2
 348 502 l 2
 364 502 358 485 354 461 c 0
EndSplineSet
EndChar
StartChar: v
Encoding: 118 118
Width: 361
Flags: MW
HStem: -1 20 488 14<216 221>
Fore
139 502 m 0
 171 502 192 502 222 502 c 0
 227 502 233 502 232 498 c 0
 231 493 224 488 218 488 c 0
 214 488 211 489 206 489 c 0
 197 489 192 478 188 469 c 0
 171 439 170 417 164 383 c 0
 147 281 180 212 216 109 c 0
 218 102 221 73 236 113 c 0
 286 250 319 371 322 389 c 0
 329 428 334 464 308 484 c 0
 302 489 287 485 288 494 c 0
 289 500 297 502 303 502 c 0
 342 502 357 502 396 502 c 0
 400 502 406 503 405 499 c 1
 405 499 400 495 398 492 c 0
 379 473 381 476 370 454 c 0
 347 408 339 362 322 315 c 0
 277 186 269 153 218 11 c 1
 213 -8 209 -3 206 11 c 0
 189 88 151 151 127 240 c 0
 107 317 93 358 109 440 c 0
 113 461 120 482 123 494 c 0
 124 501 133 502 139 502 c 0
EndSplineSet
EndChar
StartChar: w
Encoding: 119 119
Width: 475
Flags: MW
HStem: -8 20 488 14<204.5 210>
Fore
127 502 m 0
 160 502 180 502 211 502 c 0
 216 502 221 502 220 498 c 0
 219 493 213 488 207 488 c 0
 202 488 199 489 195 489 c 0
 185 489 180 478 177 469 c 1
 160 439 157 417 151 383 c 0
 134 281 157 190 179 74 c 0
 180 66 185 38 199 78 c 0
 242 198 275 291 305 387 c 0
 311 407 316 404 318 386 c 0
 330 299 327 250 356 146 c 0
 358 140 365 142 371 159 c 0
 395 224 403 253 425 314 c 0
 435 343 437 359 442 389 c 0
 448 428 446 460 422 482 c 1
 416 486 405 485 406 494 c 0
 407 500 415 502 420 502 c 0
 459 502 483 502 522 502 c 0
 525 502 532 503 531 499 c 1
 531 499 526 495 523 492 c 0
 505 474 499 460 486 437 c 0
 461 391 458 362 440 315 c 0
 395 196 368 117 329 11 c 0
 324 -3 309 -18 310 1 c 0
 313 42 314 66 308 106 c 0
 300 159 287 191 281 237 c 0
 279 248 276 251 271 237 c 0
 242 157 216 103 188 11 c 0
 182 -8 179 -4 176 11 c 0
 161 88 132 147 112 237 c 0
 95 315 82 358 98 440 c 0
 102 461 108 482 111 494 c 0
 113 501 122 502 127 502 c 0
EndSplineSet
EndChar
StartChar: x
Encoding: 120 120
Width: 347
Flags: MW
HStem: -1 20 494 12<89.5 94>
VStem: 189 120
Fore
280 36 m 1
 282 26 288 21 294 15 c 0
 298 10 310 10 309 5 c 1
 309 5 305 0 302 0 c 2
 194 0 l 2
 192 1 189 3 189 5 c 0
 190 9 211 9 216 18 c 0
 220 25 221 27 222 36 c 0
 224 45 225 42 220 64 c 2
 187 206 l 1
 185 216 183 246 169 224 c 0
 135 170 127 168 114 94 c 0
 106 45 125 17 128 -1 c 1
 105 -1 84 -1 61 -1 c 0
 57 -1 54 3 54 10 c 0
 57 46 63 91 82 127 c 0
 117 192 130 205 168 243 c 0
 174 249 177 255 176 261 c 1
 130 463 l 2
 128 471 117 484 111 488 c 0
 104 493 98 494 91 494 c 0
 86 494 82 497 85 502 c 1
 85 505 88 506 91 506 c 0
 97 506 103 502 109 502 c 0
 139 502 155 502 184 502 c 0
 188 502 193 502 192 498 c 0
 191 492 186 486 183 478 c 1
 181 466 183 452 184 448 c 2
 210 336 l 1
 214 320 218 297 232 316 c 0
 268 368 277 381 289 435 c 0
 297 470 273 484 271 502 c 1
 294 502 315 502 338 502 c 0
 346 502 354 497 348 460 c 0
 341 417 270 340 230 298 c 0
 225 293 221 286 223 280 c 1
 280 36 l 1
EndSplineSet
EndChar
StartChar: y
Encoding: 121 121
Width: 332
Flags: MW
HStem: -153 28<105.5 149> 482 20<140 233 233 233 286 351 351 353.5>
Fore
213 -56 m 0
 215 -43 214 -50 216 -39 c 0
 219 -17 199 -7 180 15 c 0
 108 100 64 199 89 347 c 0
 97 398 134 464 136 474 c 0
 137 483 126 486 127 494 c 0
 128 499 134 502 140 502 c 2
 233 502 l 1
 233 501 237 502 237 498 c 0
 236 495 234 494 232 494 c 0
 225 494 212 474 195 456 c 0
 185 444 144 366 134 306 c 0
 115 192 145 111 204 17 c 0
 210 8 224 12 230 45 c 1
 230 45 297 446 299 458 c 0
 303 482 293 494 284 494 c 0
 281 494 280 495 281 498 c 0
 282 502 284 501 286 502 c 2
 351 502 l 2
 356 502 361 502 359 492 c 0
 346 413 275 -7 273 -21 c 0
 259 -102 199 -153 124 -153 c 0
 67 -153 -36 -123 31 -8 c 1
 55 -18 61 -22 72 -42 c 1
 8 -95 84 -125 127 -125 c 0
 171 -125 205 -102 213 -56 c 0
EndSplineSet
EndChar
StartChar: z
Encoding: 122 122
Width: 372
Flags: MW
HStem: 0 16<126.5 159.5> 489 20<408 414>
Fore
48 0 m 0
 36 0 35 3 41 13 c 2
 336 478 l 2
 339 482 344 491 333 490 c 0
 270 482 215 468 176 438 c 0
 173 435 169 436 173 442 c 0
 189 469 192 476 202 498 c 0
 205 505 209 505 213 505 c 0
 286 506 331 507 408 509 c 0
 420 509 415 503 412 499 c 2
 106 27 l 2
 102 21 106 18 110 18 c 0
 116 18 123 16 130 16 c 0
 189 16 249 41 301 74 c 0
 304 76 310 78 310 74 c 0
 312 48 313 35 326 11 c 0
 328 7 325 0 316 0 c 0
 217 0 134 0 48 0 c 0
EndSplineSet
EndChar
StartChar: braceleft
Encoding: 123 123
Width: 293
Flags: MW
HStem: -171 12<195 198> 733 12<344.5 351>
Fore
178 287 m 1
 203 247 202 215 194 168 c 0
 180 81 167 58 151 8 c 0
 149 1 136 -41 134 -55 c 0
 125 -104 126 -153 170 -157 c 0
 181 -159 190 -159 200 -159 c 0
 203 -159 209 -160 208 -165 c 0
 208 -167 206 -171 198 -171 c 0
 153 -171 73 -171 73 -171 c 2
 70 -170 66 -169 66 -167 c 0
 66 -162 81 -162 83 -152 c 0
 84 -145 66 -133 74 -84 c 0
 88 -2 155 47 168 121 c 0
 176 169 156 236 104 287 c 1
 173 338 216 405 224 453 c 0
 237 527 185 576 199 658 c 0
 207 707 229 719 230 726 c 0
 232 736 218 736 218 741 c 0
 218 743 223 744 226 745 c 2
 226 745 306 745 351 745 c 0
 359 745 360 742 359 740 c 0
 359 735 352 733 350 733 c 0
 339 733 331 732 319 731 c 0
 274 726 258 678 249 629 c 0
 247 615 245 573 245 566 c 0
 243 517 249 493 234 406 c 0
 226 359 217 327 178 287 c 1
EndSplineSet
EndChar
StartChar: bar
Encoding: 124 124
Width: 156
Flags: W
Fore
156 716 m 0
 158 730 178 732 175 714 c 0
 172 699 65 58 62 40 c 0
 60 28 40 20 43 42 c 0
 46 59 113 464 156 716 c 0
EndSplineSet
EndChar
StartChar: braceright
Encoding: 125 125
Width: 293
Flags: MW
HStem: -171 12<48.5 55.5 49 55.5> 733 12<202 204.5>
Fore
296 287 m 1
 228 236 184 169 176 121 c 0
 163 47 215 -2 201 -84 c 0
 193 -133 171 -145 170 -152 c 0
 168 -162 182 -162 182 -167 c 0
 181 -169 177 -170 174 -171 c 2
 174 -171 94 -171 49 -171 c 0
 41 -171 41 -167 41 -165 c 0
 42 -160 47 -159 50 -159 c 0
 61 -159 69 -158 81 -157 c 0
 126 -152 142 -104 151 -55 c 0
 153 -41 155 1 155 8 c 0
 156 58 152 81 167 168 c 0
 175 215 184 247 223 287 c 1
 198 327 199 359 207 406 c 0
 221 493 234 517 249 566 c 0
 251 573 263 615 266 629 c 0
 275 678 274 726 230 731 c 0
 218 732 210 733 199 733 c 0
 197 733 192 735 192 740 c 0
 193 742 194 745 202 745 c 0
 247 745 327 745 327 745 c 2
 330 744 334 743 334 741 c 0
 333 736 319 736 317 726 c 0
 316 719 334 707 326 658 c 0
 313 576 245 527 232 453 c 0
 224 405 245 338 296 287 c 1
EndSplineSet
EndChar
StartChar: asciitilde
Encoding: 126 126
Width: 413
Flags: MW
HStem: 324 49<203.5 229>
Fore
83 348 m 0
 102 372 118 402 142 402 c 0
 174 402 187 373 219 373 c 0
 239 373 259 384 278 395 c 0
 294 404 289 390 284 383 c 0
 266 358 249 324 220 324 c 0
 187 324 178 353 144 353 c 0
 124 353 112 347 90 334 c 0
 66 320 72 333 83 348 c 0
EndSplineSet
EndChar
StartChar: Aring
Encoding: 129 197
Width: 442
Flags: MW
HStem: -3 20
Fore
337 893 m 0
 365 915 407 911 429 883 c 0
 452 855 446 815 419 793 c 0
 391 770 350 773 327 802 c 0
 305 828 309 870 337 893 c 0
352 870 m 0
 336 855 335 831 350 817 c 1
 365 800 389 799 404 814 c 0
 420 829 422 852 407 868 c 0
 392 884 368 885 352 870 c 0
192 271 m 0
 212 393 146 473 168 607 c 0
 182 689 211 706 214 719 c 0
 217 736 198 735 199 744 c 0
 199 748 206 749 209 750 c 1
 209 750 310 749 373 749 c 0
 429 749 456 750 518 750 c 1
 528 746 546 752 543 740 c 0
 542 729 508 729 503 700 c 0
 460 444 437 299 394 44 c 0
 388 5 417 13 416 3 c 0
 415 0 412 -1 409 -3 c 1
 282 -3 l 1
 281 -1 278 -1 279 3 c 0
 281 17 313 2 321 48 c 0
 348 203 363 293 389 448 c 0
 393 474 390 475 374 480 c 0
 355 486 340 488 317 488 c 0
 286 488 263 485 235 472 c 0
 227 468 226 467 224 454 c 0
 211 373 225 334 201 193 c 0
 188 114 175 63 120 -3 c 1
 22 -3 l 1
 117 81 178 190 192 271 c 0
321 509 m 0
 347 509 361 504 386 498 c 0
 398 495 400 513 394 515 c 0
 370 523 350 528 331 528 c 0
 308 528 271 523 237 508 c 0
 225 503 226 485 242 491 c 0
 275 504 291 509 321 509 c 0
234 559 m 0
 231 537 224 519 244 527 c 0
 279 541 302 546 337 546 c 0
 358 546 370 543 389 537 c 0
 402 533 406 543 407 551 c 0
 413 591 421 638 430 693 c 0
 435 720 430 729 414 729 c 0
 400 729 389 731 373 731 c 0
 358 731 349 730 332 728 c 0
 272 721 247 638 234 559 c 0
EndSplineSet
EndChar
StartChar: Eacute
Encoding: 131 201
Width: 447
Flags: W
Fore
165 36 m 0
 181 28 193 27 212 27 c 0
 278 27 356 77 389 123 c 0
 391 126 396 135 402 129 c 0
 418 112 430 102 441 89 c 0
 445 84 443 75 437 70 c 0
 386 23 326 -15 275 -15 c 0
 212 -15 169 14 113 47 c 0
 99 56 89 64 70 64 c 0
 63 64 58 64 51 62 c 0
 43 60 38 66 50 73 c 0
 65 81 84 97 90 132 c 2
 90 132 179 665 182 683 c 0
 188 719 173 739 160 739 c 0
 156 739 155 741 155 745 c 0
 156 751 159 750 163 752 c 0
 169 755 174 751 180 751 c 0
 357 751 326 756 411 756 c 0
 457 756 500 735 509 701 c 0
 511 693 508 692 503 689 c 0
 481 673 467 663 443 648 c 0
 440 646 434 643 433 652 c 0
 429 679 427 696 408 713 c 0
 390 728 373 730 350 731 c 0
 330 732 303 732 287 731 c 0
 275 730 271 727 269 718 c 0
 263 680 249 602 234 513 c 0
 233 506 231 495 244 495 c 0
 265 495 277 495 304 495 c 0
 339 495 393 514 433 552 c 0
 437 556 441 563 445 560 c 1
 458 545 465 540 478 528 c 0
 481 526 479 522 476 519 c 0
 421 479 389 474 334 474 c 0
 298 474 277 474 242 474 c 0
 228 474 226 466 225 457 c 0
 195 279 183 212 160 67 c 0
 158 55 155 41 165 36 c 0
376 886 m 1
 315 780 l 1
 283 780 l 1
 283 780 297 816 303 839 c 0
 307 857 312 886 312 886 c 1
 376 886 l 1
EndSplineSet
EndChar
StartChar: acircumflex
Encoding: 137 226
Width: 354
Flags: MW
HStem: 0 20
Fore
253 86 m 0
 255 98 309 407 309 407 c 2
 318 459 289 488 267 488 c 0
 203 488 137 310 118 196 c 0
 95 61 165 18 200 18 c 0
 221 18 244 40 253 86 c 0
303 58 m 0
 298 27 322 22 328 40 c 0
 330 46 336 64 336 64 c 1
 350 64 l 1
 347 53 345 48 341 37 c 0
 331 8 299 -4 271 1 c 0
 262 3 256 7 252 12 c 1
 229 3 201 0 170 0 c 0
 96 0 42 75 56 155 c 0
 83 315 156 502 271 502 c 0
 288 502 305 492 319 479 c 1
 376 493 l 1
 358 382 312 117 305 76 c 0
 305 72 304 66 303 58 c 0
152 545 m 1
 195 545 l 1
 286 611 l 1
 337 545 l 1
 385 545 l 1
 347 670 l 1
 256 670 l 1
 152 545 l 1
EndSplineSet
EndChar
StartChar: aring
Encoding: 140 229
Width: 354
Flags: MW
HStem: 0 20
Fore
223 695 m 0
 260 725 316 719 346 682 c 0
 376 645 370 590 333 560 c 0
 296 530 240 535 210 572 c 0
 180 609 186 665 223 695 c 0
243 665 m 0
 222 645 220 613 240 592 c 0
 260 571 292 570 313 590 c 0
 334 610 336 641 316 662 c 0
 296 683 264 685 243 665 c 0
253 86 m 0
 255 98 309 407 309 407 c 2
 318 459 289 488 267 488 c 0
 203 488 137 310 118 196 c 0
 95 61 165 18 200 18 c 0
 221 18 244 40 253 86 c 0
303 58 m 0
 298 27 322 22 328 40 c 0
 330 46 336 64 336 64 c 1
 350 64 l 1
 347 53 345 48 341 37 c 0
 331 8 299 -4 271 1 c 0
 262 3 256 7 252 12 c 1
 229 3 201 0 170 0 c 0
 96 0 42 75 56 155 c 0
 83 315 156 502 271 502 c 0
 288 502 305 492 319 479 c 1
 376 493 l 1
 358 382 312 117 305 76 c 0
 305 72 304 66 303 58 c 0
EndSplineSet
EndChar
StartChar: ccedilla
Encoding: 141 231
Width: 316
Flags: MW
HStem: 482 20<244 347 327 347>
Fore
222 -50 m 1
 167 -175 l 1
 132 -175 l 1
 157 -50 l 1
 222 -50 l 1
347 502 m 1
 328 474 313 458 290 436 c 1
 289 448 293 456 289 466 c 0
 284 480 277 490 262 490 c 0
 191 490 150 356 138 285 c 0
 118 166 129 12 216 12 c 0
 237 12 249 14 270 25 c 1
 250 4 231 -7 204 -7 c 0
 183 -7 143 20 119 54 c 0
 81 107 68 198 84 289 c 0
 104 406 197 502 244 502 c 0
 284 502 307 502 347 502 c 1
EndSplineSet
EndChar
StartChar: ecircumflex
Encoding: 144 234
Width: 369
Flags: MW
HStem: -7 20
Fore
256 490 m 0
 185 490 146 358 138 309 c 0
 138 304 146 294 154 296 c 0
 205 309 306 368 313 404 c 0
 321 447 306 490 256 490 c 0
372 418 m 0
 357 359 292 337 239 306 c 0
 199 282 130 273 128 230 c 0
 123 118 134 14 223 12 c 0
 267 11 316 38 336 55 c 1
 313 16 252 -7 212 -7 c 0
 78 -7 52 138 78 289 c 0
 98 406 191 502 238 502 c 0
 278 502 270 502 303 502 c 0
 334 502 385 468 372 418 c 0
152 530 m 1
 195 530 l 1
 286 596 l 1
 337 530 l 1
 385 530 l 1
 347 655 l 1
 256 655 l 1
 152 530 l 1
EndSplineSet
EndChar
StartChar: icircumflex
Encoding: 148 238
Width: 159
Flags: MW
HStem: 0 20
Fore
121 26 m 0
 123 32 129 50 129 50 c 1
 143 50 l 1
 140 39 138 34 134 23 c 0
 124 -6 92 -18 64 -13 c 0
 35 -8 38 20 42 44 c 0
 44 56 83 293 111 457 c 0
 114 476 89 481 83 463 c 0
 81 457 75 439 75 439 c 1
 61 439 l 1
 64 450 66 455 70 466 c 0
 80 495 112 507 140 502 c 0
 169 497 165 456 163 446 c 0
 162 442 123 203 96 44 c 0
 91 13 115 8 121 26 c 0
27 545 m 1
 70 545 l 1
 161 611 l 1
 212 545 l 1
 260 545 l 1
 222 670 l 1
 131 670 l 1
 27 545 l 1
EndSplineSet
EndChar
StartChar: ocircumflex
Encoding: 153 244
Width: 358
Flags: W
Fore
125 304 m 0
 105 189 109 59 187 31 c 0
 237 13 281 139 294 218 c 0
 312 326 294 431 231 458 c 0
 169 484 137 372 125 304 c 0
70 259 m 0
 87 365 134 453 222 505 c 0
 246 519 267 516 287 502 c 0
 342 465 358 380 343 288 c 0
 333 230 309 61 190 0 c 0
 167 -12 152 -18 134 -5 c 0
 57 50 51 147 70 259 c 0
132 540 m 1
 175 540 l 1
 266 606 l 1
 317 540 l 1
 365 540 l 1
 327 665 l 1
 236 665 l 1
 132 540 l 1
EndSplineSet
EndChar
StartChar: ucircumflex
Encoding: 158 251
Width: 354
Flags: MW
HStem: 0 20
Fore
354 461 m 0
 352 449 287 58 284 45 c 0
 279 24 306 21 312 39 c 0
 314 45 316 52 316 52 c 1
 330 52 l 1
 327 41 329 47 325 36 c 0
 315 7 283 -5 255 0 c 0
 240 3 235 15 233 22 c 1
 224 17 219 13 214 11 c 0
 209 9 190 0 169 0 c 0
 54 0 50 199 75 347 c 0
 83 398 119 464 120 474 c 0
 122 483 111 486 113 494 c 0
 113 499 119 502 124 502 c 2
 217 502 l 2
 218 501 222 502 221 498 c 0
 221 495 219 494 217 494 c 0
 211 494 195 475 180 456 c 0
 170 444 129 366 119 306 c 0
 100 192 107 14 171 14 c 0
 193 14 230 37 234 63 c 1
 234 63 297 446 299 458 c 0
 303 482 293 494 285 494 c 0
 282 494 281 495 281 498 c 0
 282 502 285 502 286 502 c 2
 348 502 l 2
 364 502 358 485 354 461 c 0
132 545 m 1
 175 545 l 1
 266 611 l 1
 317 545 l 1
 365 545 l 1
 327 670 l 1
 236 670 l 1
 132 545 l 1
EndSplineSet
EndChar
StartChar: dagger
Encoding: 160 8224
Width: 337
Flags: MW
HStem: 730 20<259 309 259 259>
Fore
280 617 m 1
 306 617 377 610 377 610 c 1
 386 662 l 1
 386 662 312 655 286 655 c 1
 291 683 299 718 309 750 c 1
 259 750 l 1
 259 718 255 683 250 655 c 1
 226 656 154 662 154 662 c 1
 145 610 l 1
 145 610 218 615 244 617 c 1
 238 590 200 462 186 372 c 0
 171 282 159 106 142 -5 c 0
 141 -12 147 -20 155 -20 c 0
 162 -20 173 -12 174 -5 c 0
 194 108 241 282 256 372 c 0
 271 462 276 590 280 617 c 1
EndSplineSet
EndChar
StartChar: degree
Encoding: 161 176
Width: 326
Flags: MW
HStem: 744 20
Fore
123 745 m 0
 163 775 215 769 237 732 c 0
 259 695 245 640 205 610 c 0
 164 580 112 585 90 622 c 0
 67 659 83 715 123 745 c 0
137 715 m 0
 114 695 106 663 122 642 c 0
 137 621 167 620 191 640 c 0
 214 660 221 691 206 712 c 0
 190 733 161 735 137 715 c 0
EndSplineSet
EndChar
StartChar: cent
Encoding: 162 162
Width: 405
Flags: W
Fore
338 726 m 0
 341 744 364 743 361 726 c 0
 358 710 358 696 356 676 c 1
 377 672 389 669 407 660 c 0
 430 649 440 637 462 622 c 1
 453 605 446 594 433 580 c 0
 418 562 405 556 388 542 c 1
 391 549 395 553 394 560 c 0
 389 596 385 623 357 638 c 0
 353 640 349 631 348 626 c 0
 323 474 271 164 271 164 c 1
 298 144 315 133 350 124 c 0
 361 121 370 122 381 120 c 1
 362 111 350 108 330 106 c 0
 302 104 263 118 263 118 c 1
 259 101 258 86 256 74 c 0
 251 39 223 41 230 78 c 0
 234 100 237 112 239 134 c 1
 179 174 105 297 132 446 c 0
 151 550 218 640 312 670 c 0
 324 674 331 679 332 694 c 0
 334 705 337 718 338 726 c 0
322 628 m 0
 323 635 319 644 312 644 c 0
 257 644 207 532 193 448 c 0
 173 330 218 202 239 202 c 0
 245 202 251 206 252 212 c 0
 276 359 301 503 322 628 c 0
EndSplineSet
EndChar
StartChar: sterling
Encoding: 163 163
Width: 413
Flags: MW
HStem: -5 18<58.5 61.5> 722 28<345 384>
VStem: 144 77
Fore
144 402 m 1
 144 471 152 545 193 633 c 0
 235 724 325 750 365 750 c 0
 422 750 525 720 459 605 c 1
 434 615 428 619 418 639 c 1
 482 692 406 722 362 722 c 0
 318 722 297 694 276 654 c 0
 221 546 218 458 221 373 c 1
 240 374 260 384 278 395 c 0
 294 404 289 390 284 383 c 0
 267 359 251 327 223 324 c 1
 227 241 229 156 181 56 c 0
 174 42 188 33 209 33 c 0
 244 33 272 28 320 60 c 0
 342 75 353 106 355 126 c 1
 383 112 403 94 416 67 c 0
 419 61 414 54 408 49 c 0
 369 13 311 0 294 0 c 2
 294 0 123 0 78 0 c 0
 71 0 64 -5 59 -5 c 0
 54 -5 47 0 47 4 c 0
 48 13 56 13 61 13 c 0
 63 13 67 9 70 10 c 0
 87 13 103 50 115 77 c 0
 161 176 150 261 145 353 c 1
 129 354 112 347 90 334 c 0
 66 320 72 333 83 348 c 0
 103 373 117 403 144 402 c 1
EndSplineSet
EndChar
StartChar: section
Encoding: 164 167
Width: 332
Flags: MW
HStem: -69 12<136.5 146 146 146.5> 737 12<281 291.5>
Fore
235 525 m 1
 211 564 189 604 180 656 c 0
 171 710 184 721 183 729 c 0
 181 740 168 739 168 746 c 0
 167 748 172 749 174 749 c 2
 174 749 239 749 281 749 c 0
 319 749 336 749 377 749 c 1
 385 747 394 751 396 743 c 0
 398 736 376 736 379 716 c 1
 376 700 370 694 357 694 c 0
 346 694 340 695 343 712 c 0
 346 729 334 736 324 736 c 0
 314 736 297 737 286 737 c 0
 276 737 270 736 260 735 c 0
 222 731 224 676 233 624 c 0
 240 584 247 568 251 555 c 0
 267 501 277 475 294 382 c 0
 304 331 323 242 193 155 c 1
 216 116 239 76 248 24 c 0
 258 -29 243 -40 244 -49 c 0
 246 -60 259 -59 259 -66 c 0
 260 -68 256 -69 254 -69 c 2
 254 -69 188 -69 146 -69 c 0
 109 -69 91 -69 50 -69 c 1
 43 -67 32 -71 31 -62 c 0
 29 -56 51 -56 48 -36 c 1
 50 -20 58 -14 70 -14 c 0
 82 -14 87 -15 85 -32 c 0
 82 -49 93 -56 104 -56 c 0
 113 -56 131 -57 142 -57 c 0
 151 -57 158 -56 167 -55 c 0
 206 -50 204 5 195 56 c 0
 188 96 181 112 177 126 c 0
 161 180 150 205 133 298 c 0
 124 349 104 438 235 525 c 1
171 197 m 1
 252 250 282 381 272 434 c 0
 269 451 262 467 256 482 c 1
 176 430 147 299 157 247 c 0
 161 229 166 214 171 197 c 1
EndSplineSet
EndChar
StartChar: bullet
Encoding: 165 8226
Width: 401
Flags: W
Fore
176 425 m 0
 226 473 300 474 338 429 c 0
 376 384 365 308 314 260 c 0
 263 212 189 210 151 255 c 0
 113 300 124 376 176 425 c 0
EndSplineSet
EndChar
StartChar: paragraph
Encoding: 166 182
Width: 553
Flags: MW
HStem: 0 13<477.5 482> 235 29<220.5 227.5> 733 17<301.5 354.5>
Fore
62 0 m 2
 59 0 56 3 57 9 c 0
 57 13 57 23 78 23 c 0
 96 23 78 17 118 17 c 0
 141 17 193 17 243 17 c 0
 267 17 271 53 274 67 c 0
 276 87 357 567 382 715 c 0
 383 721 381 729 373 731 c 0
 364 734 359 733 350 733 c 0
 253 733 196 615 179 514 c 0
 165 430 166 345 188 300 c 0
 197 282 216 264 225 264 c 0
 230 264 232 266 237 268 c 0
 246 272 249 284 258 284 c 0
 272 284 277 275 275 263 c 0
 273 245 251 235 237 235 c 0
 166 235 97 427 122 579 c 0
 135 654 177 750 238 750 c 2
 238 750 477 750 624 750 c 0
 629 750 635 750 633 738 c 0
 630 721 617 729 614 729 c 0
 600 729 571 719 564 683 c 0
 561 665 462 67 462 67 c 2
 454 18 471 13 484 13 c 0
 488 13 490 11 489 7 c 0
 488 1 484 0 482 0 c 2
 62 0 l 2
402 67 m 0
 406 87 479 535 504 683 c 0
 510 719 491 729 480 729 c 0
 466 729 443 719 436 683 c 0
 433 665 333 67 333 67 c 1
 325 18 349 17 362 17 c 0
 380 17 391 18 402 67 c 0
EndSplineSet
EndChar
StartChar: germandbls
Encoding: 167 223
Width: 435
Flags: MW
HStem: -9 37<258 263.5> 301 58<312 322.5> 739 11<249 306.5>
VStem: 10 104<4 5.5>
Fore
299 491 m 0
 261 510 218 447 208 400 c 0
 204 382 231 340 233 325 c 1
 235 321 250 322 252 325 c 1
 272 344 297 359 327 359 c 0
 402 359 427 285 414 210 c 0
 386 39 290 -9 237 -9 c 0
 206 -9 155 20 137 62 c 0
 135 67 138 70 142 72 c 0
 163 79 176 89 191 98 c 0
 195 100 197 100 198 94 c 0
 205 52 244 28 272 28 c 0
 311 28 366 77 379 157 c 0
 392 237 362 301 283 301 c 0
 271 301 265 299 252 292 c 0
 248 290 245 292 243 293 c 0
 216 310 185 370 191 404 c 0
 203 474 290 548 334 532 c 0
 403 507 416 590 404 650 c 0
 391 718 352 739 261 739 c 0
 237 739 208 714 203 687 c 0
 203 684 96 44 96 44 c 2
 92 20 102 8 110 8 c 0
 113 8 114 7 114 4 c 0
 113 0 110 0 109 0 c 2
 13 0 l 2
 12 1 9 0 10 4 c 0
 10 7 11 8 14 8 c 0
 23 8 38 20 42 44 c 0
 43 53 149 684 149 684 c 1
 155 721 182 750 226 750 c 0
 289 750 281 750 341 750 c 0
 414 750 515 688 502 610 c 0
 481 480 381 449 299 491 c 0
EndSplineSet
EndChar
StartChar: registered
Encoding: 168 174
Width: 518
Flags: MW
HStem: 125 40<201.5 310> 595 10<305 314.5 309 339> 680 40<288 396>
Fore
390 605 m 2
 405 605 423 588 420 570 c 0
 413 535 354 485 317 459 c 0
 314 457 314 453 314 450 c 0
 320 433 329 426 338 409 c 0
 366 355 392 305 384 256 c 0
 382 246 380 240 377 230 c 1
 326 230 l 1
 332 242 334 248 336 260 c 0
 342 294 338 316 332 349 c 0
 327 372 320 383 313 404 c 0
 299 448 294 462 285 519 c 0
 284 522 281 531 279 519 c 0
 261 413 234 249 232 241 c 0
 231 230 227 230 223 230 c 2
 176 230 l 2
 175 231 172 231 172 234 c 0
 173 236 174 237 176 237 c 0
 182 237 193 239 197 264 c 2
 197 264 246 563 248 572 c 0
 251 590 243 599 237 599 c 0
 235 599 234 600 234 602 c 0
 235 605 237 605 238 605 c 2
 390 605 l 2
309 595 m 0
 301 595 292 595 290 587 c 0
 290 582 289 577 287 570 c 0
 283 546 294 507 305 470 c 0
 308 460 314 466 319 470 c 0
 352 500 371 542 373 556 c 0
 377 578 361 595 339 595 c 0
 328 595 320 595 309 595 c 0
342 680 m 0
 234 680 126 564 103 422 c 0
 79 280 147 165 256 165 c 0
 364 165 470 280 494 422 c 0
 518 564 450 680 342 680 c 0
349 720 m 0
 473 720 557 586 529 422 c 0
 502 258 373 125 249 125 c 0
 124 125 40 258 67 422 c 0
 95 586 224 720 349 720 c 0
EndSplineSet
EndChar
StartChar: copyright
Encoding: 169 169
Width: 218
Flags: MW
HStem: 125 40<201.5 310> 230 14<273.5 291> 680 40<288 396>
Fore
388 610 m 1
 373 589 363 577 345 561 c 1
 344 570 347 575 344 583 c 0
 341 593 335 601 325 601 c 0
 272 601 241 501 232 448 c 0
 218 359 225 244 289 244 c 0
 305 244 314 246 331 254 c 1
 314 238 301 230 281 230 c 0
 266 230 236 249 216 275 c 0
 187 314 180 383 191 451 c 0
 205 538 275 610 311 610 c 0
 341 610 357 610 388 610 c 1
342 680 m 0
 234 680 126 564 103 422 c 0
 79 280 147 165 256 165 c 0
 364 165 470 280 494 422 c 0
 518 564 450 680 342 680 c 0
349 720 m 0
 473 720 557 586 529 422 c 0
 502 258 373 125 249 125 c 0
 124 125 40 258 67 422 c 0
 95 586 224 720 349 720 c 0
EndSplineSet
EndChar
StartChar: trademark
Encoding: 170 8482
Width: 541
Flags: MW
HStem: 726 16
VStem: 534 78<742 743.5>
Fore
226 726 m 0
 221 726 218 726 211 723 c 1
 191 719 176 709 160 697 c 1
 158 694 151 696 155 701 c 1
 162 715 168 724 175 736 c 0
 177 740 181 744 185 744 c 0
 209 744 230 742 258 742 c 0
 287 742 305 744 331 744 c 0
 334 744 338 745 339 739 c 0
 342 726 342 722 347 710 c 0
 351 703 351 700 341 705 c 1
 328 717 316 720 298 723 c 1
 292 726 287 726 280 726 c 0
 274 726 273 718 272 712 c 0
 261 653 221 413 219 404 c 0
 215 372 224 377 231 377 c 0
 233 377 234 376 234 374 c 0
 233 371 231 370 230 369 c 2
 159 369 l 2
 158 370 155 371 156 374 c 0
 156 376 157 377 159 377 c 0
 165 377 176 378 180 404 c 1
 180 404 213 604 232 712 c 0
 232 717 233 726 226 726 c 0
534 671 m 0
 513 626 491 585 465 532 c 1
 461 521 459 517 461 502 c 0
 465 471 467 449 462 414 c 0
 459 398 454 387 446 369 c 1
 399 369 l 1
 417 393 430 419 436 453 c 0
 443 495 428 575 408 685 c 0
 405 703 401 693 400 685 c 1
 354 416 l 2
 352 404 351 393 360 384 c 0
 364 380 371 380 370 373 c 0
 370 369 364 369 360 369 c 2
 316 369 l 2
 313 369 308 369 309 374 c 0
 310 381 319 378 323 382 c 0
 332 391 336 397 338 408 c 2
 387 696 l 2
 390 713 389 728 377 737 c 1
 375 740 372 740 372 741 c 0
 371 745 378 744 382 744 c 2
 418 744 l 2
 423 744 433 746 430 741 c 0
 428 739 426 740 423 736 c 1
 418 733 416 728 414 720 c 0
 412 712 414 706 416 696 c 0
 427 641 441 600 450 553 c 0
 453 539 458 545 462 552 c 0
 497 615 503 637 531 694 c 0
 538 707 541 719 542 726 c 0
 543 731 542 739 536 739 c 0
 534 739 533 740 534 742 c 0
 534 745 537 743 538 744 c 2
 609 744 l 2
 610 743 612 745 612 742 c 0
 611 740 610 739 608 739 c 0
 601 739 592 735 588 712 c 2
 588 712 538 413 536 404 c 0
 533 386 541 377 547 377 c 0
 549 377 550 376 550 374 c 0
 549 371 547 370 546 369 c 2
 494 369 l 2
 490 369 485 368 486 377 c 0
 487 381 493 387 494 392 c 0
 506 464 541 671 541 671 c 1
 544 690 536 675 534 671 c 0
EndSplineSet
EndChar
StartChar: acute
Encoding: 171 180
Width: 222
Flags: MW
HStem: 730 20<194 270 270 270>
Fore
270 750 m 1
 197 625 l 1
 159 625 l 1
 159 625 176 667 183 695 c 0
 188 716 194 750 194 750 c 1
 270 750 l 1
EndSplineSet
EndChar
StartChar: dieresis
Encoding: 172 168
Width: 517
Flags: MW
HStem: 591 78<241 246 393 398>
Fore
216 630 m 0
 218 649 232 669 250 669 c 0
 268 669 274 649 271 630 c 0
 268 611 255 591 237 591 c 0
 218 591 213 611 216 630 c 0
368 630 m 0
 370 649 384 669 402 669 c 0
 420 669 426 649 423 630 c 0
 420 611 407 591 389 591 c 0
 370 591 365 611 368 630 c 0
EndSplineSet
EndChar
StartChar: notequal
Encoding: 173 8800
Width: 314
Flags: MW
HStem: 273 28 363 28
Fore
221 363 m 1
 220 363 220 363 219 363 c 0
 192 363 176 362 147 357 c 1
 154 397 l 1
 180 392 197 391 224 391 c 0
 229 391 234 391 238 391 c 1
 249 408 260 426 273 447 c 1
 280 461 311 463 299 445 c 0
 297 441 284 420 267 393 c 1
 276 394 287 395 298 397 c 1
 292 357 l 1
 275 360 263 362 249 362 c 1
 236 342 223 321 211 301 c 1
 238 301 255 302 283 307 c 1
 276 267 l 1
 249 272 233 273 204 273 c 0
 200 273 197 273 194 273 c 1
 180 252 171 237 168 232 c 0
 161 220 127 212 141 234 c 0
 147 244 137 227 164 271 c 1
 155 271 144 269 132 267 c 1
 139 307 l 1
 157 304 168 302 182 301 c 1
 193 317 205 337 221 363 c 1
EndSplineSet
EndChar
StartChar: AE
Encoding: 174 198
Width: 522
Flags: MW
HStem: -15 42 474 21<394 405.5 394 439 439 452> 528 18<267 283> 731 18<310 322.5>
Fore
326 515 m 0
 306 523 291 528 275 528 c 0
 256 528 227 523 199 508 c 0
 190 503 190 485 203 491 c 0
 230 504 242 509 267 509 c 0
 288 509 298 504 318 498 c 0
 328 495 330 513 326 515 c 0
336 551 m 0
 343 591 351 638 360 693 c 0
 365 720 362 729 349 729 c 0
 337 729 329 731 316 731 c 0
 304 731 296 730 283 728 c 0
 235 721 212 638 199 559 c 0
 196 537 190 519 206 527 c 0
 235 541 253 546 281 546 c 0
 297 546 308 543 323 537 c 0
 332 533 335 543 336 551 c 0
432 750 m 0
 507 752 476 756 531 756 c 0
 565 756 597 735 602 701 c 0
 603 693 600 692 597 689 c 0
 579 673 569 663 550 648 c 0
 547 646 543 643 542 652 c 0
 541 679 541 696 527 713 c 0
 514 728 502 730 484 731 c 0
 471 732 457 732 445 732 c 1
 436 726 422 720 419 700 c 0
 406 626 396 561 386 500 c 1
 388 497 390 495 394 495 c 0
 410 495 419 495 439 495 c 0
 465 495 507 514 539 552 c 1
 541 556 544 563 547 560 c 0
 557 545 561 540 571 528 c 0
 573 526 572 522 569 519 c 0
 526 479 503 474 462 474 c 0
 434 474 419 474 392 474 c 0
 388 474 384 472 381 470 c 1
 358 335 338 214 310 47 c 1
 311 42 313 38 316 36 c 0
 328 28 336 27 351 27 c 0
 401 27 461 77 488 123 c 0
 489 126 493 135 498 129 c 0
 509 112 518 102 525 89 c 0
 527 84 525 75 522 70 c 1
 481 23 434 -15 396 -15 c 0
 376 -15 337 -1 320 -3 c 1
 218 -3 l 1
 218 -1 216 -1 217 3 c 0
 218 17 244 2 252 48 c 0
 278 203 293 293 319 448 c 0
 323 474 321 475 309 480 c 0
 294 486 281 488 263 488 c 0
 238 488 219 485 197 472 c 0
 190 468 189 467 187 454 c 0
 174 373 185 334 161 193 c 0
 148 114 135 63 88 -3 c 1
 10 -3 l 1
 89 81 142 190 156 271 c 0
 176 393 126 473 148 607 c 0
 162 689 185 706 188 719 c 0
 191 736 176 735 177 744 c 0
 178 748 183 749 185 750 c 1
 185 750 266 749 316 749 c 0
 362 749 383 748 432 750 c 0
EndSplineSet
EndChar
StartChar: Oslash
Encoding: 175 216
Width: 471
Flags: W
Fore
432 568 m 1
 354 449 256 298 181 183 c 1
 196 117 225 65 279 46 c 0
 352 19 418 207 438 326 c 0
 453 414 452 500 432 568 c 1
175 227 m 1
 247 337 337 475 420 602 c 1
 404 641 378 670 345 684 c 0
 253 722 203 555 186 454 c 0
 174 378 167 297 175 227 c 1
107 123 m 1
 85 197 88 288 104 386 c 0
 131 545 199 676 332 754 c 0
 368 775 398 770 427 750 c 0
 449 736 466 716 480 694 c 1
 497 718 512 742 527 765 c 0
 537 781 573 783 560 763 c 0
 558 759 532 721 495 664 c 1
 522 601 526 518 511 430 c 0
 497 343 460 91 283 0 c 0
 249 -18 227 -27 200 -8 c 0
 163 18 137 51 120 89 c 1
 91 45 72 16 69 12 c 0
 62 -2 20 -11 35 14 c 0
 39 19 66 60 107 123 c 1
EndSplineSet
EndChar
StartChar: infinity
Encoding: 176 8734
Width: 816
Flags: W
Fore
414 200 m 1
 380 262 359 329 292 328 c 0
 232 327 167 286 160 231 c 0
 153 176 199 112 265 112 c 0
 334 112 378 151 414 200 c 1
477 263 m 1
 510 201 529 134 596 134 c 0
 656 134 722 176 728 231 c 0
 735 286 688 350 622 350 c 0
 557 350 514 311 477 263 c 1
469 278 m 1
 506 329 545 371 609 371 c 0
 722 370 768 299 760 231 c 0
 751 156 687 92 575 92 c 0
 492 92 451 136 422 186 c 1
 384 135 343 93 279 92 c 0
 166 92 120 156 129 231 c 0
 137 299 199 370 313 371 c 0
 400 371 441 328 469 278 c 1
EndSplineSet
EndChar
StartChar: plusminus
Encoding: 177 177
Width: 337
Flags: MW
HStem: 273 28 352 30<237 242.5>
Fore
190 301 m 1
 196 320 199 334 203 352 c 1
 183 351 145 346 145 346 c 1
 152 388 l 1
 152 388 189 383 208 382 c 1
 212 404 213 419 213 444 c 1
 253 444 l 1
 245 419 240 404 237 382 c 1
 257 382 296 388 296 388 c 1
 290 346 l 1
 290 346 253 352 232 352 c 1
 230 334 228 320 227 301 c 1
 246 302 260 303 283 307 c 1
 276 267 l 1
 249 272 233 273 204 273 c 0
 177 273 161 272 132 267 c 1
 139 307 l 1
 159 303 173 302 190 301 c 1
EndSplineSet
EndChar
StartChar: lessequal
Encoding: 178 8804
Width: 420
Flags: W
Fore
344 466 m 0
 314 425 257 402 197 379 c 0
 185 375 165 369 165 369 c 1
 170 365 190 359 196 356 c 0
 238 335 258 321 277 290 c 1
 291 270 287 249 288 230 c 1
 287 226 282 223 277 223 c 0
 241 218 266 221 232 217 c 1
 237 227 243 245 247 271 c 0
 252 307 222 326 189 348 c 0
 175 357 161 360 142 371 c 1
 142 371 180 382 197 389 c 0
 217 397 273 432 295 459 c 0
 309 477 301 486 301 496 c 1
 317 494 328 493 343 490 c 0
 349 489 357 485 344 466 c 0
138 186 m 1
 131 146 l 1
 166 151 185 152 220 152 c 0
 255 152 274 151 309 146 c 1
 318 186 l 1
 282 182 261 181 226 181 c 0
 192 181 173 182 138 186 c 1
EndSplineSet
EndChar
StartChar: greaterequal
Encoding: 179 8805
Width: 420
Flags: W
Fore
26 246 m 1
 25 246 l 1
 55 287 112 310 172 333 c 0
 184 337 204 343 204 343 c 1
 199 347 179 353 173 356 c 0
 131 377 111 391 92 422 c 1
 78 442 82 463 81 482 c 1
 82 486 87 489 92 489 c 0
 128 494 103 491 137 495 c 1
 132 485 126 467 122 441 c 0
 117 405 147 386 180 364 c 0
 194 355 208 352 227 341 c 1
 227 341 189 330 172 323 c 0
 152 315 96 280 74 253 c 0
 60 235 68 226 68 216 c 1
 52 218 41 219 26 222 c 0
 20 223 12 227 26 246 c 1
196 186 m 1
 203 146 l 1
 168 151 149 152 114 152 c 0
 79 152 60 151 25 146 c 1
 16 186 l 1
 52 182 73 181 108 181 c 0
 142 181 161 182 196 186 c 1
EndSplineSet
EndChar
StartChar: yen
Encoding: 180 165
Width: 594
Flags: MW
HStem: -6 20
Fore
201 463 m 1
 216 425 240 389 271 351 c 0
 291 328 301 365 309 380 c 2
 351 464 l 1
 335 464 319 464 302 464 c 0
 264 464 232 464 201 463 c 1
182 584 m 1
 181 553 184 524 191 497 c 1
 226 496 262 496 306 496 c 0
 328 496 348 496 367 496 c 1
 411 585 l 1
 383 586 352 586 317 586 c 0
 265 586 223 586 182 584 c 1
44 625 m 1
 71 624 94 623 116 622 c 1
 110 661 109 697 113 734 c 0
 115 744 122 750 129 750 c 2
 251 750 l 2
 256 750 260 747 259 742 c 0
 259 738 254 735 250 735 c 0
 243 735 240 737 233 737 c 0
 217 737 190 669 185 623 c 1
 184 620 l 1
 226 618 268 618 321 618 c 0
 361 618 395 618 428 619 c 1
 432 628 l 2
 448 660 450 662 451 685 c 0
 452 698 453 707 448 718 c 0
 443 731 426 736 426 742 c 0
 427 745 432 748 436 749 c 2
 600 749 l 2
 604 749 608 742 608 742 c 1
 607 734 589 734 579 726 c 0
 568 717 563 710 556 696 c 2
 516 621 l 1
 544 622 574 623 609 625 c 1
 603 579 l 1
 563 581 529 582 496 583 c 1
 450 498 l 1
 494 499 538 501 594 503 c 1
 588 457 l 1
 527 460 480 462 432 463 c 1
 229 81 l 1
 226 74 216 54 215 36 c 0
 214 24 219 14 218 5 c 0
 217 0 209 -1 203 -1 c 2
 86 -1 l 2
 75 -1 67 -6 57 -6 c 0
 53 -6 49 -4 47 0 c 0
 45 7 55 11 62 11 c 0
 73 11 84 13 96 20 c 0
 108 27 130 47 136 58 c 2
 266 298 l 2
 271 307 269 316 263 324 c 0
 234 365 197 408 168 463 c 1
 124 461 80 460 24 457 c 1
 29 503 l 1
 75 501 114 499 151 498 c 1
 142 518 134 540 128 563 c 0
 127 570 125 576 124 583 c 1
 98 582 70 580 39 579 c 1
 44 625 l 1
EndSplineSet
EndChar
StartChar: mu
Encoding: 181 181
Width: 356
Flags: MW
HStem: -2 14<168 200.5>
VStem: -29 103<-246 -244.5> 301 104<494.5 496>
Fore
133 256 m 0
 118 147 136 12 191 12 c 0
 213 12 250 35 254 61 c 1
 254 61 317 444 319 456 c 0
 324 480 313 492 305 492 c 0
 302 492 301 493 301 496 c 0
 302 500 305 500 306 500 c 2
 402 500 l 2
 403 499 406 500 405 496 c 0
 405 493 404 492 401 492 c 0
 392 492 378 480 373 456 c 0
 371 444 308 57 305 43 c 0
 298 2 311 7 320 7 c 0
 322 7 324 5 324 3 c 0
 323 -1 319 -1 318 -2 c 2
 254 -2 l 2
 248 -2 243 -2 244 8 c 0
 245 12 246 18 247 20 c 0
 248 28 237 16 232 13 c 0
 228 10 211 -2 190 -2 c 0
 146 -2 119 27 102 70 c 1
 77 -77 56 -206 56 -206 c 2
 52 -230 62 -242 70 -242 c 0
 73 -242 74 -243 74 -246 c 0
 73 -250 70 -250 69 -250 c 2
 -27 -250 l 2
 -28 -249 -30 -250 -29 -246 c 0
 -29 -243 -28 -242 -26 -242 c 0
 -17 -242 -3 -230 2 -206 c 0
 4 -194 110 441 112 455 c 0
 119 496 106 491 97 491 c 0
 95 491 93 493 93 495 c 0
 94 499 98 499 99 500 c 2
 163 500 l 2
 169 500 174 500 172 490 c 0
 172 488 150 385 133 256 c 0
EndSplineSet
EndChar
StartChar: partialdiff
Encoding: 182 8706
Width: 338
Flags: MW
HStem: 0 18 488 14<235.5 269> 720 30<166 216>
Fore
267 488 m 0
 204 488 137 310 118 196 c 0
 95 61 165 18 189 18 c 0
 218 18 247 48 268 171 c 2
 280 242 l 2
 331 542 266 720 166 720 c 0
 155 720 146 722 148 734 c 0
 151 748 158 750 174 750 c 0
 299 750 386 556 341 285 c 2
 341 285 326 195 324 183 c 0
 301 45 243 -1 215 -1 c 0
 180 -1 170 0 170 0 c 2
 96 2 42 75 56 155 c 0
 83 315 156 502 271 502 c 0
 278 502 277 498 276 494 c 0
 275 490 271 488 267 488 c 0
EndSplineSet
EndChar
StartChar: summation
Encoding: 183 8721
Width: 447
Flags: MW
HStem: -15 42<243.5 245> 739 12
Fore
165 36 m 0
 181 28 193 27 212 27 c 0
 278 27 356 77 389 123 c 0
 391 126 396 135 402 129 c 0
 418 112 430 102 441 89 c 0
 445 84 443 75 437 70 c 0
 386 23 326 -15 275 -15 c 0
 212 -15 169 14 113 47 c 0
 99 56 89 64 70 64 c 0
 63 64 58 64 51 62 c 0
 43 60 38 66 50 73 c 0
 65 81 95 96 130 150 c 2
 317 435 l 1
 197 683 l 1
 188 716 173 739 160 739 c 0
 156 739 155 741 155 745 c 0
 156 751 159 750 163 752 c 0
 169 755 174 751 180 751 c 0
 357 751 360 756 446 756 c 0
 491 756 534 735 543 701 c 0
 545 693 542 692 538 689 c 0
 515 673 502 663 477 648 c 0
 474 646 468 643 467 652 c 0
 464 679 462 696 443 713 c 0
 425 728 408 730 384 731 c 0
 364 732 303 732 287 731 c 0
 275 730 270 727 269 718 c 1
 403 440 l 1
 160 67 l 1
 158 55 155 41 165 36 c 0
EndSplineSet
EndChar
StartChar: product
Encoding: 184 8719
Width: 783
Flags: MW
HStem: 0 13<162 170 301 305 162 162 476 476 476 483.5 614.5 618> 719 27<515 515>
Fore
515 719 m 1
 472 717 419 716 407 714 c 0
 392 712 390 698 388 683 c 0
 369 565 289 88 285 67 c 0
 275 6 294 13 308 13 c 0
 312 13 313 11 313 7 c 0
 312 1 307 2 305 0 c 1
 162 0 l 1
 161 2 156 1 157 7 c 0
 158 11 160 13 163 13 c 0
 177 13 197 18 205 67 c 1
 205 67 271 467 308 683 c 0
 310 696 311 714 298 714 c 0
 288 714 280 711 269 708 c 0
 226 697 197 680 164 653 c 0
 161 650 147 651 155 664 c 0
 170 689 181 710 195 734 c 0
 199 742 208 750 217 750 c 0
 264 750 402 746 520 746 c 0
 637 746 769 750 821 750 c 0
 828 750 837 752 838 740 c 0
 843 714 842 706 853 682 c 0
 859 668 860 659 842 672 c 0
 814 693 791 700 756 708 c 0
 742 711 732 714 720 714 c 0
 706 714 703 698 701 683 c 0
 681 565 602 88 598 67 c 0
 588 6 608 13 621 13 c 0
 625 13 627 11 626 7 c 0
 625 1 620 2 618 0 c 1
 476 0 l 1
 474 2 469 1 470 7 c 0
 471 11 473 13 477 13 c 0
 490 13 511 18 519 67 c 2
 519 67 584 467 621 683 c 0
 623 696 624 713 612 714 c 0
 574 717 515 719 515 719 c 1
EndSplineSet
EndChar
StartChar: pi
Encoding: 185 960
Width: 635
Flags: MW
HStem: 0 20 482 18<400 400>
Fore
400 482 m 1
 367 480 323 480 313 478 c 0
 300 477 300 468 298 458 c 0
 285 379 231 59 229 45 c 0
 222 4 238 9 250 9 c 0
 253 9 253 7 253 5 c 0
 252 1 249 1 247 0 c 2
 132 0 l 2
 130 1 126 1 127 5 c 0
 127 7 129 9 133 9 c 0
 143 9 159 12 165 45 c 1
 165 45 210 313 235 458 c 0
 236 466 235 478 224 478 c 0
 216 478 211 476 201 474 c 0
 166 467 142 456 118 438 c 0
 115 435 104 436 109 445 c 1
 122 462 130 476 141 492 c 0
 144 497 151 502 158 502 c 0
 197 502 308 500 403 500 c 0
 498 500 606 502 648 502 c 0
 654 502 660 504 661 496 c 0
 665 478 666 473 675 457 c 0
 680 448 681 441 666 450 c 0
 643 463 625 469 597 474 c 0
 584 476 576 478 566 478 c 0
 554 478 554 468 552 458 c 0
 539 379 484 59 483 45 c 1
 476 4 493 9 503 9 c 0
 506 9 507 7 507 5 c 0
 506 1 503 1 501 0 c 2
 386 0 l 2
 384 1 380 1 381 5 c 0
 381 7 383 9 387 9 c 0
 398 9 413 12 419 45 c 1
 419 45 464 313 488 458 c 0
 489 466 488 478 478 478 c 0
 448 480 400 482 400 482 c 1
EndSplineSet
EndChar
StartChar: integral
Encoding: 186 8747
Width: 158
Flags: MW
HStem: 730 20<204 257.5 226 389>
Fore
11 -138 m 0
 7 -165 -23 -190 -47 -190 c 0
 -76 -190 -106 -158 -126 -126 c 1
 -149 -153 -165 -167 -174 -201 c 1
 -111 -201 -74 -201 -11 -201 c 0
 32 -201 60 -172 66 -135 c 2
 66 -135 203 684 203 687 c 0
 208 714 237 739 261 739 c 0
 291 739 321 707 341 675 c 1
 364 702 380 716 389 750 c 1
 326 750 289 750 226 750 c 0
 182 750 155 721 149 684 c 1
 149 684 12 -129 11 -138 c 0
EndSplineSet
EndChar
StartChar: ordfeminine
Encoding: 187 170
Width: 278
Flags: W
Fore
190 315 m 1
 190 314 l 1
 191 323 232 555 232 555 c 1
 239 594 217 616 200 616 c 0
 152 616 103 482 89 397 c 0
 71 296 124 263 150 263 c 0
 166 263 183 280 190 315 c 1
227 293 m 1
 227 294 l 1
 224 270 241 266 246 280 c 0
 247 284 252 298 252 298 c 1
 263 298 l 1
 260 290 259 286 256 278 c 0
 248 256 224 247 203 251 c 0
 196 252 192 255 189 259 c 1
 172 252 151 250 128 250 c 0
 72 250 32 306 42 366 c 0
 63 486 117 627 203 627 c 0
 216 627 229 619 239 609 c 1
 282 620 l 1
 269 537 234 338 229 307 c 0
 229 304 228 299 227 293 c 1
108 194 m 1
 99 152 l 1
 143 157 169 158 214 158 c 0
 258 158 284 157 328 152 c 1
 339 194 l 1
 293 189 266 188 221 188 c 0
 177 188 153 189 108 194 c 1
EndSplineSet
EndChar
StartChar: ordmasculine
Encoding: 188 186
Width: 285
Flags: W
Fore
94 488 m 0
 79 402 82 304 140 283 c 0
 178 270 211 364 220 423 c 0
 234 505 221 583 173 603 c 0
 127 623 103 539 94 488 c 0
52 454 m 0
 66 534 100 600 166 639 c 0
 184 649 200 647 215 637 c 0
 256 609 269 545 257 476 c 0
 250 432 232 306 143 260 c 0
 125 251 114 247 101 256 c 0
 43 298 39 370 52 454 c 0
108 194 m 1
 99 152 l 1
 143 157 169 158 214 158 c 0
 258 158 284 157 328 152 c 1
 339 194 l 1
 293 189 266 188 221 188 c 0
 177 188 153 189 108 194 c 1
EndSplineSet
EndChar
StartChar: ae
Encoding: 190 230
Width: 514
Flags: MW
HStem: 0 18<171 176 171 196> 360 14<204.5 242.5> 490 12<414 447>
Fore
231 54 m 0
 233 66 274 311 274 311 c 1
 278 337 252 360 233 360 c 0
 176 360 132 300 115 196 c 0
 92 61 155 18 187 18 c 0
 205 18 226 30 231 54 c 0
427 490 m 0
 370 490 335 358 327 309 c 0
 327 304 333 294 339 296 c 0
 381 309 463 368 469 404 c 0
 477 447 467 490 427 490 c 0
332 432 m 1
 361 475 394 502 414 502 c 0
 446 502 439 502 465 502 c 0
 490 502 534 468 522 418 c 0
 507 359 450 337 408 306 c 0
 374 282 319 273 316 230 c 0
 308 118 313 14 385 12 c 0
 420 11 461 38 477 55 c 1
 457 16 408 -7 375 -7 c 0
 328 -7 298 21 280 65 c 1
 278 53 277 46 277 44 c 0
 270 -1 259 0 256 0 c 2
 256 0 193 0 159 0 c 0
 92 0 46 75 59 155 c 0
 84 301 133 374 237 374 c 0
 255 374 267 362 269 359 c 1
 273 356 279 344 280 352 c 0
 280 354 287 386 290 406 c 0
 298 451 274 474 235 474 c 0
 196 474 117 444 158 391 c 1
 142 371 135 367 110 357 c 1
 86 472 190 502 241 502 c 0
 289 502 321 476 332 432 c 1
EndSplineSet
EndChar
StartChar: oslash
Encoding: 191 248
Width: 358
Flags: W
Fore
293 372 m 1
 238 289 176 194 123 115 c 1
 134 74 154 43 187 31 c 0
 237 13 281 139 294 218 c 0
 303 274 303 329 293 372 c 1
118 149 m 1
 168 225 226 315 282 401 c 1
 271 428 254 448 231 458 c 0
 169 484 137 372 125 304 c 0
 116 252 113 197 118 149 c 1
72 79 m 1
 57 130 59 192 70 259 c 0
 87 365 134 453 222 505 c 0
 246 519 267 516 287 502 c 0
 301 492 313 479 323 463 c 1
 346 499 369 534 390 567 c 0
 398 579 427 581 418 565 c 0
 415 561 382 509 334 437 c 1
 351 396 352 343 343 288 c 0
 334 230 309 61 190 0 c 0
 167 -12 152 -18 134 -5 c 0
 111 11 95 31 84 53 c 1
 46 -6 18 -47 15 -51 c 0
 9 -62 -25 -70 -12 -50 c 0
 -9 -45 25 6 72 79 c 1
EndSplineSet
EndChar
StartChar: questiondown
Encoding: 192 191
Width: 470
Flags: MW
HStem: -26 24<177 271.5> 219 19<323.5 351.5> 647 88
Fore
238 -26 m 0
 98 -26 51 65 72 189 c 0
 92 308 174 315 242 393 c 0
 282 438 324 502 334 567 c 0
 336 579 341 583 348 583 c 0
 354 583 360 585 357 568 c 0
 344 490 332 451 274 374 c 0
 225 310 141 258 129 186 c 0
 120 132 110 -2 244 -2 c 0
 312 -2 379 61 389 125 c 0
 397 171 373 219 339 219 c 0
 308 219 278 190 273 157 c 0
 270 137 283 110 308 103 c 1
 294 95 284 90 269 90 c 0
 234 90 209 121 215 158 c 0
 224 211 275 238 321 238 c 0
 382 238 415 182 405 119 c 0
 391 38 305 -26 238 -26 c 0
399 689 m 0
 395 668 378 646 358 647 c 0
 338 648 329 668 332 689 c 0
 335 711 353 735 374 735 c 0
 395 735 404 711 399 689 c 0
EndSplineSet
EndChar
StartChar: exclamdown
Encoding: 193 161
Width: 245
Flags: MW
HStem: 658 88
Fore
46 -14 m 0
 46 -10 48 -8 52 -8 c 0
 66 -8 83 -15 93 46 c 0
 97 67 188 479 209 597 c 0
 214 628 247 629 241 597 c 0
 238 579 177 66 173 46 c 0
 164 -3 183 -8 197 -8 c 0
 200 -8 201 -10 201 -14 c 0
 199 -20 196 -19 193 -21 c 1
 50 -21 l 1
 49 -19 44 -20 46 -14 c 0
276 700 m 0
 272 679 256 657 236 658 c 0
 216 659 207 679 210 700 c 0
 214 722 231 746 252 746 c 0
 273 746 280 722 276 700 c 0
EndSplineSet
EndChar
StartChar: logicalnot
Encoding: 194 172
Width: 449
Flags: MW
HStem: 204 20<44 367>
VStem: 367 20<86 204 204 204>
Fore
43 204 m 2
 36 204 35 224 44 224 c 2
 381 224 l 2
 385 224 387 216 387 213 c 2
 387 85 l 2
 387 79 367 75 367 86 c 2
 367 204 l 1
 43 204 l 2
EndSplineSet
EndChar
StartChar: radical
Encoding: 195 8730
Width: 756
Flags: W
Fore
480 524 m 1
 244 0 l 1
 174 0 l 1
 81 189 l 1
 54 161 l 1
 26 197 l 1
 119 291 l 1
 233 60 l 1
 464 556 l 1
 464 560 l 1
 690 560 l 1
 690 524 l 1
 480 524 l 1
EndSplineSet
EndChar
StartChar: florin
Encoding: 196 402
Width: 180
Flags: MW
HStem: 730 20<204 257.5 226 389>
Fore
66 -136 m 2
 66 -136 147 352 167 471 c 0
 168 477 169 483 179 483 c 0
 201 483 216 483 240 483 c 0
 277 483 302 489 338 516 c 0
 340 518 342 520 340 522 c 0
 331 530 324 535 314 545 c 0
 313 547 311 542 308 540 c 0
 281 514 245 502 221 502 c 0
 203 502 196 502 181 502 c 0
 173 502 174 509 175 514 c 0
 184 573 203 686 203 687 c 0
 208 714 237 739 261 739 c 0
 291 739 321 707 341 675 c 1
 364 702 380 716 389 750 c 1
 326 750 289 750 226 750 c 0
 182 750 155 721 149 684 c 0
 144 656 130 573 121 514 c 0
 120 509 119 502 110 502 c 0
 96 502 100 501 95 502 c 1
 74 483 l 1
 80 483 83 483 105 483 c 0
 115 483 114 477 113 471 c 0
 93 352 13 -128 12 -136 c 0
 8 -160 -23 -190 -47 -190 c 0
 -76 -190 -106 -158 -126 -126 c 1
 -149 -153 -165 -167 -174 -201 c 1
 -111 -201 -74 -201 -11 -201 c 0
 32 -201 60 -172 66 -136 c 2
EndSplineSet
EndChar
StartChar: approxequal
Encoding: 197 8776
Width: 331
Flags: W
Fore
88 258 m 0
 77 243 71 230 95 244 c 0
 117 257 129 263 149 263 c 0
 183 263 192 234 225 234 c 0
 254 234 271 268 289 293 c 0
 294 300 299 314 283 305 c 0
 264 294 244 283 224 283 c 0
 192 283 179 312 147 312 c 0
 123 312 107 282 88 258 c 0
123 378 m 0
 112 363 106 350 130 364 c 0
 152 377 164 383 184 383 c 0
 218 383 227 354 260 354 c 0
 289 354 306 388 324 413 c 0
 329 420 334 434 318 425 c 0
 299 414 279 403 259 403 c 0
 227 403 214 432 182 432 c 0
 158 432 142 402 123 378 c 0
EndSplineSet
EndChar
StartChar: guillemotleft
Encoding: 199 171
Width: 420
Flags: W
Fore
258 424 m 0
 273 453 265 459 258 459 c 1
 241 463 230 465 213 468 c 1
 213 453 221 440 206 414 c 0
 183 373 123 321 102 310 c 0
 84 300 43 283 43 283 c 1
 63 267 78 263 93 249 c 0
 129 217 160 188 155 135 c 0
 151 96 145 70 139 55 c 1
 176 61 149 56 187 63 c 0
 193 64 198 68 199 74 c 1
 198 103 202 133 188 163 c 0
 167 209 146 230 101 261 c 0
 95 266 73 274 68 280 c 1
 68 280 89 289 101 295 c 0
 165 329 227 364 258 424 c 0
413 424 m 0
 428 453 420 459 413 459 c 1
 396 463 385 465 368 468 c 1
 368 453 376 440 361 414 c 0
 338 373 278 321 257 310 c 0
 239 300 198 283 198 283 c 1
 218 267 233 263 248 249 c 0
 284 217 315 188 310 135 c 0
 306 96 300 70 294 55 c 1
 331 61 304 56 342 63 c 0
 348 64 353 68 354 74 c 1
 353 103 357 133 343 163 c 0
 322 209 301 230 256 261 c 0
 250 266 228 274 223 280 c 1
 223 280 244 289 256 295 c 0
 320 329 382 364 413 424 c 0
EndSplineSet
EndChar
StartChar: guillemotright
Encoding: 200 187
Width: 420
Flags: W
Fore
214 98 m 0
 199 69 207 63 214 63 c 1
 231 59 242 57 259 54 c 1
 259 69 251 82 266 108 c 0
 289 149 349 201 370 212 c 0
 388 222 429 239 429 239 c 1
 409 255 394 259 379 273 c 0
 343 305 311 334 317 387 c 0
 321 426 327 452 333 467 c 1
 296 461 323 466 285 459 c 0
 279 458 274 454 273 448 c 1
 274 419 270 389 284 359 c 0
 305 313 326 292 371 261 c 0
 377 256 399 248 404 242 c 1
 404 242 383 233 371 227 c 0
 306 193 245 158 214 98 c 0
59 98 m 0
 44 69 52 63 59 63 c 1
 76 59 87 57 104 54 c 1
 104 69 96 82 111 108 c 0
 134 149 194 201 215 212 c 0
 233 222 274 239 274 239 c 1
 254 255 239 259 224 273 c 0
 188 305 156 334 162 387 c 0
 166 426 172 452 178 467 c 1
 141 461 168 466 130 459 c 0
 124 458 119 454 118 448 c 1
 119 419 115 389 129 359 c 0
 150 313 171 292 216 261 c 0
 222 256 244 248 249 242 c 1
 249 242 228 233 216 227 c 0
 151 193 90 158 59 98 c 0
EndSplineSet
EndChar
StartChar: ellipsis
Encoding: 201 8230
Width: 645
Flags: MW
HStem: 0 88
VStem: 63 70 233 70 413 70
Fore
63 46 m 0
 64 67 78 89 99 88 c 0
 120 87 133 67 133 46 c 0
 133 24 120 0 98 0 c 0
 76 0 62 24 63 46 c 0
233 46 m 0
 234 67 248 89 269 88 c 0
 290 87 303 67 303 46 c 0
 303 24 290 0 268 0 c 0
 246 0 232 24 233 46 c 0
413 46 m 0
 414 67 428 89 449 88 c 0
 470 87 483 67 483 46 c 0
 483 24 470 0 448 0 c 0
 426 0 412 24 413 46 c 0
EndSplineSet
EndChar
StartChar: Agrave
Encoding: 203 192
Width: 465
Flags: MW
HStem: -3 20
Fore
192 271 m 0
 212 393 146 473 168 607 c 0
 182 689 211 706 214 719 c 0
 217 736 198 735 199 744 c 0
 199 748 206 749 209 750 c 1
 209 750 310 749 373 749 c 0
 429 749 456 750 518 750 c 1
 528 746 546 752 543 740 c 0
 542 729 508 729 503 700 c 0
 460 444 437 299 394 44 c 0
 388 5 417 13 416 3 c 0
 415 0 412 -1 409 -3 c 1
 282 -3 l 1
 281 -1 278 -1 279 3 c 0
 281 17 313 2 321 48 c 0
 348 203 363 293 389 448 c 0
 393 474 390 475 374 480 c 0
 355 486 340 488 317 488 c 0
 286 488 263 485 235 472 c 0
 227 468 226 467 224 454 c 0
 211 373 225 334 201 193 c 0
 188 114 175 63 120 -3 c 1
 22 -3 l 1
 117 81 178 190 192 271 c 0
321 509 m 0
 347 509 361 504 386 498 c 0
 398 495 400 513 394 515 c 0
 370 523 350 528 331 528 c 0
 308 528 271 523 237 508 c 0
 225 503 226 485 242 491 c 0
 275 504 291 509 321 509 c 0
234 559 m 0
 231 537 224 519 244 527 c 0
 279 541 302 546 337 546 c 0
 358 546 370 543 389 537 c 0
 402 533 406 543 407 551 c 0
 413 591 421 638 430 693 c 0
 435 720 430 729 414 729 c 0
 400 729 389 731 373 731 c 0
 358 731 349 730 332 728 c 0
 272 721 247 638 234 559 c 0
375 770 m 1
 343 770 l 1
 317 876 l 1
 381 876 l 1
 381 876 376 847 375 829 c 0
 374 806 375 770 375 770 c 1
EndSplineSet
EndChar
StartChar: OE
Encoding: 206 338
Width: 625
Flags: MW
HStem: -15 42<451.5 452> 474 21<447 459.5 447 497 497 512> 731 20
Fore
344 326 m 0
 365 486 343 644 262 684 c 0
 184 722 144 555 131 454 c 0
 108 282 115 88 213 46 c 0
 275 19 328 207 344 326 c 0
284 62 m 1
 265 37 242 16 216 0 c 0
 188 -18 169 -27 147 -8 c 0
 49 74 41 219 63 386 c 0
 84 545 140 676 250 754 c 0
 280 775 305 770 331 750 c 0
 334 747 360 742 376 752 c 0
 381 755 386 751 391 751 c 0
 540 751 514 756 586 756 c 0
 624 756 660 735 668 701 c 0
 670 693 667 692 664 689 c 0
 645 673 633 663 613 648 c 0
 610 646 606 643 605 652 c 0
 601 679 600 696 583 713 c 0
 568 728 553 730 533 731 c 0
 516 732 494 732 480 731 c 0
 470 730 467 727 466 718 c 0
 461 680 450 602 439 513 c 0
 438 506 436 495 447 495 c 0
 465 495 475 495 497 495 c 0
 527 495 572 514 606 552 c 0
 609 556 612 563 615 560 c 0
 627 545 632 540 644 528 c 0
 645 526 645 522 641 519 c 0
 596 479 569 474 522 474 c 0
 492 474 474 474 445 474 c 0
 433 474 432 466 431 457 c 0
 408 279 399 212 380 67 c 0
 378 55 376 41 385 36 c 0
 399 28 408 27 424 27 c 0
 480 27 545 77 572 123 c 1
 575 126 578 135 583 129 c 0
 597 112 607 102 616 89 c 0
 619 84 618 75 613 70 c 0
 571 23 521 -15 478 -15 c 0
 425 -15 389 14 341 47 c 0
 328 56 320 64 304 64 c 0
 298 64 294 64 288 62 c 0
 287 62 285 62 284 62 c 1
EndSplineSet
EndChar
StartChar: oe
Encoding: 207 339
Width: 537
Flags: MW
HStem: -7 19 494 20
Fore
461 490 m 0
 404 490 369 358 360 309 c 0
 360 304 367 294 372 296 c 0
 414 309 497 368 503 404 c 0
 511 447 501 490 461 490 c 0
125 304 m 0
 105 189 109 59 187 31 c 0
 237 13 281 139 294 218 c 0
 312 326 294 431 231 458 c 0
 169 484 137 372 125 304 c 0
299 127 m 1
 276 76 243 27 190 0 c 0
 167 -12 152 -18 134 -5 c 0
 57 50 51 147 70 259 c 0
 87 365 134 453 222 505 c 0
 246 519 267 516 287 502 c 0
 318 481 337 444 344 398 c 1
 377 460 422 497 447 502 c 0
 480 508 473 508 499 502 c 0
 522 496 568 468 556 418 c 0
 541 359 484 337 441 306 c 0
 408 282 353 273 350 230 c 0
 342 118 347 14 418 12 c 0
 453 11 494 38 510 55 c 1
 490 16 441 -7 408 -7 c 0
 342 -7 310 49 299 127 c 1
EndSplineSet
EndChar
StartChar: endash
Encoding: 208 8211
Width: 471
Flags: W
Fore
116 354 m 1
 108 308 l 1
 178 313 219 315 288 315 c 0
 359 315 399 313 469 308 c 1
 477 354 l 1
 406 349 364 347 293 347 c 0
 224 347 184 349 116 354 c 1
EndSplineSet
EndChar
StartChar: emdash
Encoding: 209 8212
Width: 575
Flags: W
Fore
104 354 m 1
 97 308 l 1
 190 313 246 315 338 315 c 0
 435 315 489 313 584 308 c 1
 592 354 l 1
 496 349 440 347 343 347 c 0
 251 347 197 349 104 354 c 1
EndSplineSet
EndChar
StartChar: quotedblleft
Encoding: 210 8220
Width: 303
Flags: MW
HStem: 733 20
Fore
243 711 m 0
 240 689 223 665 202 665 c 0
 199 665 196 666 194 667 c 1
 189 655 193 646 198 635 c 0
 201 626 205 621 213 615 c 1
 202 607 l 1
 167 630 159 660 166 701 c 0
 170 727 191 756 217 753 c 0
 236 751 246 732 243 711 c 0
352 693 m 0
 349 671 332 647 312 647 c 0
 308 647 305 648 302 649 c 1
 298 637 302 628 307 617 c 0
 311 608 314 603 322 597 c 1
 312 589 l 1
 276 612 268 642 275 683 c 0
 279 709 300 738 326 735 c 0
 345 733 354 714 352 693 c 0
EndSplineSet
EndChar
StartChar: quotedblright
Encoding: 211 8221
Width: 303
Flags: MW
HStem: 733 20
Fore
153 583 m 1
 144 591 l 1
 154 597 160 602 167 611 c 0
 176 622 181 631 181 643 c 1
 179 642 176 641 172 641 c 0
 151 641 141 665 146 687 c 0
 150 708 167 727 188 729 c 0
 214 732 224 703 220 677 c 0
 213 636 196 606 153 583 c 1
261 607 m 1
 253 615 l 1
 262 621 268 626 275 635 c 0
 284 646 290 655 291 667 c 1
 287 666 284 665 280 665 c 0
 259 665 250 689 255 711 c 0
 259 732 275 751 296 753 c 0
 322 756 334 727 330 701 c 0
 323 660 304 630 261 607 c 1
EndSplineSet
EndChar
StartChar: quoteleft
Encoding: 212 8216
Width: 170
Flags: MW
HStem: 733 20
Fore
243 711 m 0
 240 689 223 665 202 665 c 0
 199 665 196 666 194 667 c 1
 189 655 193 646 198 635 c 0
 201 626 205 621 213 615 c 1
 202 607 l 1
 167 630 159 660 166 701 c 0
 170 727 191 756 217 753 c 0
 236 751 246 732 243 711 c 0
EndSplineSet
EndChar
StartChar: quoteright
Encoding: 213 8217
Width: 170
Flags: MW
HStem: 733 20
Fore
157 607 m 1
 148 615 l 1
 158 621 163 626 171 635 c 0
 180 646 185 655 186 667 c 1
 182 666 180 665 176 665 c 0
 155 665 145 689 150 711 c 0
 155 732 171 751 192 753 c 0
 218 756 229 727 225 701 c 0
 218 660 199 630 157 607 c 1
EndSplineSet
EndChar
StartChar: divide
Encoding: 214 247
Width: 355
Flags: MW
VStem: 175 52
Fore
175 247 m 0
 176 261 186 278 202 277 c 0
 218 276 227 261 227 247 c 0
 227 229 218 211 201 211 c 0
 185 211 174 229 175 247 c 0
205 423 m 0
 206 437 216 454 232 453 c 0
 248 452 257 437 257 423 c 0
 257 405 248 387 231 387 c 0
 215 387 204 405 205 423 c 0
146 354 m 1
 140 312 l 1
 168 317 184 318 212 318 c 0
 240 318 256 317 284 312 c 1
 291 354 l 1
 262 349 245 348 217 348 c 0
 189 348 174 349 146 354 c 1
EndSplineSet
EndChar
StartChar: lozenge
Encoding: 215 9674
Width: 358
Flags: W
Fore
192 162 m 1
 193 162 193 163 193 163 c 2
 229 209 256 231 311 261 c 0
 319 266 343 274 350 280 c 1
 350 280 332 289 322 295 c 0
 280 322 249 344 228 379 c 1
 197 344 157 322 106 295 c 0
 94 289 73 280 73 280 c 1
 78 274 100 266 106 261 c 0
 152 231 171 209 192 163 c 1
 192 163 192 163 192 162 c 1
239 450 m 1
 256 410 l 2
 275 364 310 321 327 310 c 1
 341 299 376 283 376 283 c 1
 351 267 334 263 314 249 c 0
 268 217 249 199 217 158 c 2
 184 116 l 1
 166 158 l 2
 148 199 134 217 99 249 c 0
 83 263 68 267 48 283 c 1
 48 283 89 300 107 310 c 0
 128 322 176 363 210 410 c 2
 239 450 l 1
EndSplineSet
EndChar
StartChar: fraction
Encoding: 218 8260
Width: 510
Flags: W
Fore
366 716 m 0
 372 730 403 732 395 714 c 0
 388 699 89 58 80 40 c 0
 75 28 41 20 51 42 c 0
 59 59 248 464 366 716 c 0
EndSplineSet
EndChar
StartChar: guilsinglleft
Encoding: 220 8249
Width: 250
Flags: W
Fore
258 424 m 0
 227 364 165 329 101 295 c 0
 89 289 68 280 68 280 c 1
 73 274 95 266 101 261 c 0
 146 230 167 209 188 163 c 0
 202 133 198 103 199 74 c 1
 198 68 193 64 187 63 c 0
 149 56 176 61 139 55 c 1
 145 70 151 96 155 135 c 0
 160 188 129 217 93 249 c 0
 78 263 63 267 43 283 c 1
 43 283 84 300 102 310 c 0
 123 321 183 373 206 414 c 0
 221 440 213 453 213 468 c 1
 230 465 241 463 258 459 c 1
 265 459 273 453 258 424 c 0
EndSplineSet
EndChar
StartChar: guilsinglright
Encoding: 221 8250
Width: 250
Flags: W
Fore
59 98 m 0
 90 158 151 193 216 227 c 0
 228 233 249 242 249 242 c 1
 244 248 222 256 216 261 c 0
 171 292 150 313 129 359 c 0
 115 389 119 419 118 448 c 1
 119 454 124 458 130 459 c 0
 168 466 141 461 178 467 c 1
 172 452 166 426 162 387 c 0
 156 334 188 305 224 273 c 0
 239 259 254 255 274 239 c 1
 274 239 233 222 215 212 c 0
 194 201 134 149 111 108 c 0
 96 82 104 69 104 54 c 1
 87 57 76 59 59 63 c 1
 52 63 44 69 59 98 c 0
EndSplineSet
EndChar
StartChar: fi
Encoding: 222 64257
Width: 294
Flags: MW
HStem: 591 78<322.5 327> 730 20<204 257.5 226 389>
Fore
297 630 m 0
 300 649 313 669 332 669 c 0
 350 669 355 649 352 630 c 0
 350 611 336 591 318 591 c 0
 300 591 294 611 297 630 c 0
254 44 m 2
 334 526 l 1
 329 533 333 526 314 545 c 0
 313 547 311 542 308 540 c 0
 281 514 245 502 221 502 c 0
 203 502 196 502 181 502 c 0
 173 502 174 509 175 514 c 0
 184 573 203 686 203 687 c 0
 208 714 237 739 261 739 c 0
 291 739 321 707 341 675 c 1
 364 702 380 716 389 750 c 1
 326 750 289 750 226 750 c 0
 182 750 155 721 149 684 c 0
 144 656 130 573 121 514 c 0
 120 509 119 502 110 502 c 0
 96 502 100 501 95 502 c 1
 74 483 l 1
 80 483 83 483 105 483 c 0
 115 483 114 477 113 471 c 0
 93 352 13 -132 12 -140 c 0
 8 -164 -23 -190 -47 -190 c 0
 -76 -190 -106 -158 -126 -126 c 1
 -149 -153 -165 -167 -174 -201 c 1
 -111 -201 -74 -201 -11 -201 c 0
 32 -201 60 -172 66 -135 c 2
 66 -135 147 352 167 471 c 0
 168 477 169 483 179 483 c 0
 201 483 216 483 240 483 c 0
 251 483 260 484 270 485 c 1
 272 480 271 469 269 457 c 0
 266 443 200 52 199 44 c 0
 195 20 192 -8 221 -13 c 0
 249 -18 281 -6 291 23 c 0
 295 34 294 32 297 43 c 1
 283 43 l 1
 283 43 280 32 278 26 c 0
 272 8 249 13 254 44 c 2
EndSplineSet
Ligature: f i
EndChar
StartChar: fl
Encoding: 223 64258
Width: 332
Flags: MW
HStem: 502 237
Fore
315 545 m 1
 313 547 311 542 308 540 c 0
 281 514 245 502 221 502 c 0
 203 502 196 502 181 502 c 0
 173 502 174 509 175 514 c 0
 184 573 203 686 203 687 c 0
 208 714 237 739 261 739 c 0
 291 739 317 709 338 680 c 1
 337 676 328 616 315 545 c 1
402 740 m 0
 404 750 399 750 393 750 c 2
 393 750 289 750 226 750 c 0
 182 750 155 721 149 684 c 0
 144 656 130 573 121 514 c 0
 120 509 119 502 110 502 c 0
 96 502 100 501 95 502 c 1
 74 483 l 1
 80 483 83 483 105 483 c 0
 115 483 114 477 113 471 c 0
 93 352 13 -132 12 -140 c 0
 8 -164 -23 -190 -47 -190 c 0
 -76 -190 -106 -158 -126 -126 c 1
 -149 -153 -165 -167 -174 -201 c 1
 -111 -201 -74 -201 -11 -201 c 0
 32 -201 61 -172 66 -140 c 1
 66 -140 147 352 167 471 c 0
 168 477 169 483 179 483 c 0
 201 483 216 483 240 483 c 0
 277 483 282 487 307 496 c 1
 297 436 233 57 232 49 c 0
 228 25 225 -3 254 -8 c 0
 282 -13 314 -1 324 28 c 0
 328 39 327 37 330 48 c 1
 316 48 l 1
 316 48 313 37 311 31 c 0
 305 13 281 18 286 49 c 0
 313 208 402 736 402 740 c 0
EndSplineSet
Ligature: f l
EndChar
StartChar: daggerdbl
Encoding: 224 8225
Width: 320
Flags: MW
HStem: 0 20 95 38 617 38 730 20<259 309 309 309>
Fore
283 617 m 1
 274 529 272 469 256 375 c 0
 240 281 222 221 201 133 c 1
 230 134 298 140 298 140 c 1
 290 88 l 1
 290 88 220 95 193 95 c 1
 192 91 191 87 190 82 c 0
 187 57 184 27 183 0 c 1
 134 0 l 1
 142 25 148 53 154 77 c 0
 155 83 155 89 156 95 c 1
 130 94 58 88 58 88 c 1
 66 140 l 1
 66 140 132 135 159 133 c 1
 168 221 171 281 186 375 c 0
 202 469 219 529 240 617 c 1
 212 615 145 610 145 610 c 1
 154 662 l 1
 154 662 224 656 249 655 c 1
 251 661 251 666 253 672 c 1
 256 697 259 724 259 750 c 1
 309 750 l 1
 300 723 294 693 289 667 c 0
 288 663 287 659 287 655 c 1
 313 655 386 662 386 662 c 1
 377 610 l 1
 377 610 311 616 283 617 c 1
EndSplineSet
EndChar
StartChar: periodcentered
Encoding: 225 183
Width: 204
Flags: MW
HStem: 290 88
Fore
116 336 m 0
 121 357 138 379 158 378 c 0
 177 377 185 357 182 336 c 0
 178 314 162 290 142 290 c 0
 121 290 111 314 116 336 c 0
EndSplineSet
EndChar
StartChar: quotesinglbase
Encoding: 226 8218
Width: 179
Flags: W
Fore
157 -51 m 1
 148 -43 l 1
 158 -37 163 -32 171 -23 c 0
 180 -12 185 -3 186 9 c 1
 182 8 180 7 176 7 c 0
 155 7 145 31 150 53 c 0
 155 74 171 93 192 95 c 0
 218 98 229 69 225 43 c 0
 218 2 199 -28 157 -51 c 1
EndSplineSet
EndChar
StartChar: quotedblbase
Encoding: 227 8222
Width: 319
Flags: W
Fore
153 -72 m 1
 144 -64 l 1
 154 -58 160 -53 167 -44 c 0
 176 -33 181 -24 181 -12 c 1
 179 -13 176 -14 172 -14 c 0
 151 -14 141 10 146 32 c 0
 150 53 167 72 188 74 c 0
 214 77 224 48 220 22 c 0
 213 -19 196 -49 153 -72 c 1
261 -48 m 1
 253 -40 l 1
 262 -34 268 -29 275 -20 c 0
 284 -9 290 0 291 12 c 1
 287 11 284 10 280 10 c 0
 259 10 250 34 255 56 c 0
 259 77 275 96 296 98 c 0
 322 101 334 72 330 46 c 0
 323 5 304 -25 261 -48 c 1
EndSplineSet
EndChar
StartChar: perthousand
Encoding: 228 8240
Width: 765
Flags: MW
HStem: 0 20
Fore
436 716 m 0
 445 730 475 732 464 714 c 0
 455 699 43 58 30 40 c 1
 23 28 -12 20 2 42 c 0
 13 59 274 464 436 716 c 0
326 341 m 1
 327 341 l 1
 299 311 290 277 283 234 c 0
 274 183 262 82 324 35 c 0
 332 29 342 28 350 34 c 0
 388 66 401 116 410 171 c 0
 423 248 417 325 363 350 c 0
 351 356 337 352 326 341 c 1
358 386 m 2
 357 386 l 2
 373 395 386 394 399 387 c 0
 452 360 462 294 450 223 c 0
 435 138 399 30 324 4 c 0
 312 0 304 -3 295 4 c 0
 231 48 228 117 242 202 c 0
 256 281 292 350 358 386 c 2
116 696 m 1
 117 696 l 1
 89 666 80 632 73 589 c 0
 64 538 52 437 114 390 c 0
 122 384 132 383 140 389 c 0
 178 421 191 471 200 526 c 0
 213 603 207 680 153 705 c 0
 141 711 127 707 116 696 c 1
148 741 m 2
 147 741 l 2
 163 750 176 749 189 742 c 0
 242 715 252 649 240 578 c 0
 225 493 189 385 114 359 c 0
 102 355 94 352 85 359 c 0
 21 403 18 472 32 557 c 0
 46 636 82 705 148 741 c 2
582 341 m 0
 554 311 545 277 538 234 c 0
 529 183 517 82 579 35 c 0
 587 29 597 28 605 34 c 0
 643 66 656 116 665 171 c 0
 678 248 672 325 618 350 c 0
 606 356 592 352 582 341 c 0
613 386 m 2
 612 386 l 2
 628 395 641 394 654 387 c 0
 707 360 717 294 705 223 c 0
 690 138 654 30 579 4 c 0
 567 0 559 -3 550 4 c 0
 486 48 483 117 497 202 c 0
 511 281 547 350 613 386 c 2
EndSplineSet
EndChar
StartChar: Acircumflex
Encoding: 229 194
Width: 465
Flags: MW
HStem: -3 20
Fore
192 271 m 0
 212 393 146 473 168 607 c 0
 182 689 211 706 214 719 c 0
 217 736 198 735 199 744 c 0
 199 748 206 749 209 750 c 1
 209 750 310 749 373 749 c 0
 429 749 456 750 518 750 c 1
 528 746 546 752 543 740 c 0
 542 729 508 729 503 700 c 0
 460 444 437 299 394 44 c 0
 388 5 417 13 416 3 c 0
 415 0 412 -1 409 -3 c 1
 282 -3 l 1
 281 -1 278 -1 279 3 c 0
 281 17 313 2 321 48 c 0
 348 203 363 293 389 448 c 0
 393 474 390 475 374 480 c 0
 355 486 340 488 317 488 c 0
 286 488 263 485 235 472 c 0
 227 468 226 467 224 454 c 0
 211 373 225 334 201 193 c 0
 188 114 175 63 120 -3 c 1
 22 -3 l 1
 117 81 178 190 192 271 c 0
321 509 m 0
 347 509 361 504 386 498 c 0
 398 495 400 513 394 515 c 0
 370 523 350 528 331 528 c 0
 308 528 271 523 237 508 c 0
 225 503 226 485 242 491 c 0
 275 504 291 509 321 509 c 0
234 559 m 0
 231 537 224 519 244 527 c 0
 279 541 302 546 337 546 c 0
 358 546 370 543 389 537 c 0
 402 533 406 543 407 551 c 0
 413 591 421 638 430 693 c 0
 435 720 430 729 414 729 c 0
 400 729 389 731 373 731 c 0
 358 731 349 730 332 728 c 0
 272 721 247 638 234 559 c 0
285 774 m 1
 316 774 l 1
 384 818 l 1
 421 774 l 1
 456 774 l 1
 428 857 l 1
 361 857 l 1
 285 774 l 1
EndSplineSet
EndChar
StartChar: Ecircumflex
Encoding: 230 202
Width: 471
Flags: W
Fore
165 36 m 0
 181 28 193 27 212 27 c 0
 278 27 356 77 389 123 c 0
 391 126 396 135 402 129 c 0
 418 112 430 102 441 89 c 0
 445 84 443 75 437 70 c 0
 386 23 326 -15 275 -15 c 0
 212 -15 169 14 113 47 c 0
 99 56 89 64 70 64 c 0
 63 64 58 64 51 62 c 0
 43 60 38 66 50 73 c 0
 65 81 84 97 90 132 c 2
 90 132 179 665 182 683 c 0
 188 719 173 739 160 739 c 0
 156 739 155 741 155 745 c 0
 156 751 159 750 163 752 c 0
 169 755 174 751 180 751 c 0
 357 751 326 756 411 756 c 0
 457 756 500 735 509 701 c 0
 511 693 508 692 503 689 c 0
 481 673 467 663 443 648 c 0
 440 646 434 643 433 652 c 0
 429 679 427 696 408 713 c 0
 390 728 373 730 350 731 c 0
 330 732 303 732 287 731 c 0
 275 730 271 727 269 718 c 0
 263 680 249 602 234 513 c 0
 233 506 231 495 244 495 c 0
 265 495 277 495 304 495 c 0
 339 495 393 514 433 552 c 0
 437 556 441 563 445 560 c 1
 458 545 465 540 478 528 c 0
 481 526 479 522 476 519 c 0
 421 479 389 474 334 474 c 0
 298 474 277 474 242 474 c 0
 228 474 226 466 225 457 c 0
 195 279 183 212 160 67 c 0
 158 55 155 41 165 36 c 0
258 774 m 1
 290 774 l 1
 357 818 l 1
 394 774 l 1
 430 774 l 1
 402 857 l 1
 335 857 l 1
 258 774 l 1
EndSplineSet
EndChar
StartChar: Aacute
Encoding: 231 193
Width: 465
Flags: MW
HStem: -3 20
Fore
192 271 m 0
 212 393 146 473 168 607 c 0
 182 689 211 706 214 719 c 0
 217 736 198 735 199 744 c 0
 199 748 206 749 209 750 c 1
 209 750 310 749 373 749 c 0
 429 749 456 750 518 750 c 1
 528 746 546 752 543 740 c 0
 542 729 508 729 503 700 c 0
 460 444 437 299 394 44 c 0
 388 5 417 13 416 3 c 0
 415 0 412 -1 409 -3 c 1
 282 -3 l 1
 281 -1 278 -1 279 3 c 0
 281 17 313 2 321 48 c 0
 348 203 363 293 389 448 c 0
 393 474 390 475 374 480 c 0
 355 486 340 488 317 488 c 0
 286 488 263 485 235 472 c 0
 227 468 226 467 224 454 c 0
 211 373 225 334 201 193 c 0
 188 114 175 63 120 -3 c 1
 22 -3 l 1
 117 81 178 190 192 271 c 0
321 509 m 0
 347 509 361 504 386 498 c 0
 398 495 400 513 394 515 c 0
 370 523 350 528 331 528 c 0
 308 528 271 523 237 508 c 0
 225 503 226 485 242 491 c 0
 275 504 291 509 321 509 c 0
234 559 m 0
 231 537 224 519 244 527 c 0
 279 541 302 546 337 546 c 0
 358 546 370 543 389 537 c 0
 402 533 406 543 407 551 c 0
 413 591 421 638 430 693 c 0
 435 720 430 729 414 729 c 0
 400 729 389 731 373 731 c 0
 358 731 349 730 332 728 c 0
 272 721 247 638 234 559 c 0
428 886 m 1
 367 780 l 1
 335 780 l 1
 335 780 349 816 355 839 c 0
 359 857 364 886 364 886 c 1
 428 886 l 1
EndSplineSet
EndChar
StartChar: Egrave
Encoding: 233 200
Width: 471
Flags: W
Fore
165 36 m 0
 181 28 193 27 212 27 c 0
 278 27 356 77 389 123 c 0
 391 126 396 135 402 129 c 0
 418 112 430 102 441 89 c 0
 445 84 443 75 437 70 c 0
 386 23 326 -15 275 -15 c 0
 212 -15 169 14 113 47 c 0
 99 56 89 64 70 64 c 0
 63 64 58 64 51 62 c 0
 43 60 38 66 50 73 c 0
 65 81 84 97 90 132 c 2
 90 132 179 665 182 683 c 0
 188 719 173 739 160 739 c 0
 156 739 155 741 155 745 c 0
 156 751 159 750 163 752 c 0
 169 755 174 751 180 751 c 0
 357 751 326 756 411 756 c 0
 457 756 500 735 509 701 c 0
 511 693 508 692 503 689 c 0
 481 673 467 663 443 648 c 0
 440 646 434 643 433 652 c 0
 429 679 427 696 408 713 c 0
 390 728 373 730 350 731 c 0
 330 732 303 732 287 731 c 0
 275 730 271 727 269 718 c 0
 263 680 249 602 234 513 c 0
 233 506 231 495 244 495 c 0
 265 495 277 495 304 495 c 0
 339 495 393 514 433 552 c 0
 437 556 441 563 445 560 c 1
 458 545 465 540 478 528 c 0
 481 526 479 522 476 519 c 0
 421 479 389 474 334 474 c 0
 298 474 277 474 242 474 c 0
 228 474 226 466 225 457 c 0
 195 279 183 212 160 67 c 0
 158 55 155 41 165 36 c 0
352 770 m 1
 320 770 l 1
 294 876 l 1
 358 876 l 1
 358 876 353 847 352 829 c 0
 351 806 352 770 352 770 c 1
EndSplineSet
EndChar
StartChar: Iacute
Encoding: 234 205
Width: 216
Flags: MW
HStem: 0 20
Fore
37 0 m 1
 35 2 30 1 31 7 c 0
 32 11 34 13 38 13 c 0
 51 13 72 18 80 67 c 2
 80 67 179 665 182 683 c 0
 188 719 173 737 160 737 c 0
 156 737 154 739 155 743 c 0
 156 749 161 748 162 750 c 1
 258 750 l 2
 267 750 274 750 272 735 c 0
 252 617 164 88 160 67 c 0
 150 6 169 13 182 13 c 0
 186 13 188 11 187 7 c 0
 186 1 181 2 180 0 c 1
 37 0 l 1
292 886 m 1
 231 780 l 1
 199 780 l 1
 199 780 213 816 219 839 c 0
 223 857 228 886 228 886 c 1
 292 886 l 1
EndSplineSet
EndChar
StartChar: Icircumflex
Encoding: 235 206
Width: 216
Flags: MW
HStem: 0 20
Fore
37 0 m 1
 35 2 30 1 31 7 c 0
 32 11 34 13 38 13 c 0
 51 13 72 18 80 67 c 2
 80 67 179 665 182 683 c 0
 188 719 173 737 160 737 c 0
 156 737 154 739 155 743 c 0
 156 749 161 748 162 750 c 1
 258 750 l 2
 267 750 274 750 272 735 c 0
 252 617 164 88 160 67 c 0
 150 6 169 13 182 13 c 0
 186 13 188 11 187 7 c 0
 186 1 181 2 180 0 c 1
 37 0 l 1
140 774 m 1
 171 774 l 1
 238 818 l 1
 276 774 l 1
 311 774 l 1
 283 857 l 1
 216 857 l 1
 140 774 l 1
EndSplineSet
EndChar
StartChar: Igrave
Encoding: 237 204
Width: 216
Flags: MW
HStem: 0 20
Fore
37 0 m 1
 35 2 30 1 31 7 c 0
 32 11 34 13 38 13 c 0
 51 13 72 18 80 67 c 2
 80 67 179 665 182 683 c 0
 188 719 173 737 160 737 c 0
 156 737 154 739 155 743 c 0
 156 749 161 748 162 750 c 1
 258 750 l 2
 267 750 274 750 272 735 c 0
 252 617 164 88 160 67 c 0
 150 6 169 13 182 13 c 0
 186 13 188 11 187 7 c 0
 186 1 181 2 180 0 c 1
 37 0 l 1
246 770 m 1
 214 770 l 1
 188 876 l 1
 252 876 l 1
 252 876 247 847 246 829 c 0
 245 806 246 770 246 770 c 1
EndSplineSet
EndChar
StartChar: Oacute
Encoding: 238 211
Width: 496
Flags: W
Fore
186 454 m 0
 158 282 163 88 279 46 c 0
 352 19 418 207 438 326 c 0
 465 486 441 644 345 684 c 0
 253 722 203 555 186 454 c 0
104 386 m 0
 130 545 199 676 332 754 c 0
 368 775 398 770 427 750 c 0
 510 694 534 567 511 430 c 0
 496 343 460 91 283 0 c 0
 249 -18 227 -27 200 -8 c 0
 85 74 76 219 104 386 c 0
441 886 m 1
 379 780 l 1
 347 780 l 1
 347 780 361 816 367 839 c 0
 372 857 377 886 377 886 c 1
 441 886 l 1
EndSplineSet
EndChar
StartChar: Ocircumflex
Encoding: 239 212
Width: 496
Flags: W
Fore
186 454 m 0
 158 282 163 88 279 46 c 0
 352 19 418 207 438 326 c 0
 465 486 441 644 345 684 c 0
 253 722 203 555 186 454 c 0
104 386 m 0
 130 545 199 676 332 754 c 0
 368 775 398 770 427 750 c 0
 510 694 534 567 511 430 c 0
 496 343 460 91 283 0 c 0
 249 -18 227 -27 200 -8 c 0
 85 74 76 219 104 386 c 0
300 774 m 1
 332 774 l 1
 399 818 l 1
 437 774 l 1
 472 774 l 1
 444 857 l 1
 377 857 l 1
 300 774 l 1
EndSplineSet
EndChar
StartChar: apple
Encoding: 240 63743
Width: 854
Flags: W
Fore
646 -28 m 1
 427 187 l 1
 213 -28 l 1
 371 -28 l 2
 387 -28 400 -32 412 -42 c 0
 420 -50 426 -54 432 -65 c 1
 435 -55 440 -49 447 -42 c 0
 463 -28 476 -28 485 -28 c 2
 646 -28 l 1
337 -165 m 2
 265 -165 216 -170 155 -129 c 0
 57 -63 60 47 60 169 c 2
 60 412 l 2
 60 533 54 643 155 709 c 0
 216 749 265 745 337 745 c 2
 520 745 l 2
 592 745 641 749 702 709 c 0
 804 643 798 534 798 412 c 2
 798 169 l 2
 798 47 804 -63 702 -129 c 0
 641 -169 592 -165 520 -165 c 2
 337 -165 l 2
688 364 m 2
 688 379 694 388 706 398 c 0
 717 406 727 410 741 409 c 1
 741 435 l 1
 115 435 l 1
 115 409 l 1
 129 410 139 406 150 398 c 1
 161 388 168 379 168 364 c 1
 167 23 l 1
 427 281 l 1
 688 19 l 1
 688 364 l 2
422 481 m 1
 415 481 l 1
 422 481 l 1
461 482 m 1
 459 482 l 2
 457 482 455 481 453 480 c 0
 450 480 449 480 446 479 c 1
 443 480 439 480 435 480 c 0
 431 481 428 481 424 481 c 2
 422 481 l 1
 419 485 417 487 416 491 c 0
 409 509 396 531 411 543 c 0
 415 546 419 546 424 546 c 0
 432 548 436 549 445 548 c 1
 441 544 439 540 437 535 c 0
 433 521 445 513 451 500 c 0
 454 493 457 489 461 482 c 1
404 477 m 1
 400 476 397 474 394 470 c 1
 389 476 384 478 377 478 c 0
 369 478 365 476 359 470 c 1
 354 476 350 478 343 478 c 0
 335 479 328 476 324 470 c 1
 319 476 314 478 307 478 c 0
 299 479 293 476 288 470 c 1
 283 475 280 476 273 477 c 0
 265 478 257 475 252 468 c 0
 248 462 246 457 248 450 c 0
 250 444 258 443 265 443 c 0
 273 442 280 445 285 450 c 1
 290 446 294 444 300 443 c 0
 308 443 313 445 319 450 c 1
 324 445 328 443 335 443 c 0
 343 442 350 445 355 450 c 1
 359 446 363 443 369 443 c 0
 377 442 384 444 389 450 c 1
 392 446 398 443 404 442 c 0
 413 441 418 443 424 450 c 1
 427 446 432 443 439 442 c 0
 447 441 454 443 459 450 c 1
 463 445 466 443 472 442 c 0
 481 440 488 443 493 450 c 1
 497 445 501 443 507 442 c 0
 516 441 522 443 527 450 c 1
 531 445 535 443 543 442 c 0
 551 441 557 443 563 450 c 1
 567 445 572 443 579 442 c 0
 587 441 595 444 600 451 c 0
 604 457 606 462 604 469 c 0
 602 476 594 477 586 478 c 0
 578 479 572 476 567 470 c 1
 562 476 557 478 550 478 c 0
 543 479 536 476 531 470 c 1
 527 476 522 477 515 478 c 0
 507 479 502 476 497 470 c 1
 494 474 491 476 487 477 c 1
 495 477 l 1
 489 480 486 480 480 481 c 0
 475 482 472 482 468 482 c 2
 466 482 l 1
 461 494 458 501 454 513 c 0
 452 522 445 528 448 536 c 0
 458 562 481 543 503 546 c 0
 528 550 540 571 541 588 c 0
 544 661 487 645 485 681 c 0
 484 690 494 691 502 694 c 0
 512 698 519 691 530 691 c 0
 546 690 557 691 572 694 c 1
 558 699 l 1
 572 705 l 1
 565 705 561 706 554 707 c 0
 546 709 541 710 535 714 c 0
 530 718 530 724 524 728 c 0
 517 731 509 731 501 731 c 0
 473 728 455 697 461 670 c 0
 464 654 490 652 488 635 c 0
 487 628 483 627 477 625 c 0
 454 620 452 640 414 641 c 0
 381 642 374 599 350 612 c 0
 340 617 337 622 331 631 c 0
 328 635 326 639 324 643 c 1
 320 639 319 636 318 631 c 0
 315 617 334 607 333 596 c 0
 332 587 326 566 322 561 c 1
 328 568 345 574 354 573 c 0
 362 572 365 566 373 562 c 0
 383 557 391 554 401 551 c 1
 398 547 395 545 394 539 c 0
 388 523 400 512 408 497 c 0
 411 491 413 487 415 481 c 1
 413 481 411 480 409 480 c 0
 405 479 403 478 399 477 c 1
 404 477 l 1
439 477 m 1
 435 476 431 474 428 470 c 1
 425 474 422 476 418 477 c 1
 439 477 l 1
474 477 m 1
 470 476 466 474 463 470 c 1
 460 474 457 476 452 477 c 1
 474 477 l 1
594 325 m 1
 639 297 l 1
 604 297 l 1
 639 277 l 1
 604 277 l 1
 636 257 l 1
 604 257 l 1
 604 237 l 1
 584 237 l 1
 584 257 l 1
 552 257 l 1
 584 277 l 1
 552 277 l 1
 584 297 l 1
 554 297 l 1
 594 325 l 1
427 91 m 1
 472 64 l 1
 437 64 l 1
 472 43 l 1
 437 43 l 1
 469 24 l 1
 437 24 l 1
 437 4 l 1
 417 4 l 1
 417 24 l 1
 385 24 l 1
 417 43 l 1
 385 43 l 1
 417 64 l 1
 386 64 l 1
 427 91 l 1
259 325 m 1
 304 297 l 1
 269 297 l 1
 304 277 l 1
 269 277 l 1
 302 257 l 1
 269 257 l 1
 269 237 l 1
 250 237 l 1
 250 257 l 1
 217 257 l 1
 250 277 l 1
 217 277 l 1
 250 297 l 1
 219 297 l 1
 259 325 l 1
EndSplineSet
EndChar
StartChar: Ograve
Encoding: 241 210
Width: 496
Flags: W
Fore
186 454 m 0
 158 282 163 88 279 46 c 0
 352 19 418 207 438 326 c 0
 465 486 441 644 345 684 c 0
 253 722 203 555 186 454 c 0
104 386 m 0
 130 545 199 676 332 754 c 0
 368 775 398 770 427 750 c 0
 510 694 534 567 511 430 c 0
 496 343 460 91 283 0 c 0
 249 -18 227 -27 200 -8 c 0
 85 74 76 219 104 386 c 0
405 780 m 1
 373 780 l 1
 346 887 l 1
 411 887 l 1
 411 887 406 858 405 840 c 0
 404 816 405 780 405 780 c 1
EndSplineSet
EndChar
StartChar: Uacute
Encoding: 242 218
Width: 489
Flags: MW
HStem: 0 20
Fore
305 25 m 0
 313 12 336 18 344 67 c 2
 344 67 443 665 446 683 c 0
 452 719 437 737 424 737 c 0
 420 737 418 739 419 743 c 0
 420 749 425 748 427 750 c 1
 522 750 l 2
 531 750 538 750 536 735 c 0
 516 617 428 88 424 67 c 0
 414 6 433 13 446 13 c 0
 450 13 452 11 451 7 c 0
 450 1 446 2 444 0 c 1
 313 0 l 2
 293 0 281 6 268 22 c 0
 161 149 96 297 133 518 c 0
 146 594 199 693 202 708 c 0
 204 721 188 725 190 738 c 0
 191 745 199 749 207 750 c 2
 347 750 l 1
 349 748 353 749 352 743 c 0
 351 739 350 737 346 737 c 0
 336 737 316 707 292 680 c 0
 277 663 214 546 199 456 c 0
 170 286 216 166 305 25 c 0
455 886 m 1
 394 780 l 1
 362 780 l 1
 362 780 376 816 382 839 c 0
 386 857 391 886 391 886 c 1
 455 886 l 1
EndSplineSet
EndChar
StartChar: Ucircumflex
Encoding: 243 219
Width: 489
Flags: MW
HStem: 0 20 730 20<207 347 347 347 427 522 522 526.5>
Fore
305 25 m 0
 313 12 336 18 344 67 c 2
 344 67 443 665 446 683 c 0
 452 719 437 737 424 737 c 0
 420 737 418 739 419 743 c 0
 420 749 425 748 427 750 c 1
 522 750 l 2
 531 750 538 750 536 735 c 0
 516 617 428 88 424 67 c 0
 414 6 433 13 446 13 c 0
 450 13 452 11 451 7 c 0
 450 1 446 2 444 0 c 1
 313 0 l 2
 293 0 281 6 268 22 c 0
 161 149 96 297 133 518 c 0
 146 594 199 693 202 708 c 0
 204 721 188 725 190 738 c 0
 191 745 199 749 207 750 c 2
 347 750 l 1
 349 748 353 749 352 743 c 0
 351 739 350 737 346 737 c 0
 336 737 316 707 292 680 c 0
 277 663 214 546 199 456 c 0
 170 286 216 166 305 25 c 0
297 774 m 1
 329 774 l 1
 396 818 l 1
 433 774 l 1
 469 774 l 1
 441 857 l 1
 374 857 l 1
 297 774 l 1
EndSplineSet
EndChar
StartChar: Ugrave
Encoding: 244 217
Width: 489
Flags: MW
HStem: 0 20
Fore
305 25 m 0
 313 12 336 18 344 67 c 2
 344 67 443 665 446 683 c 0
 452 719 437 737 424 737 c 0
 420 737 418 739 419 743 c 0
 420 749 425 748 427 750 c 1
 522 750 l 2
 531 750 538 750 536 735 c 0
 516 617 428 88 424 67 c 0
 414 6 433 13 446 13 c 0
 450 13 452 11 451 7 c 0
 450 1 446 2 444 0 c 1
 313 0 l 2
 293 0 281 6 268 22 c 0
 161 149 96 297 133 518 c 0
 146 594 199 693 202 708 c 0
 204 721 188 725 190 738 c 0
 191 745 199 749 207 750 c 2
 347 750 l 1
 349 748 353 749 352 743 c 0
 351 739 350 737 346 737 c 0
 336 737 316 707 292 680 c 0
 277 663 214 546 199 456 c 0
 170 286 216 166 305 25 c 0
401 770 m 1
 369 770 l 1
 342 876 l 1
 406 876 l 1
 406 876 401 847 401 829 c 0
 400 806 401 770 401 770 c 1
EndSplineSet
EndChar
StartChar: dotlessi
Encoding: 245 305
Width: 157
Flags: MW
HStem: 483 20
Fore
121 26 m 0
 123 32 129 50 129 50 c 1
 143 50 l 1
 140 39 138 34 134 23 c 0
 124 -6 92 -18 64 -13 c 0
 35 -8 38 20 42 44 c 0
 44 56 83 293 111 457 c 0
 114 476 89 481 83 463 c 0
 81 457 75 439 75 439 c 1
 61 439 l 1
 64 450 66 455 70 466 c 0
 80 495 112 507 140 502 c 0
 169 497 165 456 163 446 c 0
 162 442 123 203 96 44 c 0
 91 13 115 8 121 26 c 0
EndSplineSet
EndChar
StartChar: circumflex
Encoding: 246 710
Width: 373
Flags: W
Fore
132 545 m 1
 175 545 l 1
 266 611 l 1
 317 545 l 1
 365 545 l 1
 327 670 l 1
 236 670 l 1
 132 545 l 1
EndSplineSet
EndChar
StartChar: tilde
Encoding: 247 732
Width: 496
Flags: W
Fore
223 803 m 0
 242 827 258 857 282 857 c 0
 314 857 327 828 359 828 c 0
 379 828 399 839 418 850 c 0
 434 859 429 845 424 838 c 0
 406 813 389 779 360 779 c 0
 327 779 318 808 284 808 c 0
 264 808 252 802 230 789 c 0
 206 775 212 788 223 803 c 0
EndSplineSet
EndChar
StartChar: macron
Encoding: 248 175
Width: 355
Flags: W
Fore
146 805 m 1
 140 763 l 1
 168 768 184 769 212 769 c 0
 240 769 256 768 284 763 c 1
 291 805 l 1
 262 800 245 799 217 799 c 0
 189 799 174 800 146 805 c 1
EndSplineSet
EndChar
StartChar: breve
Encoding: 249 728
Width: 0
Flags: W
Fore
140 585 m 0
 98 585 67 606 50 645 c 1
 25 620 l 1
 45 568 87 540 142 540 c 0
 196 540 237 569 257 620 c 1
 231 645 l 1
 215 606 183 585 140 585 c 0
EndSplineSet
EndChar
StartChar: dotaccent
Encoding: 250 729
Width: 264
Flags: W
Fore
67 642 m 0
 71 664 89 685 109 684 c 0
 128 683 138 663 134 642 c 0
 130 620 114 596 93 596 c 0
 72 596 62 621 67 642 c 0
EndSplineSet
EndChar
StartChar: ring
Encoding: 251 730
Width: 373
Flags: MW
HStem: 540 35 679 35
VStem: 91 35 230 35
Fore
123 695 m 0
 160 725 216 719 246 682 c 0
 276 645 270 590 233 560 c 0
 196 530 140 535 110 572 c 0
 80 609 86 665 123 695 c 0
143 665 m 0
 122 645 120 613 140 592 c 0
 160 571 192 570 213 590 c 0
 234 610 236 641 216 662 c 0
 196 683 164 685 143 665 c 0
EndSplineSet
EndChar
StartChar: cedilla
Encoding: 252 184
Width: 333
Flags: MW
HStem: -175 125<157 167>
Fore
222 -50 m 1
 167 -175 l 1
 132 -175 l 1
 157 -50 l 1
 222 -50 l 1
EndSplineSet
EndChar
StartChar: ogonek
Encoding: 254 731
Width: 1000
Flags: W
Fore
123 0 m 1
 165 0 l 1
 129 -6 111 -43 115 -80 c 0
 119 -109 150 -120 180 -125 c 0
 217 -131 244 -119 265 -90 c 1
 285 -115 l 1
 261 -154 230 -171 185 -170 c 0
 130 -169 75 -135 75 -80 c 0
 75 -44 91 -17 123 0 c 1
EndSplineSet
EndChar
StartChar: caron
Encoding: 255 711
Width: 465
Flags: W
Fore
240 782 m 1
 273 782 l 1
 332 738 l 1
 384 782 l 1
 420 782 l 1
 369 699 l 1
 299 699 l 1
 240 782 l 1
EndSplineSet
EndChar
StartChar: currency
Encoding: 297 164
Width: 544
Flags: W
Fore
225 165 m 0
 25 165 25 465 225 465 c 0
 425 465 425 165 225 165 c 0
96 472 m 1
 49 520 l 1
 32 520 21 508 22 492 c 1
 22 492 69 446 69 445 c 0
 10 372 9 255 70 183 c 1
 71 183 22 134 22 134 c 1
 21 111 35 103 49 106 c 1
 98 156 l 1
 130 131 172 115 225 115 c 0
 280 115 324 132 357 159 c 1
 409 106 l 1
 438 108 441 114 437 134 c 1
 383 187 l 1
 439 259 439 369 385 441 c 1
 437 492 l 1
 443 512 430 516 409 520 c 1
 358 469 l 1
 326 498 281 515 225 515 c 0
 172 515 128 498 96 472 c 1
EndSplineSet
EndChar
StartChar: minus
Encoding: 298 8722
Width: 355
Flags: W
Fore
146 354 m 1
 140 312 l 1
 168 317 184 318 212 318 c 0
 240 318 256 317 284 312 c 1
 291 354 l 1
 262 349 245 348 217 348 c 0
 189 348 174 349 146 354 c 1
EndSplineSet
EndChar
StartChar: Omega
Encoding: 299 937
Width: 158
Flags: MW
HStem: 730 20<204 257.5 226 389>
Fore
11 -138 m 0
 7 -165 -23 -190 -47 -190 c 0
 -76 -190 -106 -158 -126 -126 c 1
 -149 -153 -165 -167 -174 -201 c 1
 -111 -201 -74 -201 -11 -201 c 0
 32 -201 60 -172 66 -135 c 2
 66 -135 203 684 203 687 c 0
 208 714 237 739 261 739 c 0
 291 739 321 707 341 675 c 1
 364 702 380 716 389 750 c 1
 326 750 289 750 226 750 c 0
 182 750 155 721 149 684 c 1
 149 684 12 -129 11 -138 c 0
EndSplineSet
EndChar
StartChar: Delta
Encoding: 300 916
Width: 713
Flags: W
Fore
357 680 m 1
 -36 45 l 1
 -42 0 l 1
 585 0 l 1
 591 45 l 1
 357 680 l 1
499 45 m 1
 14 45 l 1
 313 530 l 1
 499 45 l 1
EndSplineSet
EndChar
